<?xml version="1.0" encoding="utf-8"?>
<!-- Generator: Adobe Illustrator 16.0.0, SVG Export Plug-In . SVG Version: 6.00 Build 0)  -->
<!DOCTYPE svg PUBLIC "-//W3C//DTD SVG 1.1//EN" "http://www.w3.org/Graphics/SVG/1.1/DTD/svg11.dtd">
<svg version="1.1" id="Layer_1" xmlns="http://www.w3.org/2000/svg" xmlns:xlink="http://www.w3.org/1999/xlink" x="0px" y="0px"
	 width="43px" height="34px" viewBox="0 0 43 34" enable-background="new 0 0 43 34" xml:space="preserve">
<g>
	<g>
		<path fill="none" stroke="#65BE62" stroke-width="2" stroke-miterlimit="10" d="M27.517,15.799c4.104,0,7.232-3.127,7.232-7.232
			c0-4.092-3.129-7.219-7.232-7.219c-0.719,0-1.436,0.232-2.164,0.232c1.445,2.178,2.164,4.342,2.164,6.986
			c0,2.658-0.719,4.822-2.164,6.986C26.081,15.553,26.798,15.799,27.517,15.799L27.517,15.799z M15.474,15.799
			c4.104,0,7.232-3.127,7.232-7.232c0-4.092-3.129-7.219-7.232-7.219c-4.092,0-7.221,3.127-7.221,7.219
			C8.253,12.672,11.382,15.799,15.474,15.799L15.474,15.799z M31.376,21.091c1.928,1.694,3.373,4.106,3.373,6.751v4.811h7.221
			v-4.811C41.97,24.23,36.194,21.82,31.376,21.091L31.376,21.091z M15.474,20.61c-4.809,0-14.443,2.41-14.443,7.231v4.811h28.898
			v-4.811C29.929,23.021,20.296,20.61,15.474,20.61L15.474,20.61z M15.474,20.61"/>
	</g>
</g>
</svg>
