<?xml version="1.0" encoding="utf-8"?>
<!-- Generator: Adobe Illustrator 16.0.0, SVG Export Plug-In . SVG Version: 6.00 Build 0)  -->
<!DOCTYPE svg PUBLIC "-//W3C//DTD SVG 1.1//EN" "http://www.w3.org/Graphics/SVG/1.1/DTD/svg11.dtd">
<svg version="1.1" id="Layer_1" xmlns="http://www.w3.org/2000/svg" xmlns:xlink="http://www.w3.org/1999/xlink" x="0px" y="0px"
	 width="35px" height="37px" viewBox="0 0 35 37" enable-background="new 0 0 35 37" xml:space="preserve">
<g>
	<g>
		<path fill="none" stroke="#65BE62" stroke-width="2" stroke-miterlimit="10" d="M27.309,22.338c-2.264,0-4.264,1.148-5.451,2.893
			l-8.336-4.617c0.482-0.916,0.758-1.955,0.758-3.059c0-1.074-0.264-2.087-0.721-2.983l6.328-2.752
			c1.191,1.715,3.172,2.843,5.414,2.843c3.633,0,6.59-2.956,6.59-6.591c0-3.632-2.957-6.588-6.59-6.588s-6.59,2.956-6.59,6.588
			c0,0.748,0.131,1.462,0.361,2.133l-6.574,2.859c-1.203-1.287-2.91-2.098-4.807-2.098c-3.633,0-6.59,2.955-6.59,6.589
			c0,3.633,2.957,6.59,6.59,6.59c1.875,0,3.564-0.793,4.768-2.055l8.6,4.764c-0.217,0.652-0.338,1.348-0.338,2.072
			c0,3.635,2.955,6.592,6.588,6.592s6.59-2.957,6.59-6.592C33.898,25.293,30.941,22.338,27.309,22.338L27.309,22.338z
			 M27.309,33.711"/>
	</g>
</g>
</svg>
