<svg id="Layer_1" xmlns="http://www.w3.org/2000/svg" width="14.84" height="11.66" viewBox="0 0 14.84 11.66"><path fill="#65C6BB" d="M14.252 4.537a7.454 7.454 0 0 0-1.581-2.367A7.449 7.449 0 0 0 10.302.588C9.385.195 8.425 0 7.42 0S5.454.195 4.538.588A7.433 7.433 0 0 0 2.17 2.17 7.456 7.456 0 0 0 .588 4.537 7.26 7.26 0 0 0 0 7.42c0 1.445.389 2.779 1.168 4 .104.16.254.24.447.24h11.609c.193 0 .343-.08.447-.24a7.32 7.32 0 0 0 1.168-4 7.241 7.241 0 0 0-.587-2.883zM6.67 1.37c.208-.206.457-.31.75-.31s.542.104.749.31c.208.207.311.457.311.749 0 .293-.103.543-.311.75-.207.207-.456.311-.749.311s-.543-.104-.75-.311-.31-.457-.31-.75c0-.292.103-.542.31-.749zM2.869 8.169a1.02 1.02 0 0 1-.749.311c-.293 0-.542-.104-.749-.312a1.012 1.012 0 0 1-.31-.748c0-.293.103-.543.311-.75.206-.207.455-.311.748-.311.292 0 .543.104.749.311.207.207.311.457.311.75 0 .292-.104.542-.311.749zm1.59-3.71a1.02 1.02 0 0 1-.749.311c-.292 0-.542-.104-.749-.311s-.312-.457-.312-.75c0-.292.104-.541.312-.749a1.02 1.02 0 0 1 .749-.31c.293 0 .542.103.749.31.207.208.311.457.311.749 0 .293-.104.543-.311.75zm4.691.07l-.836 3.164c.277.188.475.438.596.754.122.314.139.637.05.969-.11.424-.355.747-.736.969a1.55 1.55 0 0 1-1.209.165c-.426-.11-.749-.356-.97-.737s-.275-.784-.165-1.209c.088-.332.262-.604.521-.816s.555-.333.886-.36l.837-3.164c.038-.143.121-.252.248-.326s.26-.093.397-.054a.52.52 0 0 1 .318.244.513.513 0 0 1 .063.401zm1.231-.07a1.018 1.018 0 0 1-.311-.75c0-.292.103-.541.311-.749a1.02 1.02 0 0 1 .749-.31c.292 0 .542.103.749.31.207.208.312.457.312.749 0 .293-.104.543-.312.75s-.457.311-.749.311a1.02 1.02 0 0 1-.749-.311zm3.088 3.71a1.02 1.02 0 0 1-.749.311c-.292 0-.542-.104-.749-.312a1.021 1.021 0 0 1-.312-.749c0-.293.104-.543.312-.75s.457-.311.749-.311c.293 0 .542.104.749.311s.311.457.311.75a1.026 1.026 0 0 1-.311.75zm0 0"/></svg>