<svg id="Layer_1" xmlns="http://www.w3.org/2000/svg" width="19.79" height="19.59" viewBox="0 0 19.79 19.59"><path fill="#9B9A9A" d="M19.789 19.172c0 .23-.189.42-.42.42h-8.442a.421.421 0 0 1-.42-.42v-8.249c0-.231.189-.42.42-.42h8.442c.23 0 .42.189.42.42v8.249z"/><path fill="none" stroke="#9A9A99" stroke-width="1.051" stroke-miterlimit="10" d="M19.789 19.172c0 .23-.189.42-.42.42h-8.442a.421.421 0 0 1-.42-.42v-8.249c0-.231.189-.42.42-.42h8.442c.23 0 .42.189.42.42v8.249z"/><path fill="#F4F6F7" d="M16.789 16.172c0 .23-.189.42-.42.42H7.927a.421.421 0 0 1-.42-.42V7.923c0-.231.189-.42.42-.42h8.442c.23 0 .42.189.42.42v8.249z"/><path fill="none" stroke="#9B9A9A" stroke-width="1.051" stroke-miterlimit="10" d="M16.789 16.172c0 .23-.189.42-.42.42H7.927a.421.421 0 0 1-.42-.42V7.923c0-.231.189-.42.42-.42h8.442c.23 0 .42.189.42.42v8.249z"/><g><path fill="#F4F6F7" d="M13.037 12.42c0 .23-.189.42-.42.42H4.175a.421.421 0 0 1-.42-.42V4.17c0-.231.189-.42.42-.42h8.442c.23 0 .42.189.42.42v8.25z"/><path fill="none" stroke="#9B9A9A" stroke-width="1.051" stroke-miterlimit="10" d="M13.037 12.42c0 .23-.189.42-.42.42H4.175a.421.421 0 0 1-.42-.42V4.17c0-.231.189-.42.42-.42h8.442c.23 0 .42.189.42.42v8.25z"/></g><g><path fill="#F4F6F7" d="M9.286 8.667c0 .231-.189.42-.42.42H.421a.421.421 0 0 1-.42-.42V.418c0-.231.189-.42.42-.42h8.444c.231 0 .42.189.42.42v8.249z"/><path fill="none" stroke="#9B9A9A" stroke-width="1.051" stroke-miterlimit="10" d="M9.286 8.667c0 .231-.189.42-.42.42H.421a.421.421 0 0 1-.42-.42V.418c0-.231.189-.42.42-.42h8.444c.231 0 .42.189.42.42v8.249z"/></g></svg>