<svg id="Layer_1" xmlns="http://www.w3.org/2000/svg" width="25" height="25" viewBox="0 0 25 25"><path fill="#9B9A9A" d="M23.059 11.328l-4.695 4.69a6.629 6.629 0 0 1-9.381 0 6.51 6.51 0 0 1-1.008-1.337l2.182-2.181c.101-.104.229-.164.353-.234a3.23 3.23 0 0 0 .821 1.407 3.319 3.319 0 0 0 4.689 0l4.693-4.691a3.323 3.323 0 0 0 0-4.691 3.32 3.32 0 0 0-4.693 0l-1.668 1.67a8.317 8.317 0 0 0-4.233-.461l3.556-3.554a6.634 6.634 0 1 1 9.384 9.382zM10.65 19.041l-1.668 1.67a3.32 3.32 0 0 1-4.691 0 3.322 3.322 0 0 1 0-4.693l4.691-4.69a3.32 3.32 0 0 1 4.691 0c.403.403.668.892.819 1.405.124-.07.249-.128.352-.232l2.183-2.18c-.278-.475-1.416-1.747-1.008-1.339.004.004-1.326-8.062-9.385 0l-4.691 4.691a6.637 6.637 0 0 0 0 9.386 6.645 6.645 0 0 0 9.387 0l3.554-3.557a8.33 8.33 0 0 1-4.234-.461zm0 0"/></svg>