<svg id="Layer_1" xmlns="http://www.w3.org/2000/svg" width="26.67" height="25" viewBox="0 0 26.67 25"><path fill="#9B9A9A" d="M26.637 1.578C26.563.725 25.871 0 25.001 0H1.669C.798 0 .099.725.025 1.578H.001v21.754A1.67 1.67 0 0 0 1.669 25h23.332c.919 0 1.668-.75 1.668-1.668V1.578h-.032zM8.334 23.332H1.669v-4.998h6.665v4.998zm0-6.527H1.669V11.67h6.665v5.135zm0-6.803H1.669V4.996h6.665v5.006zm8.333 13.33h-6.665v-4.998h6.665v4.998zm0-6.527h-6.665V11.67h6.665v5.135zm0-6.803h-6.665V4.996h6.665v5.006zm8.334 13.33h-6.665v-4.998h6.665v4.998zm0-6.527h-6.665V11.67h6.665v5.135zm0-6.803h-6.665V4.996h6.665v5.006zm0 0"/></svg>