<svg id="Layer_1" xmlns="http://www.w3.org/2000/svg" width="20.54" height="19.05" viewBox="0 0 20.54 19.05"><g fill="#65BD61"><path d="M19.598.001h-5.744a.74.74 0 0 0-.738.74v.316a.74.74 0 0 0 .738.739h4.688v4.688a.74.74 0 0 0 .74.739h.316a.738.738 0 0 0 .738-.739V.741c0-.409-.33-.74-.738-.74zm0 0M6.481.001H.737a.739.739 0 0 0-.738.74v5.743c0 .408.33.739.738.739h.316a.74.74 0 0 0 .74-.739V1.797h4.688a.739.739 0 0 0 .738-.739V.741a.738.738 0 0 0-.738-.74zm0 0M6.481 17.253H1.794v-4.688a.74.74 0 0 0-.74-.738H.737a.739.739 0 0 0-.738.738v5.744c0 .408.33.739.738.739h5.744a.739.739 0 0 0 .738-.739v-.316a.739.739 0 0 0-.738-.74zm0 0M19.598 11.827h-.316a.74.74 0 0 0-.74.738v4.688h-4.688a.74.74 0 0 0-.738.74v.316a.74.74 0 0 0 .738.739h5.744a.738.738 0 0 0 .738-.739v-5.744a.739.739 0 0 0-.738-.738zm0 0M12.139 8.628h-1.072V7.553a.74.74 0 0 0-.74-.739h-.317a.74.74 0 0 0-.74.739v1.075H8.196a.74.74 0 0 0-.739.738v.317c0 .409.332.74.739.74H9.27v1.074c0 .408.331.74.74.74h.316a.74.74 0 0 0 .74-.74v-1.074h1.072a.739.739 0 0 0 .738-.74v-.316a.737.737 0 0 0-.737-.739zm0 0"/></g></svg>