<svg id="Layer_1" xmlns="http://www.w3.org/2000/svg" width="21" height="21" viewBox="0 0 21 21"><path fill="#428CBB" d="M10.5 1L21 6.271l-10.5 5.271L0 6.271 10.5 1zm0 12.459L2.928 9.658 0 11.127l10.5 5.271L21 11.127l-2.928-1.469-7.572 3.801zm0 4.602l-7.572-3.803L0 15.729 10.5 21 21 15.729l-2.928-1.471-7.572 3.803zm0 0"/><path fill="#FFF" d="M10.5 0L21 5.271l-10.5 5.271L0 5.271 10.5 0zm0 12.459L2.928 8.658 0 10.127l10.5 5.271L21 10.127l-2.928-1.469-7.572 3.801zm0 4.602l-7.572-3.803L0 14.729 10.5 20 21 14.729l-2.928-1.471-7.572 3.803zm0 0"/></svg>