<svg id="Layer_1" xmlns="http://www.w3.org/2000/svg" width="22.1" height="14.81" viewBox="0 0 22.1 14.81"><g fill="#9B9A9A"><path d="M6.218 1.27h1.301v1.193H8.99V.002H1.76v2.461h1.471V1.27H4.53v5.072h-.695v1.271h3.119V6.342h-.736V1.27zm0 0M17.569 1.268h1.301v1.195h1.471V.002h-7.23v2.461h1.471V1.268h1.299V6.34h-.693v1.271h3.117V6.34h-.734V1.268zm0 0"/><g><path d="M22.101 12.818l-1.27.993-1.268.996v-3.979l1.268.994z"/><path d="M2.536 12.229h17.027v1.178H2.536zM-.001 12.816l1.268-.992 1.269-.996v3.979l-1.269-.994z"/></g></g></svg>