<svg id="Layer_1" xmlns="http://www.w3.org/2000/svg" width="10.4" height="11.66" viewBox="0 0 10.4 11.66"><g fill="#65C6BB"><path d="M5.2 11.66a5.174 5.174 0 0 1-3.676-1.523 5.182 5.182 0 0 1-1.523-3.68c0-1.387.543-2.696 1.523-3.676A.8.8 0 0 1 2.657 3.91a3.573 3.573 0 0 0-1.054 2.547c0 .963.371 1.867 1.055 2.547a3.572 3.572 0 0 0 2.543 1.055c.965 0 1.867-.375 2.547-1.055S8.802 7.42 8.802 6.457c0-.961-.375-1.864-1.055-2.547a.796.796 0 0 1 0-1.129.796.796 0 0 1 1.129 0 5.16 5.16 0 0 1 1.523 3.676 5.167 5.167 0 0 1-1.523 3.68A5.165 5.165 0 0 1 5.2 11.66zm0 0"/><path d="M5.2 5.601a.801.801 0 0 1-.801-.801v-4a.802.802 0 0 1 1.602 0v4a.801.801 0 0 1-.801.801zm0 0"/></g></svg>