<svg id="Layer_1" xmlns="http://www.w3.org/2000/svg" width="117" height="27" viewBox="0 0 117 27"><g fill="#65BD61"><path d="M21.418 20.687h-3.604v-8.609c0-1.015-.246-1.784-.738-2.308a2.391 2.391 0 0 0-1.814-.786c-.55 0-1.072.087-1.564.262a4.568 4.568 0 0 0-1.438.861c.15.583.225 1.239.225 1.971v8.609H8.883v-8.609c0-1.015-.247-1.784-.738-2.308-.493-.525-1.089-.787-1.79-.787-.551 0-1.035.096-1.451.287-.417.191-.851.495-1.301.911v10.505H0V6.263h3.603l.004 1.073a5.42 5.42 0 0 1 1.59-1.048 4.62 4.62 0 0 1 1.866-.399c.702 0 1.407.158 2.117.474.71.316 1.333.773 1.867 1.373.751-.665 1.511-1.139 2.279-1.422.769-.283 1.611-.424 2.53-.424a6.77 6.77 0 0 1 2.142.337A4.533 4.533 0 0 1 19.764 7.3c.501.491.901 1.114 1.202 1.871.3.758.451 1.668.451 2.733v8.783zM39.859 13.475c0 1.082-.2 2.084-.6 3.008a7.349 7.349 0 0 1-1.652 2.395 7.857 7.857 0 0 1-2.464 1.598 7.793 7.793 0 0 1-3.015.586c-1.068 0-2.069-.195-3.003-.586s-1.751-.928-2.452-1.609a7.472 7.472 0 0 1-2.252-5.39c0-1.048.204-2.034.613-2.957a7.694 7.694 0 0 1 4.116-4.042 7.635 7.635 0 0 1 2.978-.587c1.067 0 2.072.196 3.015.587a7.854 7.854 0 0 1 2.464 1.597 7.31 7.31 0 0 1 1.652 2.408c.4.929.6 1.927.6 2.992zm-3.603 0a4.522 4.522 0 0 0-1.21-3.119 4.095 4.095 0 0 0-1.31-.936c-.499-.225-1.031-.337-1.596-.337s-1.098.112-1.597.337a4.058 4.058 0 0 0-1.31.936 4.537 4.537 0 0 0-1.209 3.119c0 .616.108 1.189.324 1.723.216.531.511.998.885 1.396.375.399.811.711 1.31.936s1.031.337 1.597.337 1.098-.112 1.596-.337.936-.536 1.31-.936a4.531 4.531 0 0 0 1.21-3.119zM55.922 18.516a7.18 7.18 0 0 1-2.652 1.896 8.361 8.361 0 0 1-3.253.648 7.76 7.76 0 0 1-2.976-.574c-.934-.382-1.744-.91-2.432-1.584s-1.23-1.477-1.627-2.408a7.606 7.606 0 0 1-.596-3.02c0-1.064.198-2.059.596-2.982a7.66 7.66 0 0 1 1.616-2.408 7.397 7.397 0 0 1 2.418-1.609 7.688 7.688 0 0 1 3.001-.587c1.101 0 2.147.2 3.141.599a6.928 6.928 0 0 1 2.589 1.822l-2.427 2.47a4.752 4.752 0 0 0-1.338-1.198c-.525-.316-1.164-.474-1.915-.474a3.61 3.61 0 0 0-1.564.349 4.405 4.405 0 0 0-1.301.936 4.353 4.353 0 0 0-.888 1.385 4.445 4.445 0 0 0-.325 1.696c0 .6.108 1.165.325 1.697.217.533.508.994.875 1.385s.801.703 1.301.936c.5.233 1.026.35 1.576.35.717 0 1.368-.17 1.952-.512a4.154 4.154 0 0 0 1.401-1.311l2.503 2.498zM72.236 20.687h-4.277l-5.807-6.464v6.464h-3.677V0h3.677v12.376l5.055-6.113h4.203l-5.93 7.012 6.756 7.412zM88.4 13.45c0 .233-.014.474-.037.724-.025.249-.055.507-.088.773h-11.56c.133.416.32.811.563 1.186.242.374.539.698.889.973s.746.49 1.189.648c.441.158.93.237 1.463.237.65 0 1.303-.112 1.951-.337.652-.225 1.193-.527 1.627-.91l2.277 2.271c-1 .749-1.98 1.276-2.939 1.585a9.935 9.935 0 0 1-3.041.461 7.673 7.673 0 0 1-3.039-.6c-.943-.398-1.762-.939-2.453-1.621s-1.238-1.484-1.639-2.408-.602-1.908-.602-2.957c0-1.048.201-2.034.602-2.957a7.49 7.49 0 0 1 1.65-2.408 7.987 7.987 0 0 1 2.453-1.622 7.541 7.541 0 0 1 3.002-.599c1.018 0 1.994.187 2.928.562.936.374 1.76.895 2.477 1.56a7.325 7.325 0 0 1 1.703 2.383c.415.922.624 1.941.624 3.056zm-3.777-1.397c-.285-.915-.789-1.651-1.516-2.208a3.936 3.936 0 0 0-2.465-.836c-.9 0-1.709.279-2.426.836-.719.558-1.219 1.293-1.502 2.208h7.909zM101.813 7.76l-1.928 3.044a6.675 6.675 0 0 0-1.164-1.011c-.424-.291-.854-.437-1.287-.437-.234 0-.488.054-.764.162-.275.108-.533.287-.775.537s-.447.578-.613.985c-.166.408-.25.911-.25 1.51v8.135h-3.604V6.263h3.604V7.81c.434-.616.914-1.089 1.438-1.423a3.236 3.236 0 0 1 1.766-.499c.633 0 1.254.171 1.863.512a7.308 7.308 0 0 1 1.714 1.36zM117 6.238l-6.506 17.143c-.484 1.281-1.117 2.205-1.902 2.771-.783.565-1.719.849-2.803.849a4.639 4.639 0 0 1-1.125-.15l-1.201-3.344c.283.133.576.237.875.313.301.074.586.111.852.111.566 0 1.084-.129 1.551-.387.469-.258.826-.736 1.076-1.435l.502-1.446-5.58-14.424h3.928l3.328 9.283 3.127-9.283H117z"/></g></svg>