<svg id="Layer_1" xmlns="http://www.w3.org/2000/svg" width="13.5" height="13.5" viewBox="0 0 13.5 13.5"><g fill="#9B9A9A"><path d="M.37 11.343a1.264 1.264 0 1 0 1.79 1.787l4.148-4.153L4.523 7.19.37 11.343zm0 0M10.746 3.647l1.808-.936.946-1.83L12.619 0l-1.832.946-.933 1.807-2.203 2.203.894.893 2.201-2.202zm0 0"/><path d="M11.141 8.446l-.168-.016c-.309 0-.601.062-.877.165l-5.19-5.191c.103-.275.164-.569.164-.878l-.016-.168A2.52 2.52 0 0 0 2.544 0c-.391 0-.758.095-1.087.25l1.68 1.685a.773.773 0 0 1 .189.301.837.837 0 0 1-.782 1.134.773.773 0 0 1-.293-.057.79.79 0 0 1-.304-.189L.267 1.445c-.16.33-.255.695-.255 1.082A2.525 2.525 0 0 0 2.37 5.042l.173.018c.308 0 .601-.067.872-.166l5.19 5.19a2.558 2.558 0 0 0-.164.872l.018.174a2.522 2.522 0 0 0 2.514 2.357c.387 0 .754-.094 1.082-.255l-1.679-1.68a.86.86 0 0 1-.194-.3.848.848 0 0 1 .194-.89.838.838 0 0 1 .597-.247c.098 0 .197.021.291.058.107.042.215.1.302.189l1.683 1.679c.156-.328.252-.695.252-1.086a2.522 2.522 0 0 0-2.36-2.509zm0 0"/></g></svg>