<svg xmlns="http://www.w3.org/2000/svg" width="43" height="34" viewBox="0 0 43 34"><path fill="none" stroke="#65BE62" stroke-width="2" stroke-miterlimit="10" d="M27.517 15.799c4.104 0 7.232-3.127 7.232-7.232 0-4.092-3.129-7.219-7.232-7.219-.719 0-1.436.232-2.164.232 1.445 2.178 2.164 4.342 2.164 6.986 0 2.658-.719 4.822-2.164 6.986.728.001 1.445.247 2.164.247zm-12.043 0c4.104 0 7.232-3.127 7.232-7.232 0-4.092-3.129-7.219-7.232-7.219-4.092 0-7.221 3.127-7.221 7.219 0 4.105 3.129 7.232 7.221 7.232zm15.902 5.292c1.928 1.694 3.373 4.106 3.373 6.751v4.811h7.221v-4.811c0-3.612-5.776-6.022-10.594-6.751zm-15.902-.481c-4.809 0-14.443 2.41-14.443 7.231v4.811h28.898v-4.811c0-4.82-9.633-7.231-14.455-7.231zm0 0"/></svg>