<svg xmlns="http://www.w3.org/2000/svg" width="35" height="37" viewBox="0 0 35 37"><path fill="none" stroke="#65BE62" stroke-width="2" stroke-miterlimit="10" d="M27.309 22.338a6.586 6.586 0 0 0-5.451 2.893l-8.336-4.617a6.547 6.547 0 0 0 .037-6.042l6.328-2.752a6.585 6.585 0 0 0 5.414 2.843 6.598 6.598 0 0 0 6.59-6.591c0-3.632-2.957-6.588-6.59-6.588s-6.59 2.956-6.59 6.588c0 .748.131 1.462.361 2.133l-6.574 2.859a6.564 6.564 0 0 0-4.807-2.098 6.597 6.597 0 0 0-6.59 6.589 6.598 6.598 0 0 0 6.59 6.59 6.573 6.573 0 0 0 4.768-2.055l8.6 4.764a6.549 6.549 0 0 0-.338 2.072c0 3.635 2.955 6.592 6.588 6.592s6.59-2.957 6.59-6.592a6.598 6.598 0 0 0-6.59-6.588zm0 11.373"/></svg>