<?xml version="1.0" encoding="utf-8"?>
<!-- Generator: Adobe Illustrator 16.0.0, SVG Export Plug-In . SVG Version: 6.00 Build 0)  -->
<!DOCTYPE svg PUBLIC "-//W3C//DTD SVG 1.1//EN" "http://www.w3.org/Graphics/SVG/1.1/DTD/svg11.dtd">
<svg version="1.1" id="Layer_1" xmlns="http://www.w3.org/2000/svg" xmlns:xlink="http://www.w3.org/1999/xlink" x="0px" y="0px"
	 width="19.31px" height="15.8px" viewBox="0 0 19.31 15.8" enable-background="new 0 0 19.31 15.8" xml:space="preserve">
<symbol  id="New_Symbol_3" viewBox="-38.091 -45.938 75.182 91.875">
	<g>
		<g>
			<path fill="#9B9A9A" d="M-33.388-43.938c0-1.1-0.899-2-2-2h-0.703c-1.101,0-2,0.9-2,2v87.875c0,1.1,0.899,2,2,2h0.703
				c1.101,0,2-0.9,2-2V-43.938z"/>
		</g>
		<g>
			<path fill="#9B9A9A" d="M37.091,9.795c0-1.1-0.9-2-2-2h-50.865c-1.101,0-2,0.9-2,2v15.666c0,1.101,0.899,2,2,2h50.865
				c1.1,0,2-0.899,2-2V9.795z"/>
		</g>
		<g>
			<path fill="none" stroke="#9B9A9A" stroke-width="5" stroke-miterlimit="10" d="M14.093-25.141c0-1.1-0.9-2-2-2h-27.867
				c-1.101,0-2,0.9-2,2v15.666c0,1.1,0.899,2,2,2h27.867c1.1,0,2-0.9,2-2V-25.141z"/>
		</g>
	</g>
</symbol>
<use xlink:href="#New_Symbol_3"  width="75.182" height="91.875" id="XMLID_8_" x="-38.091" y="-45.938" transform="matrix(0 0.2102 0.2102 0 9.6548 8.0049)" overflow="visible"/>
</svg>
