<?xml version="1.0" encoding="utf-8"?>
<!-- Generator: Adobe Illustrator 16.0.0, SVG Export Plug-In . SVG Version: 6.00 Build 0)  -->
<!DOCTYPE svg PUBLIC "-//W3C//DTD SVG 1.1//EN" "http://www.w3.org/Graphics/SVG/1.1/DTD/svg11.dtd">
<svg version="1.1" id="Layer_1" xmlns="http://www.w3.org/2000/svg" xmlns:xlink="http://www.w3.org/1999/xlink" x="0px" y="0px"
	 width="16.9px" height="16.9px" viewBox="0 0 16.9 16.9" enable-background="new 0 0 16.9 16.9" xml:space="preserve">
<g>
	<rect x="1.024" y="1.025" fill="none" stroke="#65BD61" stroke-width="2" stroke-miterlimit="10" width="14.852" height="14.85"/>
	<path fill="#65BD61" d="M12.171,6.505l-0.745-0.744c-0.087-0.087-0.23-0.087-0.318,0L7.649,9.219L6.331,7.9
		C6.243,7.812,6.1,7.812,6.013,7.9L5.267,8.644c-0.087,0.088-0.087,0.229,0,0.318l2.224,2.223c0.043,0.045,0.102,0.066,0.159,0.066
		s0.116-0.021,0.16-0.066l4.361-4.361c0.042-0.042,0.065-0.099,0.065-0.16C12.236,6.606,12.213,6.548,12.171,6.505L12.171,6.505z
		 M12.171,6.505"/>
</g>
</svg>
