<?xml version="1.0" encoding="utf-8"?>
<!-- Generator: Adobe Illustrator 16.0.0, SVG Export Plug-In . SVG Version: 6.00 Build 0)  -->
<!DOCTYPE svg PUBLIC "-//W3C//DTD SVG 1.1//EN" "http://www.w3.org/Graphics/SVG/1.1/DTD/svg11.dtd">
<svg version="1.1" id="Layer_1" xmlns="http://www.w3.org/2000/svg" xmlns:xlink="http://www.w3.org/1999/xlink" x="0px" y="0px"
	 width="19.79px" height="19.59px" viewBox="0 0 19.79 19.59" enable-background="new 0 0 19.79 19.59" xml:space="preserve">
<g>
	<g>
		<path fill="#F3F5F7" d="M19.4,19.172c0,0.23-0.189,0.42-0.42,0.42h-8.442c-0.231,0-0.42-0.189-0.42-0.42v-8.249
			c0-0.231,0.189-0.42,0.42-0.42h8.442c0.23,0,0.42,0.189,0.42,0.42V19.172z"/>
		<path fill="none" stroke="#9B9A9A" stroke-width="1.051" stroke-miterlimit="10" d="M19.4,19.172c0,0.23-0.189,0.42-0.42,0.42
			h-8.442c-0.231,0-0.42-0.189-0.42-0.42v-8.249c0-0.231,0.189-0.42,0.42-0.42h8.442c0.23,0,0.42,0.189,0.42,0.42V19.172z"/>
	</g>
	<g>
		<g>
			<g>
				<path fill="#F3F5F7" d="M16.4,16.172c0,0.23-0.189,0.42-0.42,0.42H7.538c-0.231,0-0.42-0.189-0.42-0.42V7.923
					c0-0.231,0.189-0.42,0.42-0.42h8.442c0.23,0,0.42,0.189,0.42,0.42V16.172z"/>
				<path fill="none" stroke="#9B9A9A" stroke-width="1.051" stroke-miterlimit="10" d="M16.4,16.172c0,0.23-0.189,0.42-0.42,0.42
					H7.538c-0.231,0-0.42-0.189-0.42-0.42V7.923c0-0.231,0.189-0.42,0.42-0.42h8.442c0.23,0,0.42,0.189,0.42,0.42V16.172z"/>
			</g>
			<g>
				<path fill="#F3F5F7" d="M12.648,12.42c0,0.23-0.189,0.42-0.42,0.42H3.786c-0.231,0-0.42-0.189-0.42-0.42V4.17
					c0-0.231,0.189-0.42,0.42-0.42h8.442c0.23,0,0.42,0.189,0.42,0.42V12.42z"/>
				<path fill="none" stroke="#9B9A9A" stroke-width="1.051" stroke-miterlimit="10" d="M12.648,12.42c0,0.23-0.189,0.42-0.42,0.42
					H3.786c-0.231,0-0.42-0.189-0.42-0.42V4.17c0-0.231,0.189-0.42,0.42-0.42h8.442c0.23,0,0.42,0.189,0.42,0.42V12.42z"/>
			</g>
			<g>
				<path fill="#9B9A9A" d="M8.897,8.667c0,0.231-0.189,0.42-0.42,0.42H0.034c-0.231,0-0.42-0.189-0.42-0.42V0.418
					c0-0.231,0.189-0.42,0.42-0.42h8.442c0.231,0,0.42,0.189,0.42,0.42V8.667z"/>
				<path fill="none" stroke="#9A9A99" stroke-width="1.051" stroke-miterlimit="10" d="M8.897,8.667c0,0.231-0.189,0.42-0.42,0.42
					H0.034c-0.231,0-0.42-0.189-0.42-0.42V0.418c0-0.231,0.189-0.42,0.42-0.42h8.442c0.231,0,0.42,0.189,0.42,0.42V8.667z"/>
			</g>
		</g>
	</g>
</g>
</svg>
