<?xml version="1.0" encoding="utf-8"?>
<!-- Generator: Adobe Illustrator 16.0.0, SVG Export Plug-In . SVG Version: 6.00 Build 0)  -->
<!DOCTYPE svg PUBLIC "-//W3C//DTD SVG 1.1//EN" "http://www.w3.org/Graphics/SVG/1.1/DTD/svg11.dtd">
<svg version="1.1" id="Layer_1" xmlns="http://www.w3.org/2000/svg" xmlns:xlink="http://www.w3.org/1999/xlink" x="0px" y="0px"
	 width="11px" height="14.88px" viewBox="0 0 11 14.88" enable-background="new 0 0 11 14.88" xml:space="preserve">
<path fill="#9B9A9A" d="M8.403-0.01H0.912C0.409-0.01,0,0.399,0,0.903v13.074c0,0.504,0.409,0.913,0.912,0.913h9.176
	C10.59,14.89,11,14.48,11,13.977V2.815L8.403-0.01z M8.619,1.356l1.138,1.239H8.619V1.356z M10.232,13.977
	c0,0.081-0.065,0.146-0.145,0.146H0.912c-0.08,0-0.146-0.065-0.146-0.146V0.903c0-0.081,0.066-0.146,0.146-0.146h6.938V2.98
	c0,0.211,0.173,0.382,0.385,0.382h1.997V13.977z M2.119,4.07h6.507c0.158,0,0.287,0.13,0.287,0.288c0,0.159-0.129,0.288-0.287,0.288
	H2.119c-0.159,0-0.288-0.129-0.288-0.288C1.831,4.2,1.96,4.07,2.119,4.07L2.119,4.07z M8.913,6.291c0,0.158-0.129,0.288-0.287,0.288
	H2.119c-0.159,0-0.288-0.129-0.288-0.288c0-0.159,0.129-0.288,0.288-0.288h6.507C8.784,6.002,8.913,6.132,8.913,6.291L8.913,6.291z
	 M8.913,8.158c0,0.158-0.129,0.288-0.287,0.288H2.119c-0.159,0-0.288-0.13-0.288-0.288S1.96,7.872,2.119,7.872h6.507
	C8.784,7.872,8.913,8,8.913,8.158L8.913,8.158z M8.913,10.059c0,0.158-0.129,0.287-0.287,0.287H2.119
	c-0.159,0-0.288-0.129-0.288-0.287c0-0.159,0.129-0.288,0.288-0.288h6.507C8.784,9.771,8.913,9.899,8.913,10.059L8.913,10.059z
	 M8.913,10.059"/>
</svg>
