<?xml version="1.0" encoding="utf-8"?>
<!-- Generator: Adobe Illustrator 16.0.0, SVG Export Plug-In . SVG Version: 6.00 Build 0)  -->
<!DOCTYPE svg PUBLIC "-//W3C//DTD SVG 1.1//EN" "http://www.w3.org/Graphics/SVG/1.1/DTD/svg11.dtd">
<svg version="1.1" id="Layer_1" xmlns="http://www.w3.org/2000/svg" xmlns:xlink="http://www.w3.org/1999/xlink" x="0px" y="0px"
	 width="15.93px" height="15.93px" viewBox="0 0 15.93 15.93" enable-background="new 0 0 15.93 15.93" xml:space="preserve">
<g id="XMLID_1_">
	<g>
		<g>
			<path fill="#C56565" d="M-0.002,7.965c0,4.399,3.566,7.967,7.967,7.967s7.967-3.567,7.967-7.967c0-4.4-3.566-7.967-7.967-7.967
				S-0.002,3.564-0.002,7.965L-0.002,7.965z M13.939,7.965c0,1.14-0.318,2.204-0.872,3.11L4.854,2.862
				c0.906-0.554,1.971-0.873,3.11-0.873C11.265,1.989,13.939,4.665,13.939,7.965L13.939,7.965z M1.989,7.965
				c0-1.14,0.319-2.204,0.873-3.11l8.213,8.213c-0.906,0.554-1.971,0.872-3.11,0.872C4.665,13.939,1.989,11.265,1.989,7.965
				L1.989,7.965z M1.989,7.965"/>
		</g>
	</g>
</g>
</svg>
