<?xml version="1.0" encoding="utf-8"?>
<!-- Generator: Adobe Illustrator 16.0.0, SVG Export Plug-In . SVG Version: 6.00 Build 0)  -->
<!DOCTYPE svg PUBLIC "-//W3C//DTD SVG 1.1//EN" "http://www.w3.org/Graphics/SVG/1.1/DTD/svg11.dtd">
<svg version="1.1" id="Layer_1" xmlns="http://www.w3.org/2000/svg" xmlns:xlink="http://www.w3.org/1999/xlink" x="0px" y="0px"
	 width="26.67px" height="25px" viewBox="0 0 26.67 25" enable-background="new 0 0 26.67 25" xml:space="preserve">
<g>
	<path fill="#9B9A9A" d="M26.637,1.578C26.563,0.725,25.871,0,25.001,0H1.669c-0.871,0-1.57,0.725-1.644,1.578H0.001v21.754
		C0.001,24.25,0.749,25,1.669,25h23.332c0.919,0,1.668-0.75,1.668-1.668V1.578H26.637z M8.334,23.332H1.669v-4.998h6.665V23.332z
		 M8.334,16.805H1.669V11.67h6.665V16.805z M8.334,10.002H1.669V4.996h6.665V10.002z M16.667,23.332h-6.665v-4.998h6.665V23.332z
		 M16.667,16.805h-6.665V11.67h6.665V16.805z M16.667,10.002h-6.665V4.996h6.665V10.002z M25.001,23.332h-6.665v-4.998h6.665V23.332
		z M25.001,16.805h-6.665V11.67h6.665V16.805z M25.001,10.002h-6.665V4.996h6.665V10.002z M25.001,10.002"/>
</g>
</svg>
