<?xml version="1.0" encoding="utf-8"?>
<!-- Generator: Adobe Illustrator 16.0.0, SVG Export Plug-In . SVG Version: 6.00 Build 0)  -->
<!DOCTYPE svg PUBLIC "-//W3C//DTD SVG 1.1//EN" "http://www.w3.org/Graphics/SVG/1.1/DTD/svg11.dtd">
<svg version="1.1" id="Layer_1" xmlns="http://www.w3.org/2000/svg" xmlns:xlink="http://www.w3.org/1999/xlink" x="0px" y="0px"
	 width="30.64px" height="25px" viewBox="0 0 30.64 25" enable-background="new 0 0 30.64 25" xml:space="preserve">
<g>
	<g>
		<defs>
			<rect id="SVGID_1_" x="0.002" width="30.634" height="25"/>
		</defs>
		<clipPath id="SVGID_2_">
			<use xlink:href="#SVGID_1_"  overflow="visible"/>
		</clipPath>
		<path clip-path="url(#SVGID_2_)" fill="#9B9A9A" d="M29.846-0.004H0.809c-0.445,0-0.807,0.361-0.807,0.807v23.387
			c0,0.445,0.361,0.807,0.807,0.807h29.037c0.445,0,0.807-0.361,0.807-0.807V0.803C30.652,0.357,30.291-0.004,29.846-0.004
			L29.846-0.004z M27.611,21.953H3.045V3.038h24.566V21.953z M27.611,21.953"/>
	</g>
	<path fill="#9B9A9A" d="M6.096,20.021h18.462c0.412,0,0.748-0.336,0.748-0.748v-4.287c0-0.195-0.076-0.383-0.213-0.523
		l-2.055-2.105c-0.281-0.287-0.736-0.302-1.035-0.034L18.131,15.8l-6.689-6.07c-0.27-0.245-0.678-0.26-0.965-0.034
		c-0.941,0.739-3.053,2.396-4.842,3.799c-0.18,0.141-0.285,0.357-0.285,0.588v5.191C5.35,19.686,5.684,20.021,6.096,20.021
		L6.096,20.021z M6.096,20.021"/>
	<path fill="#9B9A9A" d="M18.359,13.127c0.928,0,1.682-0.754,1.682-1.68c0-0.927-0.754-1.68-1.682-1.68
		c-0.926,0-1.68,0.753-1.68,1.68C16.68,12.373,17.434,13.127,18.359,13.127L18.359,13.127z M18.359,13.127"/>
</g>
</svg>
