<?xml version="1.0" encoding="utf-8"?>
<!-- Generator: Adobe Illustrator 16.0.0, SVG Export Plug-In . SVG Version: 6.00 Build 0)  -->
<!DOCTYPE svg PUBLIC "-//W3C//DTD SVG 1.1//EN" "http://www.w3.org/Graphics/SVG/1.1/DTD/svg11.dtd">
<svg version="1.1" id="Layer_1" xmlns="http://www.w3.org/2000/svg" xmlns:xlink="http://www.w3.org/1999/xlink" x="0px" y="0px"
	 width="19.31px" height="19.31px" viewBox="0 0 19.31 19.31" enable-background="new 0 0 19.31 19.31" xml:space="preserve">
<g>
	<path fill="#9B9C9B" d="M-0.001,0v19.311h19.312V0H-0.001z M18.311,18.311H0.998V0.999h17.313V18.311z"/>
	<g>
		<path fill="#9B9A9A" d="M15.422,14.777c0,0.23-0.189,0.42-0.42,0.42H4.309c-0.231,0-0.42-0.189-0.42-0.42v-3.295
			c0-0.23,0.189-0.42,0.42-0.42h10.693c0.23,0,0.42,0.189,0.42,0.42V14.777z"/>
	</g>
	<g>
		<path fill="#9B9A9A" d="M15.396,7.826c0,0.231-0.189,0.42-0.42,0.42H4.283c-0.231,0-0.42-0.189-0.42-0.42V4.533
			c0-0.231,0.189-0.42,0.42-0.42h10.693c0.23,0,0.42,0.189,0.42,0.42V7.826z"/>
	</g>
</g>
</svg>
