<?xml version="1.0" encoding="utf-8"?>
<!-- Generator: Adobe Illustrator 16.0.0, SVG Export Plug-In . SVG Version: 6.00 Build 0)  -->
<!DOCTYPE svg PUBLIC "-//W3C//DTD SVG 1.1//EN" "http://www.w3.org/Graphics/SVG/1.1/DTD/svg11.dtd">
<svg version="1.1" id="Layer_1" xmlns="http://www.w3.org/2000/svg" xmlns:xlink="http://www.w3.org/1999/xlink" x="0px" y="0px"
	 width="21px" height="21px" viewBox="0 0 21 21" enable-background="new 0 0 21 21" xml:space="preserve">
<g>
	<path fill="#428CBB" d="M10.5,1L21,6.271l-10.5,5.271L0,6.271L10.5,1z M10.5,13.459L2.928,9.658L0,11.127l10.5,5.271L21,11.127
		l-2.928-1.469L10.5,13.459z M10.5,18.061l-7.572-3.803L0,15.729L10.5,21L21,15.729l-2.928-1.471L10.5,18.061z M10.5,18.061"/>
	<path fill="#FFFFFF" d="M10.5,0L21,5.271l-10.5,5.271L0,5.271L10.5,0z M10.5,12.459L2.928,8.658L0,10.127l10.5,5.271L21,10.127
		l-2.928-1.469L10.5,12.459z M10.5,17.061l-7.572-3.803L0,14.729L10.5,20L21,14.729l-2.928-1.471L10.5,17.061z M10.5,17.061"/>
</g>
</svg>
