<?xml version="1.0" encoding="utf-8"?>
<!-- Generator: Adobe Illustrator 16.0.0, SVG Export Plug-In . SVG Version: 6.00 Build 0)  -->
<!DOCTYPE svg PUBLIC "-//W3C//DTD SVG 1.1//EN" "http://www.w3.org/Graphics/SVG/1.1/DTD/svg11.dtd">
<svg version="1.1" id="Layer_1" xmlns="http://www.w3.org/2000/svg" xmlns:xlink="http://www.w3.org/1999/xlink" x="0px" y="0px"
	 width="24px" height="1423.061px" viewBox="0 0 24 1423.061" enable-background="new 0 0 24 1423.061" xml:space="preserve">
<g id="New_Symbol_9">
	<g>
		<rect y="0.001" fill="#F3F3F3" width="24" height="705.997"/>
		<rect y="100.001" fill="#CDCCCC" width="24" height="1"/>
		<rect x="21" y="4.001" fill="#CDCCCC" width="3" height="1"/>
		<rect x="18" y="9.001" fill="#CDCCCC" width="6" height="1"/>
		<rect x="21" y="14.001" fill="#CDCCCC" width="3" height="1"/>
		<rect x="18" y="19.001" fill="#CDCCCC" width="6" height="1"/>
		<rect x="21" y="24.001" fill="#CDCCCC" width="3" height="1"/>
		<rect x="18" y="29.001" fill="#CDCCCC" width="6" height="1"/>
		<rect x="21" y="34.001" fill="#CDCCCC" width="3" height="1"/>
		<rect x="18" y="39.001" fill="#CDCCCC" width="6" height="1"/>
		<rect x="21" y="44.001" fill="#CDCCCC" width="3" height="1"/>
		<rect x="18" y="49.001" fill="#CDCCCC" width="6" height="1"/>
		<rect x="21" y="54.001" fill="#CDCCCC" width="3" height="1"/>
		<rect x="18" y="59.001" fill="#CDCCCC" width="6" height="1"/>
		<rect x="21" y="64.001" fill="#CDCCCC" width="3" height="1"/>
		<rect x="18" y="69.001" fill="#CDCCCC" width="6" height="1"/>
		<rect x="21" y="74.001" fill="#CDCCCC" width="3" height="1"/>
		<rect x="18" y="79.001" fill="#CDCCCC" width="6" height="1"/>
		<rect x="21" y="84.001" fill="#CDCCCC" width="3" height="1"/>
		<rect x="18" y="89.001" fill="#CDCCCC" width="6" height="1"/>
		<rect x="21" y="95.001" fill="#CDCCCC" width="3" height="1"/>
		<text transform="matrix(1 0 0 1 10.1553 10.7266)" fill="#AFAFAF" font-family="'ArialMT'" font-size="9">0</text>
		<rect y="201.001" fill="#CDCCCC" width="24" height="1"/>
		<rect x="21" y="105.001" fill="#CDCCCC" width="3" height="1"/>
		<rect x="18" y="110.001" fill="#CDCCCC" width="6" height="1"/>
		<rect x="21" y="115.001" fill="#CDCCCC" width="3" height="1"/>
		<rect x="18" y="120.001" fill="#CDCCCC" width="6" height="1"/>
		<rect x="21" y="125.001" fill="#CDCCCC" width="3" height="1"/>
		<rect x="18" y="130.001" fill="#CDCCCC" width="6" height="1"/>
		<rect x="21" y="135.001" fill="#CDCCCC" width="3" height="1"/>
		<rect x="18" y="140.001" fill="#CDCCCC" width="6" height="1"/>
		<rect x="21" y="145.001" fill="#CDCCCC" width="3" height="1"/>
		<rect x="18" y="150.001" fill="#CDCCCC" width="6" height="1"/>
		<rect x="21" y="155.001" fill="#CDCCCC" width="3" height="1"/>
		<rect x="18" y="160.001" fill="#CDCCCC" width="6" height="1"/>
		<rect x="21" y="165.001" fill="#CDCCCC" width="3" height="1"/>
		<rect x="18" y="170.001" fill="#CDCCCC" width="6" height="1"/>
		<rect x="21" y="175.001" fill="#CDCCCC" width="3" height="1"/>
		<rect x="18" y="180.001" fill="#CDCCCC" width="6" height="1"/>
		<rect x="21" y="185.001" fill="#CDCCCC" width="3" height="1"/>
		<rect x="18" y="190.001" fill="#CDCCCC" width="6" height="1"/>
		<rect x="21" y="196.001" fill="#CDCCCC" width="3" height="1"/>
		<text transform="matrix(1 0 0 1 10.1553 111.7266)" fill="#AFAFAF" font-family="'ArialMT'" font-size="9">1</text>
		<text transform="matrix(1 0 0 1 10.1553 122.5264)" fill="#AFAFAF" font-family="'ArialMT'" font-size="9">0</text>
		<text transform="matrix(1 0 0 1 10.1553 133.3267)" fill="#AFAFAF" font-family="'ArialMT'" font-size="9">0</text>
		<rect y="302.001" fill="#CDCCCC" width="24" height="1"/>
		<rect x="21" y="206.001" fill="#CDCCCC" width="3" height="1"/>
		<rect x="18" y="211.001" fill="#CDCCCC" width="6" height="1"/>
		<rect x="21" y="216.001" fill="#CDCCCC" width="3" height="1"/>
		<rect x="18" y="221.001" fill="#CDCCCC" width="6" height="1"/>
		<rect x="21" y="226.001" fill="#CDCCCC" width="3" height="1"/>
		<rect x="18" y="231.001" fill="#CDCCCC" width="6" height="1"/>
		<rect x="21" y="236.001" fill="#CDCCCC" width="3" height="1"/>
		<rect x="18" y="241.001" fill="#CDCCCC" width="6" height="1"/>
		<rect x="21" y="246.001" fill="#CDCCCC" width="3" height="1"/>
		<rect x="18" y="251.001" fill="#CDCCCC" width="6" height="1"/>
		<rect x="21" y="256.001" fill="#CDCCCC" width="3" height="1"/>
		<rect x="18" y="261.001" fill="#CDCCCC" width="6" height="1"/>
		<rect x="21" y="266.001" fill="#CDCCCC" width="3" height="1"/>
		<rect x="18" y="271.001" fill="#CDCCCC" width="6" height="1"/>
		<rect x="21" y="276.001" fill="#CDCCCC" width="3" height="1"/>
		<rect x="18" y="281.001" fill="#CDCCCC" width="6" height="1"/>
		<rect x="21" y="286.001" fill="#CDCCCC" width="3" height="1"/>
		<rect x="18" y="291.001" fill="#CDCCCC" width="6" height="1"/>
		<rect x="21" y="297.001" fill="#CDCCCC" width="3" height="1"/>
		<text transform="matrix(1 0 0 1 10.1553 212.7266)" fill="#AFAFAF" font-family="'ArialMT'" font-size="9">2</text>
		<text transform="matrix(1 0 0 1 10.1553 223.5264)" fill="#AFAFAF" font-family="'ArialMT'" font-size="9">0</text>
		<text transform="matrix(1 0 0 1 10.1553 234.3267)" fill="#AFAFAF" font-family="'ArialMT'" font-size="9">0</text>
		<rect y="403.001" fill="#CDCCCC" width="24" height="1"/>
		<rect x="21" y="307.001" fill="#CDCCCC" width="3" height="1"/>
		<rect x="18" y="312.001" fill="#CDCCCC" width="6" height="1"/>
		<rect x="21" y="317.001" fill="#CDCCCC" width="3" height="1"/>
		<rect x="18" y="322.001" fill="#CDCCCC" width="6" height="1"/>
		<rect x="21" y="327.001" fill="#CDCCCC" width="3" height="1"/>
		<rect x="18" y="332.001" fill="#CDCCCC" width="6" height="1"/>
		<rect x="21" y="337.001" fill="#CDCCCC" width="3" height="1"/>
		<rect x="18" y="342.001" fill="#CDCCCC" width="6" height="1"/>
		<rect x="21" y="347.001" fill="#CDCCCC" width="3" height="1"/>
		<rect x="18" y="352.001" fill="#CDCCCC" width="6" height="1"/>
		<rect x="21" y="357.001" fill="#CDCCCC" width="3" height="1"/>
		<rect x="18" y="362.001" fill="#CDCCCC" width="6" height="1"/>
		<rect x="21" y="367.001" fill="#CDCCCC" width="3" height="1"/>
		<rect x="18" y="372.001" fill="#CDCCCC" width="6" height="1"/>
		<rect x="21" y="377.001" fill="#CDCCCC" width="3" height="1"/>
		<rect x="18" y="382.001" fill="#CDCCCC" width="6" height="1"/>
		<rect x="21" y="387.001" fill="#CDCCCC" width="3" height="1"/>
		<rect x="18" y="392.001" fill="#CDCCCC" width="6" height="1"/>
		<rect x="21" y="398.001" fill="#CDCCCC" width="3" height="1"/>
		<text transform="matrix(1 0 0 1 10.1553 313.7266)" fill="#AFAFAF" font-family="'ArialMT'" font-size="9">3</text>
		<text transform="matrix(1 0 0 1 10.1553 324.5264)" fill="#AFAFAF" font-family="'ArialMT'" font-size="9">0</text>
		<text transform="matrix(1 0 0 1 10.1553 335.3276)" fill="#AFAFAF" font-family="'ArialMT'" font-size="9">0</text>
		<rect y="504.001" fill="#CDCCCC" width="24" height="1"/>
		<rect x="21" y="408.001" fill="#CDCCCC" width="3" height="1"/>
		<rect x="18" y="413.001" fill="#CDCCCC" width="6" height="1"/>
		<rect x="21" y="418.001" fill="#CDCCCC" width="3" height="1"/>
		<rect x="18" y="423.001" fill="#CDCCCC" width="6" height="1"/>
		<rect x="21" y="428.001" fill="#CDCCCC" width="3" height="1"/>
		<rect x="18" y="433.001" fill="#CDCCCC" width="6" height="1"/>
		<rect x="21" y="438.001" fill="#CDCCCC" width="3" height="1"/>
		<rect x="18" y="443.001" fill="#CDCCCC" width="6" height="1"/>
		<rect x="21" y="448.001" fill="#CDCCCC" width="3" height="1"/>
		<rect x="18" y="453.001" fill="#CDCCCC" width="6" height="1"/>
		<rect x="21" y="458.001" fill="#CDCCCC" width="3" height="1"/>
		<rect x="18" y="463.001" fill="#CDCCCC" width="6" height="1"/>
		<rect x="21" y="468.001" fill="#CDCCCC" width="3" height="1"/>
		<rect x="18" y="473.001" fill="#CDCCCC" width="6" height="1"/>
		<rect x="21" y="478.001" fill="#CDCCCC" width="3" height="1"/>
		<rect x="18" y="483.001" fill="#CDCCCC" width="6" height="1"/>
		<rect x="21" y="488.001" fill="#CDCCCC" width="3" height="1"/>
		<rect x="18" y="493.001" fill="#CDCCCC" width="6" height="1"/>
		<rect x="21" y="499.001" fill="#CDCCCC" width="3" height="1"/>
		<text transform="matrix(1 0 0 1 10.1553 414.7266)" fill="#AFAFAF" font-family="'ArialMT'" font-size="9">4</text>
		<text transform="matrix(1 0 0 1 10.1553 425.5264)" fill="#AFAFAF" font-family="'ArialMT'" font-size="9">0</text>
		<text transform="matrix(1 0 0 1 10.1553 436.3276)" fill="#AFAFAF" font-family="'ArialMT'" font-size="9">0</text>
		<rect y="605.001" fill="#CDCCCC" width="24" height="1"/>
		<rect x="21" y="509.001" fill="#CDCCCC" width="3" height="1"/>
		<rect x="18" y="514.001" fill="#CDCCCC" width="6" height="1"/>
		<rect x="21" y="519.001" fill="#CDCCCC" width="3" height="1"/>
		<rect x="18" y="524.001" fill="#CDCCCC" width="6" height="1"/>
		<rect x="21" y="529.001" fill="#CDCCCC" width="3" height="1"/>
		<rect x="18" y="534.001" fill="#CDCCCC" width="6" height="1"/>
		<rect x="21" y="539.001" fill="#CDCCCC" width="3" height="1"/>
		<rect x="18" y="544.001" fill="#CDCCCC" width="6" height="1"/>
		<rect x="21" y="549.001" fill="#CDCCCC" width="3" height="1"/>
		<rect x="18" y="554.001" fill="#CDCCCC" width="6" height="1"/>
		<rect x="21" y="559.001" fill="#CDCCCC" width="3" height="1"/>
		<rect x="18" y="564.001" fill="#CDCCCC" width="6" height="1"/>
		<rect x="21" y="569.001" fill="#CDCCCC" width="3" height="1"/>
		<rect x="18" y="574.001" fill="#CDCCCC" width="6" height="1"/>
		<rect x="21" y="579.001" fill="#CDCCCC" width="3" height="1"/>
		<rect x="18" y="584.001" fill="#CDCCCC" width="6" height="1"/>
		<rect x="21" y="589.001" fill="#CDCCCC" width="3" height="1"/>
		<rect x="18" y="594.001" fill="#CDCCCC" width="6" height="1"/>
		<rect x="21" y="600.001" fill="#CDCCCC" width="3" height="1"/>
		<text transform="matrix(1 0 0 1 10.1553 515.7266)" fill="#AFAFAF" font-family="'ArialMT'" font-size="9">5</text>
		<text transform="matrix(1 0 0 1 10.1553 526.5264)" fill="#AFAFAF" font-family="'ArialMT'" font-size="9">0</text>
		<text transform="matrix(1 0 0 1 10.1553 537.3276)" fill="#AFAFAF" font-family="'ArialMT'" font-size="9">0</text>
		<rect x="21" y="610.001" fill="#CDCCCC" width="3" height="1"/>
		<rect x="18" y="615.001" fill="#CDCCCC" width="6" height="1"/>
		<rect x="21" y="620.001" fill="#CDCCCC" width="3" height="1"/>
		<rect x="18" y="625.001" fill="#CDCCCC" width="6" height="1"/>
		<rect x="21" y="630.001" fill="#CDCCCC" width="3" height="1"/>
		<rect x="18" y="635.001" fill="#CDCCCC" width="6" height="1"/>
		<rect x="21" y="640.001" fill="#CDCCCC" width="3" height="1"/>
		<rect x="18" y="645.001" fill="#CDCCCC" width="6" height="1"/>
		<rect x="21" y="650.001" fill="#CDCCCC" width="3" height="1"/>
		<rect x="18" y="655.001" fill="#CDCCCC" width="6" height="1"/>
		<rect x="21" y="660.001" fill="#CDCCCC" width="3" height="1"/>
		<rect x="18" y="665.001" fill="#CDCCCC" width="6" height="1"/>
		<rect x="21" y="670.001" fill="#CDCCCC" width="3" height="1"/>
		<rect x="18" y="675.001" fill="#CDCCCC" width="6" height="1"/>
		<rect x="21" y="680.001" fill="#CDCCCC" width="3" height="1"/>
		<rect x="18" y="685.001" fill="#CDCCCC" width="6" height="1"/>
		<rect x="21" y="690.001" fill="#CDCCCC" width="3" height="1"/>
		<text transform="matrix(1 0 0 1 10.1553 616.7266)" fill="#AFAFAF" font-family="'ArialMT'" font-size="9">6</text>
		<text transform="matrix(1 0 0 1 10.1553 627.5264)" fill="#AFAFAF" font-family="'ArialMT'" font-size="9">0</text>
		<text transform="matrix(1 0 0 1 10.1553 638.3276)" fill="#AFAFAF" font-family="'ArialMT'" font-size="9">0</text>
		<g>
			<rect y="706.06" fill="#F3F3F3" width="24" height="717"/>
			<rect y="705.06" fill="#CDCCCC" width="24" height="1"/>
			<rect y="806.06" fill="#CDCCCC" width="24" height="1"/>
			<rect x="21" y="710.06" fill="#CDCCCC" width="3" height="1"/>
			<rect x="18" y="715.06" fill="#CDCCCC" width="6" height="1"/>
			<rect x="21" y="720.06" fill="#CDCCCC" width="3" height="1"/>
			<rect x="18" y="725.06" fill="#CDCCCC" width="6" height="1"/>
			<rect x="21" y="730.06" fill="#CDCCCC" width="3" height="1"/>
			<rect x="18" y="735.06" fill="#CDCCCC" width="6" height="1"/>
			<rect x="21" y="740.06" fill="#CDCCCC" width="3" height="1"/>
			<rect x="18" y="745.06" fill="#CDCCCC" width="6" height="1"/>
			<rect x="21" y="750.06" fill="#CDCCCC" width="3" height="1"/>
			<rect x="18" y="755.06" fill="#CDCCCC" width="6" height="1"/>
			<rect x="21" y="760.06" fill="#CDCCCC" width="3" height="1"/>
			<rect x="18" y="765.06" fill="#CDCCCC" width="6" height="1"/>
			<rect x="21" y="770.06" fill="#CDCCCC" width="3" height="1"/>
			<rect x="18" y="775.06" fill="#CDCCCC" width="6" height="1"/>
			<rect x="21" y="780.06" fill="#CDCCCC" width="3" height="1"/>
			<rect x="18" y="785.06" fill="#CDCCCC" width="6" height="1"/>
			<rect x="21" y="790.06" fill="#CDCCCC" width="3" height="1"/>
			<rect x="18" y="795.06" fill="#CDCCCC" width="6" height="1"/>
			<rect x="21" y="801.06" fill="#CDCCCC" width="3" height="1"/>
			<rect y="907.06" fill="#CDCCCC" width="24" height="1"/>
			<rect x="21" y="811.06" fill="#CDCCCC" width="3" height="1"/>
			<rect x="18" y="816.06" fill="#CDCCCC" width="6" height="1"/>
			<rect x="21" y="821.06" fill="#CDCCCC" width="3" height="1"/>
			<rect x="18" y="826.06" fill="#CDCCCC" width="6" height="1"/>
			<rect x="21" y="831.06" fill="#CDCCCC" width="3" height="1"/>
			<rect x="18" y="836.06" fill="#CDCCCC" width="6" height="1"/>
			<rect x="21" y="841.06" fill="#CDCCCC" width="3" height="1"/>
			<rect x="18" y="846.06" fill="#CDCCCC" width="6" height="1"/>
			<rect x="21" y="851.06" fill="#CDCCCC" width="3" height="1"/>
			<rect x="18" y="856.06" fill="#CDCCCC" width="6" height="1"/>
			<rect x="21" y="861.06" fill="#CDCCCC" width="3" height="1"/>
			<rect x="18" y="866.06" fill="#CDCCCC" width="6" height="1"/>
			<rect x="21" y="871.06" fill="#CDCCCC" width="3" height="1"/>
			<rect x="18" y="876.06" fill="#CDCCCC" width="6" height="1"/>
			<rect x="21" y="881.06" fill="#CDCCCC" width="3" height="1"/>
			<rect x="18" y="886.06" fill="#CDCCCC" width="6" height="1"/>
			<rect x="21" y="891.06" fill="#CDCCCC" width="3" height="1"/>
			<rect x="18" y="896.06" fill="#CDCCCC" width="6" height="1"/>
			<rect x="21" y="902.06" fill="#CDCCCC" width="3" height="1"/>
			<text transform="matrix(1 0 0 1 10.1553 817.7842)" fill="#AFAFAF" font-family="'ArialMT'" font-size="9">8</text>
			<text transform="matrix(1 0 0 1 10.1553 828.584)" fill="#AFAFAF" font-family="'ArialMT'" font-size="9">0</text>
			<text transform="matrix(1 0 0 1 10.1553 839.3848)" fill="#AFAFAF" font-family="'ArialMT'" font-size="9">0</text>
			<rect y="1008.06" fill="#CDCCCC" width="24" height="1"/>
			<rect x="21" y="912.06" fill="#CDCCCC" width="3" height="1"/>
			<rect x="18" y="917.06" fill="#CDCCCC" width="6" height="1"/>
			<rect x="21" y="922.06" fill="#CDCCCC" width="3" height="1"/>
			<rect x="18" y="927.06" fill="#CDCCCC" width="6" height="1"/>
			<rect x="21" y="932.06" fill="#CDCCCC" width="3" height="1"/>
			<rect x="18" y="937.06" fill="#CDCCCC" width="6" height="1"/>
			<rect x="21" y="942.06" fill="#CDCCCC" width="3" height="1"/>
			<rect x="18" y="947.06" fill="#CDCCCC" width="6" height="1"/>
			<rect x="21" y="952.06" fill="#CDCCCC" width="3" height="1"/>
			<rect x="18" y="957.06" fill="#CDCCCC" width="6" height="1"/>
			<rect x="21" y="962.06" fill="#CDCCCC" width="3" height="1"/>
			<rect x="18" y="967.06" fill="#CDCCCC" width="6" height="1"/>
			<rect x="21" y="972.06" fill="#CDCCCC" width="3" height="1"/>
			<rect x="18" y="977.06" fill="#CDCCCC" width="6" height="1"/>
			<rect x="21" y="982.06" fill="#CDCCCC" width="3" height="1"/>
			<rect x="18" y="987.06" fill="#CDCCCC" width="6" height="1"/>
			<rect x="21" y="992.06" fill="#CDCCCC" width="3" height="1"/>
			<rect x="18" y="997.06" fill="#CDCCCC" width="6" height="1"/>
			<rect x="21" y="1003.06" fill="#CDCCCC" width="3" height="1"/>
			<text transform="matrix(1 0 0 1 10.1553 918.7842)" fill="#AFAFAF" font-family="'ArialMT'" font-size="9">9</text>
			<text transform="matrix(1 0 0 1 10.1553 929.584)" fill="#AFAFAF" font-family="'ArialMT'" font-size="9">0</text>
			<text transform="matrix(1 0 0 1 10.1553 940.3848)" fill="#AFAFAF" font-family="'ArialMT'" font-size="9">0</text>
			<rect y="1109.06" fill="#CDCCCC" width="24" height="1"/>
			<rect x="21" y="1013.06" fill="#CDCCCC" width="3" height="1"/>
			<rect x="18" y="1018.06" fill="#CDCCCC" width="6" height="1"/>
			<rect x="21" y="1023.06" fill="#CDCCCC" width="3" height="1"/>
			<rect x="18" y="1028.06" fill="#CDCCCC" width="6" height="1"/>
			<rect x="21" y="1033.06" fill="#CDCCCC" width="3" height="1"/>
			<rect x="18" y="1038.06" fill="#CDCCCC" width="6" height="1"/>
			<rect x="21" y="1043.06" fill="#CDCCCC" width="3" height="1"/>
			<rect x="18" y="1048.06" fill="#CDCCCC" width="6" height="1"/>
			<rect x="21" y="1053.06" fill="#CDCCCC" width="3" height="1"/>
			<rect x="18" y="1058.06" fill="#CDCCCC" width="6" height="1"/>
			<rect x="21" y="1063.06" fill="#CDCCCC" width="3" height="1"/>
			<rect x="18" y="1068.06" fill="#CDCCCC" width="6" height="1"/>
			<rect x="21" y="1073.06" fill="#CDCCCC" width="3" height="1"/>
			<rect x="18" y="1078.06" fill="#CDCCCC" width="6" height="1"/>
			<rect x="21" y="1083.06" fill="#CDCCCC" width="3" height="1"/>
			<rect x="18" y="1088.06" fill="#CDCCCC" width="6" height="1"/>
			<rect x="21" y="1093.06" fill="#CDCCCC" width="3" height="1"/>
			<rect x="18" y="1098.06" fill="#CDCCCC" width="6" height="1"/>
			<rect x="21" y="1104.06" fill="#CDCCCC" width="3" height="1"/>
			<text transform="matrix(1 0 0 1 10.1553 1019.7842)" fill="#AFAFAF" font-family="'ArialMT'" font-size="9">1</text>
			<text transform="matrix(1 0 0 1 10.1553 1030.584)" fill="#AFAFAF" font-family="'ArialMT'" font-size="9">0</text>
			<text transform="matrix(1 0 0 1 10.1553 1041.3848)" fill="#AFAFAF" font-family="'ArialMT'" font-size="9">0</text>
			<text transform="matrix(1 0 0 1 10.1553 1052.1836)" fill="#AFAFAF" font-family="'ArialMT'" font-size="9">0</text>
			<rect y="1210.06" fill="#CDCCCC" width="24" height="1"/>
			<rect x="21" y="1114.06" fill="#CDCCCC" width="3" height="1"/>
			<rect x="18" y="1119.06" fill="#CDCCCC" width="6" height="1"/>
			<rect x="21" y="1124.06" fill="#CDCCCC" width="3" height="1"/>
			<rect x="18" y="1129.06" fill="#CDCCCC" width="6" height="1"/>
			<rect x="21" y="1134.06" fill="#CDCCCC" width="3" height="1"/>
			<rect x="18" y="1139.06" fill="#CDCCCC" width="6" height="1"/>
			<rect x="21" y="1144.06" fill="#CDCCCC" width="3" height="1"/>
			<rect x="18" y="1149.06" fill="#CDCCCC" width="6" height="1"/>
			<rect x="21" y="1154.06" fill="#CDCCCC" width="3" height="1"/>
			<rect x="18" y="1159.06" fill="#CDCCCC" width="6" height="1"/>
			<rect x="21" y="1164.06" fill="#CDCCCC" width="3" height="1"/>
			<rect x="18" y="1169.06" fill="#CDCCCC" width="6" height="1"/>
			<rect x="21" y="1174.06" fill="#CDCCCC" width="3" height="1"/>
			<rect x="18" y="1179.06" fill="#CDCCCC" width="6" height="1"/>
			<rect x="21" y="1184.06" fill="#CDCCCC" width="3" height="1"/>
			<rect x="18" y="1189.06" fill="#CDCCCC" width="6" height="1"/>
			<rect x="21" y="1194.06" fill="#CDCCCC" width="3" height="1"/>
			<rect x="18" y="1199.06" fill="#CDCCCC" width="6" height="1"/>
			<rect x="21" y="1205.06" fill="#CDCCCC" width="3" height="1"/>
			<text transform="matrix(1 0 0 1 10.1553 1120.7842)" fill="#AFAFAF" font-family="'ArialMT'" font-size="9">1</text>
			<text transform="matrix(1 0 0 1 10.1553 1131.584)" fill="#AFAFAF" font-family="'ArialMT'" font-size="9">2</text>
			<text transform="matrix(1 0 0 1 10.1553 1142.3848)" fill="#AFAFAF" font-family="'ArialMT'" font-size="9">0</text>
			<text transform="matrix(1 0 0 1 10.1553 1153.1836)" fill="#AFAFAF" font-family="'ArialMT'" font-size="9">0</text>
			<rect y="1311.06" fill="#CDCCCC" width="24" height="1"/>
			<rect x="21" y="1215.06" fill="#CDCCCC" width="3" height="1"/>
			<rect x="18" y="1220.06" fill="#CDCCCC" width="6" height="1"/>
			<rect x="21" y="1225.06" fill="#CDCCCC" width="3" height="1"/>
			<rect x="18" y="1230.06" fill="#CDCCCC" width="6" height="1"/>
			<rect x="21" y="1235.06" fill="#CDCCCC" width="3" height="1"/>
			<rect x="18" y="1240.06" fill="#CDCCCC" width="6" height="1"/>
			<rect x="21" y="1245.06" fill="#CDCCCC" width="3" height="1"/>
			<rect x="18" y="1250.06" fill="#CDCCCC" width="6" height="1"/>
			<rect x="21" y="1255.06" fill="#CDCCCC" width="3" height="1"/>
			<rect x="18" y="1260.06" fill="#CDCCCC" width="6" height="1"/>
			<rect x="21" y="1265.06" fill="#CDCCCC" width="3" height="1"/>
			<rect x="18" y="1270.06" fill="#CDCCCC" width="6" height="1"/>
			<rect x="21" y="1275.06" fill="#CDCCCC" width="3" height="1"/>
			<rect x="18" y="1280.06" fill="#CDCCCC" width="6" height="1"/>
			<rect x="21" y="1285.06" fill="#CDCCCC" width="3" height="1"/>
			<rect x="18" y="1290.06" fill="#CDCCCC" width="6" height="1"/>
			<rect x="21" y="1295.06" fill="#CDCCCC" width="3" height="1"/>
			<rect x="18" y="1300.06" fill="#CDCCCC" width="6" height="1"/>
			<rect x="21" y="1306.06" fill="#CDCCCC" width="3" height="1"/>
			<text transform="matrix(1 0 0 1 10.1553 1221.7842)" fill="#AFAFAF" font-family="'ArialMT'" font-size="9">1</text>
			<text transform="matrix(1 0 0 1 10.1553 1232.584)" fill="#AFAFAF" font-family="'ArialMT'" font-size="9">3</text>
			<text transform="matrix(1 0 0 1 10.1553 1243.3848)" fill="#AFAFAF" font-family="'ArialMT'" font-size="9">0</text>
			<text transform="matrix(1 0 0 1 10.1553 1254.1836)" fill="#AFAFAF" font-family="'ArialMT'" font-size="9">0</text>
			<rect x="21" y="1316.06" fill="#CDCCCC" width="3" height="1"/>
			<rect x="18" y="1321.06" fill="#CDCCCC" width="6" height="1"/>
			<rect x="21" y="1326.06" fill="#CDCCCC" width="3" height="1"/>
			<rect x="18" y="1331.06" fill="#CDCCCC" width="6" height="1"/>
			<rect x="21" y="1336.06" fill="#CDCCCC" width="3" height="1"/>
			<rect x="18" y="1341.06" fill="#CDCCCC" width="6" height="1"/>
			<rect x="21" y="1346.06" fill="#CDCCCC" width="3" height="1"/>
			<rect x="18" y="1351.06" fill="#CDCCCC" width="6" height="1"/>
			<rect x="21" y="1356.06" fill="#CDCCCC" width="3" height="1"/>
			<rect x="18" y="1361.06" fill="#CDCCCC" width="6" height="1"/>
			<rect x="21" y="1366.06" fill="#CDCCCC" width="3" height="1"/>
			<rect x="18" y="1371.06" fill="#CDCCCC" width="6" height="1"/>
			<rect x="21" y="1376.06" fill="#CDCCCC" width="3" height="1"/>
			<rect x="18" y="1381.06" fill="#CDCCCC" width="6" height="1"/>
			<rect x="21" y="1386.06" fill="#CDCCCC" width="3" height="1"/>
			<rect x="18" y="1391.06" fill="#CDCCCC" width="6" height="1"/>
			<rect x="21" y="1396.06" fill="#CDCCCC" width="3" height="1"/>
			<text transform="matrix(1 0 0 1 10.1553 1322.7842)" fill="#AFAFAF" font-family="'ArialMT'" font-size="9">1</text>
			<text transform="matrix(1 0 0 1 10.1553 1333.584)" fill="#AFAFAF" font-family="'ArialMT'" font-size="9">4</text>
			<text transform="matrix(1 0 0 1 10.1553 1344.3848)" fill="#AFAFAF" font-family="'ArialMT'" font-size="9">0</text>
			<text transform="matrix(1 0 0 1 10.1553 1355.1836)" fill="#AFAFAF" font-family="'ArialMT'" font-size="9">0</text>
		</g>
		<rect x="18" y="695.022" fill="#CDCCCC" width="6" height="1"/>
		<rect x="21" y="700.022" fill="#CDCCCC" width="3" height="1"/>
		<text transform="matrix(1 0 0 1 10.1699 716.9141)" fill="#AFAFAF" font-family="'ArialMT'" font-size="9">7</text>
		<text transform="matrix(1 0 0 1 10.1699 727.7139)" fill="#AFAFAF" font-family="'ArialMT'" font-size="9">0</text>
		<text transform="matrix(1 0 0 1 10.1699 738.5156)" fill="#AFAFAF" font-family="'ArialMT'" font-size="9">0</text>
	</g>
</g>
</svg>
