<?xml version="1.0" encoding="utf-8"?>
<!-- Generator: Adobe Illustrator 16.0.0, SVG Export Plug-In . SVG Version: 6.00 Build 0)  -->
<!DOCTYPE svg PUBLIC "-//W3C//DTD SVG 1.1//EN" "http://www.w3.org/Graphics/SVG/1.1/DTD/svg11.dtd">
<svg version="1.1" id="Layer_1" xmlns="http://www.w3.org/2000/svg" xmlns:xlink="http://www.w3.org/1999/xlink" x="0px" y="0px"
	 width="6px" height="14px" viewBox="0 0 6 14" enable-background="new 0 0 6 14" xml:space="preserve">
<path fill="#929BA5" d="M5.986,3.105L5.99,6.216C5.994,7.935,4.658,9.33,3.003,9.332C2.744,9.334,2.494,9.288,2.255,9.225
	L2.253,7.777c0-0.068,0.021-0.13,0.038-0.194c0.212,0.122,0.451,0.194,0.71,0.194c0.825-0.002,1.497-0.701,1.495-1.559L4.49,3.108
	C4.488,2.25,3.815,1.553,2.99,1.555S1.495,2.255,1.497,3.113L1.499,4.22c-0.6,0.275-1.109,0.713-1.497,1.254L0,3.117
	C-0.005,1.398,1.334,0.002,2.988,0C4.642-0.004,5.984,1.387,5.986,3.105L5.986,3.105z M4.502,9.779l0.002,1.105
	c0.002,0.858-0.67,1.557-1.495,1.559s-1.497-0.694-1.5-1.553L1.505,7.78C1.503,6.922,2.173,6.223,2.998,6.222
	c0.259-0.001,0.498,0.073,0.71,0.193C3.725,6.35,3.748,6.29,3.746,6.221L3.744,4.774C3.503,4.71,3.255,4.665,2.995,4.666
	C1.343,4.668,0.003,6.065,0.006,7.783l0.006,3.11C0.016,12.612,1.357,14.002,3.013,14C4.664,13.996,6.002,12.601,6,10.883
	L5.996,8.525C5.609,9.065,5.101,9.504,4.502,9.779L4.502,9.779z M4.502,9.779"/>
</svg>
