<?xml version="1.0" encoding="utf-8"?>
<!-- Generator: Adobe Illustrator 16.0.0, SVG Export Plug-In . SVG Version: 6.00 Build 0)  -->
<!DOCTYPE svg PUBLIC "-//W3C//DTD SVG 1.1//EN" "http://www.w3.org/Graphics/SVG/1.1/DTD/svg11.dtd">
<svg version="1.1" id="Layer_1" xmlns="http://www.w3.org/2000/svg" xmlns:xlink="http://www.w3.org/1999/xlink" x="0px" y="0px"
	 width="17.38px" height="14.19px" viewBox="0 0 17.38 14.19" enable-background="new 0 0 17.38 14.19" xml:space="preserve">
<g>
	<g>
		<defs>
			<rect id="SVGID_1_" x="-0.001" y="0.002" width="17.382" height="14.185"/>
		</defs>
		<clipPath id="SVGID_2_">
			<use xlink:href="#SVGID_1_"  overflow="visible"/>
		</clipPath>
		<path clip-path="url(#SVGID_2_)" fill="#65BD61" d="M16.932,0H0.458C0.204,0-0.001,0.206-0.001,0.458v13.268
			c0,0.254,0.205,0.459,0.459,0.459h16.474c0.252,0,0.457-0.205,0.457-0.459V0.458C17.389,0.206,17.184,0,16.932,0L16.932,0z
			 M15.664,12.459H1.725V1.726h13.939V12.459z M15.664,12.459"/>
	</g>
	<path fill="#65BD61" d="M3.456,11.363h10.476c0.234,0,0.426-0.191,0.426-0.426V8.506c0-0.111-0.045-0.217-0.121-0.297L13.07,7.014
		c-0.16-0.163-0.418-0.172-0.588-0.02l-2.197,1.972L6.491,5.523C6.336,5.384,6.106,5.376,5.942,5.504
		C5.409,5.923,4.209,6.863,3.196,7.659c-0.104,0.08-0.162,0.203-0.162,0.333v2.945C3.034,11.172,3.223,11.363,3.456,11.363
		L3.456,11.363z M3.456,11.363"/>
	<path fill="#65BD61" d="M10.414,7.451c0.527,0,0.955-0.428,0.955-0.953c0-0.526-0.428-0.953-0.955-0.953
		c-0.525,0-0.953,0.427-0.953,0.953C9.461,7.023,9.889,7.451,10.414,7.451L10.414,7.451z M10.414,7.451"/>
</g>
</svg>
