<?xml version="1.0" encoding="utf-8"?>
<!-- Generator: Adobe Illustrator 16.0.0, SVG Export Plug-In . SVG Version: 6.00 Build 0)  -->
<!DOCTYPE svg PUBLIC "-//W3C//DTD SVG 1.1//EN" "http://www.w3.org/Graphics/SVG/1.1/DTD/svg11.dtd">
<svg version="1.1" id="Layer_1" xmlns="http://www.w3.org/2000/svg" xmlns:xlink="http://www.w3.org/1999/xlink" x="0px" y="0px"
	 width="18px" height="18px" viewBox="0 0 18 18" enable-background="new 0 0 18 18" xml:space="preserve">
<g>
	<g>
		<path fill="#428CBB" d="M1.676,12.797C2.125,13.846,2.73,14.75,3.49,15.51s1.664,1.365,2.711,1.814C7.25,17.775,8.35,18,9.5,18
			c1.084,0,2.135-0.203,3.148-0.613s1.917-0.988,2.706-1.732l1.44,1.426c0.22,0.23,0.475,0.281,0.764,0.156
			C17.853,17.111,18,16.893,18,16.582v-4.957c0-0.191-0.07-0.357-0.209-0.498c-0.141-0.141-0.307-0.211-0.498-0.211h-4.96
			c-0.311,0-0.528,0.148-0.653,0.443c-0.125,0.289-0.072,0.541,0.155,0.764l1.517,1.527c-0.518,0.488-1.107,0.861-1.771,1.123
			s-1.357,0.395-2.08,0.395c-0.768,0-1.5-0.15-2.197-0.449s-1.299-0.703-1.81-1.211c-0.509-0.512-0.913-1.113-1.212-1.811
			S3.833,10.27,3.833,9.5c0-0.766,0.149-1.5,0.448-2.197s0.703-1.299,1.212-1.811c0.511-0.508,1.112-0.912,1.81-1.211
			S8.733,3.834,9.5,3.834c0.879,0,1.707,0.191,2.49,0.576c0.782,0.383,1.443,0.924,1.98,1.627c0.052,0.072,0.137,0.117,0.255,0.133
			c0.112,0,0.204-0.033,0.276-0.1l1.517-1.527c0.06-0.061,0.091-0.135,0.096-0.227c0.003-0.094-0.021-0.178-0.074-0.252
			c-0.804-0.973-1.776-1.727-2.922-2.262C11.976,1.268,10.769,1,9.5,1C8.35,1,7.249,1.227,6.201,1.674
			C5.154,2.127,4.25,2.73,3.49,3.49C2.73,4.252,2.125,5.154,1.675,6.203C1.226,7.25,1,8.35,1,9.5C1,10.652,1.226,11.75,1.676,12.797
			L1.676,12.797z M1.676,12.797"/>
	</g>
	<g>
		<path fill="#FFFFFF" d="M0.676,11.797C1.125,12.846,1.73,13.75,2.49,14.51s1.664,1.365,2.711,1.814C6.25,16.775,7.35,17,8.5,17
			c1.084,0,2.135-0.203,3.148-0.613s1.917-0.988,2.706-1.732l1.44,1.426c0.22,0.23,0.475,0.281,0.764,0.156
			C16.853,16.111,17,15.893,17,15.582v-4.957c0-0.191-0.07-0.357-0.209-0.498c-0.141-0.141-0.307-0.211-0.498-0.211h-4.96
			c-0.311,0-0.528,0.148-0.653,0.443c-0.125,0.289-0.072,0.541,0.155,0.764l1.517,1.527c-0.518,0.488-1.107,0.861-1.771,1.123
			s-1.357,0.395-2.08,0.395c-0.768,0-1.5-0.15-2.197-0.449s-1.299-0.703-1.81-1.211c-0.509-0.512-0.913-1.113-1.212-1.811
			S2.833,9.27,2.833,8.5c0-0.766,0.149-1.5,0.448-2.197s0.703-1.299,1.212-1.811c0.511-0.508,1.112-0.912,1.81-1.211
			S7.733,2.834,8.5,2.834c0.879,0,1.707,0.191,2.49,0.576c0.782,0.383,1.443,0.924,1.98,1.627c0.052,0.072,0.137,0.117,0.255,0.133
			c0.112,0,0.204-0.033,0.276-0.1l1.517-1.527c0.06-0.061,0.091-0.135,0.096-0.227c0.003-0.094-0.021-0.178-0.074-0.252
			c-0.804-0.973-1.776-1.727-2.922-2.262C10.976,0.268,9.769,0,8.5,0C7.35,0,6.249,0.227,5.201,0.674
			C4.154,1.127,3.25,1.73,2.49,2.49C1.73,3.252,1.125,4.154,0.675,5.203C0.226,6.25,0,7.35,0,8.5C0,9.652,0.226,10.75,0.676,11.797
			L0.676,11.797z M0.676,11.797"/>
	</g>
</g>
</svg>
