<?xml version="1.0" encoding="utf-8"?>
<!-- Generator: Adobe Illustrator 16.0.0, SVG Export Plug-In . SVG Version: 6.00 Build 0)  -->
<!DOCTYPE svg PUBLIC "-//W3C//DTD SVG 1.1//EN" "http://www.w3.org/Graphics/SVG/1.1/DTD/svg11.dtd">
<svg version="1.1" id="Layer_1" xmlns="http://www.w3.org/2000/svg" xmlns:xlink="http://www.w3.org/1999/xlink" x="0px" y="0px"
	 width="14px" height="13px" viewBox="0 0 14 13" enable-background="new 0 0 14 13" xml:space="preserve">
<g>
	<path fill="#9B9A9A" d="M1.986,3.941c-0.105,0-0.211-0.047-0.277-0.137C1.596,3.653,1.629,3.441,1.78,3.329l1.896-1.385
		c0.152-0.112,0.368-0.08,0.48,0.072C4.271,2.165,4.238,2.378,4.085,2.49L2.189,3.875C2.129,3.919,2.057,3.941,1.986,3.941
		L1.986,3.941z M1.986,3.941"/>
	<path fill="#9B9A9A" d="M2.173,5.722c-0.107,0-0.214-0.05-0.281-0.144c-0.11-0.152-0.072-0.364,0.082-0.473l4.063-2.839
		c0.155-0.108,0.369-0.072,0.479,0.081C6.625,2.5,6.588,2.711,6.434,2.82L2.371,5.659C2.312,5.702,2.242,5.722,2.173,5.722
		L2.173,5.722z M2.173,5.722"/>
	<path fill="#9B9A9A" d="M13.424,0H0.576C0.259,0,0,0.256,0,0.569v9.77c0,0.313,0.259,0.568,0.576,0.568h4.69
		c0,0,0.167-0.01,0.167,0.152v0.851c0,0.079-0.006,0.132-0.102,0.132H4.11c-0.268,0-0.485,0.215-0.485,0.479
		C3.625,12.785,3.843,13,4.11,13H9.89c0.27,0,0.485-0.215,0.485-0.479c0-0.264-0.216-0.479-0.485-0.479H8.656
		c-0.07,0-0.09-0.042-0.09-0.091v-0.919c0-0.127,0.12-0.125,0.12-0.125h4.737c0.317,0,0.576-0.256,0.576-0.568v-9.77
		C14,0.256,13.741,0,13.424,0L13.424,0z M7.596,11.062v0.877c0,0.047-0.024,0.1-0.095,0.1H6.498c-0.089,0-0.093-0.046-0.093-0.118
		v-0.851c0-0.125,0.15-0.129,0.15-0.129h0.913C7.469,10.94,7.596,10.933,7.596,11.062L7.596,11.062z M7,10.278
		c-0.313,0-0.566-0.249-0.566-0.559c0-0.309,0.254-0.559,0.566-0.559s0.566,0.25,0.566,0.559C7.566,10.029,7.313,10.278,7,10.278
		L7,10.278z M13.152,8.122c0,0.313-0.258,0.567-0.575,0.567H1.424c-0.316,0-0.576-0.255-0.576-0.567V1.507
		c0-0.313,0.26-0.567,0.576-0.567h11.153c0.317,0,0.575,0.255,0.575,0.567V8.122z M13.152,8.122"/>
</g>
</svg>
