<?xml version="1.0" encoding="utf-8"?>
<!-- Generator: Adobe Illustrator 16.0.0, SVG Export Plug-In . SVG Version: 6.00 Build 0)  -->
<!DOCTYPE svg PUBLIC "-//W3C//DTD SVG 1.1//EN" "http://www.w3.org/Graphics/SVG/1.1/DTD/svg11.dtd">
<svg version="1.1" id="Layer_1" xmlns="http://www.w3.org/2000/svg" xmlns:xlink="http://www.w3.org/1999/xlink" x="0px" y="0px"
	 width="14px" height="13px" viewBox="0 0 14 13" enable-background="new 0 0 14 13" xml:space="preserve">
<g>
	<g>
		<defs>
			<rect id="SVGID_1_" x="0.504" width="12.992" height="13"/>
		</defs>
		<clipPath id="SVGID_2_">
			<use xlink:href="#SVGID_1_"  overflow="visible"/>
		</clipPath>
		<path clip-path="url(#SVGID_2_)" fill-rule="evenodd" clip-rule="evenodd" fill="#919090" d="M13.139,11.104l-2.814-2.813
			c-0.014-0.015-0.031-0.025-0.047-0.039c0.553-0.84,0.879-1.846,0.879-2.927C11.156,2.384,8.77,0,5.831,0
			C2.89,0,0.504,2.384,0.504,5.325c0,2.94,2.386,5.325,5.327,5.325c1.079,0,2.084-0.323,2.923-0.877
			C8.77,9.788,8.779,9.807,8.795,9.821l2.814,2.813c0.422,0.423,1.105,0.423,1.529,0S13.563,11.526,13.139,11.104L13.139,11.104z
			 M5.831,8.804c-1.922,0-3.48-1.558-3.48-3.479c0-1.922,1.559-3.479,3.48-3.479c1.92,0,3.478,1.557,3.478,3.479
			C9.309,7.246,7.751,8.804,5.831,8.804L5.831,8.804z M5.831,8.804"/>
	</g>
</g>
</svg>
