<?xml version="1.0" encoding="utf-8"?>
<!-- Generator: Adobe Illustrator 16.0.0, SVG Export Plug-In . SVG Version: 6.00 Build 0)  -->
<!DOCTYPE svg PUBLIC "-//W3C//DTD SVG 1.1//EN" "http://www.w3.org/Graphics/SVG/1.1/DTD/svg11.dtd">
<svg version="1.1" id="Layer_1" xmlns="http://www.w3.org/2000/svg" xmlns:xlink="http://www.w3.org/1999/xlink" x="0px" y="0px"
	 width="9px" height="12.7px" viewBox="0 0 9 12.7" enable-background="new 0 0 9 12.7" xml:space="preserve">
<g>
	<path fill="#9B9A9A" d="M6.671,0.002v5.012c0,0.745-0.17,1.292-0.512,1.641c-0.34,0.35-0.889,0.521-1.646,0.521
		c-0.779,0-1.339-0.172-1.679-0.518c-0.338-0.346-0.508-0.89-0.508-1.632V0.002H0.022v6.192c0,1.1,0.388,1.967,1.163,2.6
		c0.777,0.634,1.867,0.949,3.27,0.949c0.931,0,1.735-0.143,2.418-0.426c0.682-0.285,1.203-0.696,1.563-1.23
		c0.36-0.535,0.541-1.157,0.541-1.868V0.002H6.671z M6.671,0.002"/>
	<rect x="0.022" y="10.733" fill="#9B9A9A" width="8.955" height="1.965"/>
</g>
</svg>
