<?xml version="1.0" encoding="utf-8"?>
<!-- Generator: Adobe Illustrator 16.0.0, SVG Export Plug-In . SVG Version: 6.00 Build 0)  -->
<!DOCTYPE svg PUBLIC "-//W3C//DTD SVG 1.1//EN" "http://www.w3.org/Graphics/SVG/1.1/DTD/svg11.dtd">
<svg version="1.1" id="Layer_1" xmlns="http://www.w3.org/2000/svg" xmlns:xlink="http://www.w3.org/1999/xlink" x="0px" y="0px"
	 width="19.32px" height="19.31px" viewBox="0 0 19.32 19.31" enable-background="new 0 0 19.32 19.31" xml:space="preserve">
<g>
	<g>
		<path fill="#9B9C9B" d="M0.004,0v19.311h19.312V0H0.004z M18.316,18.311H1.003V0.999h17.313V18.311z"/>
	</g>
	<g>
		<g>
			<path fill="#9B9A9A" d="M8.407,5.767c-0.11-0.204-0.085-0.519,0.057-0.702l0.485-0.628c0.142-0.183,0.068-0.333-0.163-0.333
				H4.519c-0.231,0-0.42,0.189-0.42,0.42v3.293c0,0.231,0.189,0.42,0.42,0.42h4.268c0.231,0,0.42-0.189,0.42-0.42V7.658
				c0-0.231-0.09-0.586-0.201-0.79L8.407,5.767z"/>
		</g>
		<g>
			<path fill="#9B9A9A" d="M11.192,4.104c-0.231,0-0.536,0.149-0.678,0.333l-0.485,0.628C9.888,5.248,9.862,5.563,9.973,5.767
				l0.599,1.102c0.11,0.204,0.201,0.559,0.201,0.79v0.159c0,0.231,0.189,0.42,0.42,0.42h4.019c0.23,0,0.42-0.189,0.42-0.42V4.524
				c0-0.231-0.189-0.42-0.42-0.42H11.192z"/>
		</g>
	</g>
	<g>
		<g>
			<path fill="#9B9A9A" d="M8.407,12.717c-0.11-0.203-0.085-0.519,0.057-0.702l0.485-0.627c0.142-0.184,0.068-0.333-0.163-0.333
				H4.545c-0.231,0-0.42,0.189-0.42,0.42v3.295c0,0.23,0.189,0.42,0.42,0.42h4.241c0.231,0,0.42-0.189,0.42-0.42v-0.16
				c0-0.23-0.09-0.586-0.201-0.789L8.407,12.717z"/>
		</g>
		<g>
			<path fill="#9B9A9A" d="M11.192,11.055c-0.231,0-0.536,0.149-0.678,0.333l-0.485,0.627c-0.142,0.184-0.167,0.499-0.057,0.702
				l0.599,1.104c0.11,0.203,0.201,0.559,0.201,0.789v0.16c0,0.23,0.189,0.42,0.42,0.42h4.046c0.23,0,0.42-0.189,0.42-0.42v-3.295
				c0-0.23-0.189-0.42-0.42-0.42H11.192z"/>
		</g>
	</g>
</g>
</svg>
