<?xml version="1.0" encoding="utf-8"?>
<!-- Generator: Adobe Illustrator 16.0.0, SVG Export Plug-In . SVG Version: 6.00 Build 0)  -->
<!DOCTYPE svg PUBLIC "-//W3C//DTD SVG 1.1//EN" "http://www.w3.org/Graphics/SVG/1.1/DTD/svg11.dtd">
<svg version="1.1" id="Layer_1" xmlns="http://www.w3.org/2000/svg" xmlns:xlink="http://www.w3.org/1999/xlink" x="0px" y="0px"
	 width="14px" height="14px" viewBox="0 0 14 14" enable-background="new 0 0 14 14" xml:space="preserve">
<g>
	<path fill-rule="evenodd" clip-rule="evenodd" fill="#428CBB" d="M9.034,7.487l4.646-4.645c0.428-0.426,0.428-1.121,0-1.547
		c-0.428-0.429-1.121-0.429-1.549-0.002L7.487,5.938L2.841,1.295c-0.429-0.429-1.121-0.428-1.549,0
		c-0.426,0.426-0.428,1.118,0,1.547l4.646,4.645l-4.646,4.644c-0.428,0.427-0.428,1.121,0.001,1.55c0.427,0.426,1.121,0.426,1.549,0
		l4.646-4.645l4.645,4.644c0.427,0.427,1.121,0.427,1.547,0c0.428-0.426,0.428-1.12,0-1.548L9.034,7.487z M9.034,7.487"/>
	<path fill-rule="evenodd" clip-rule="evenodd" fill="#FFFFFF" d="M8.062,6.514l4.646-4.645c0.428-0.427,0.428-1.122,0-1.547
		c-0.427-0.429-1.121-0.429-1.549-0.001L6.514,4.965L1.869,0.322c-0.429-0.429-1.12-0.428-1.548,0c-0.426,0.426-0.428,1.118,0,1.547
		l4.646,4.645l-4.646,4.643c-0.428,0.428-0.428,1.121,0.001,1.55c0.427,0.427,1.12,0.427,1.548,0l4.646-4.645l4.645,4.644
		c0.427,0.428,1.121,0.428,1.547,0c0.428-0.427,0.428-1.12,0-1.548L8.062,6.514z M8.062,6.514"/>
</g>
</svg>
