<?xml version="1.0" encoding="utf-8"?>
<!-- Generator: Adobe Illustrator 16.0.0, SVG Export Plug-In . SVG Version: 6.00 Build 0)  -->
<!DOCTYPE svg PUBLIC "-//W3C//DTD SVG 1.1//EN" "http://www.w3.org/Graphics/SVG/1.1/DTD/svg11.dtd">
<svg version="1.1" id="Layer_1" xmlns="http://www.w3.org/2000/svg" xmlns:xlink="http://www.w3.org/1999/xlink" x="0px" y="0px"
	 width="16px" height="19px" viewBox="0 0 16 19" enable-background="new 0 0 16 19" xml:space="preserve">
<g>
	<g>
		<g id="XMLID_1_">
			<g>
				<g>
					<path fill="#9B9A9A" d="M1.001,18.58c0,0.23-0.189,0.42-0.42,0.42H0.42C0.189,19,0,18.811,0,18.58V0.42C0,0.189,0.189,0,0.42,0
						h0.16c0.231,0,0.42,0.189,0.42,0.42V18.58z"/>
				</g>
				<g>
					<path fill="#9B9A9A" d="M16,7.468c0,0.231-0.189,0.42-0.42,0.42H4.744c-0.231,0-0.42-0.189-0.42-0.42V4.241
						c0-0.231,0.189-0.42,0.42-0.42H15.58c0.23,0,0.42,0.189,0.42,0.42V7.468z"/>
				</g>
				<g>
					<path fill="none" stroke="#9B9A9A" stroke-width="1.051" stroke-miterlimit="10" d="M11.105,14.693
						c0,0.23-0.189,0.42-0.42,0.42H4.744c-0.231,0-0.42-0.189-0.42-0.42v-3.228c0-0.23,0.189-0.42,0.42-0.42h5.942
						c0.23,0,0.42,0.189,0.42,0.42V14.693z"/>
				</g>
			</g>
		</g>
	</g>
</g>
</svg>
