<?xml version="1.0" encoding="utf-8"?>
<!-- Generator: Adobe Illustrator 16.0.0, SVG Export Plug-In . SVG Version: 6.00 Build 0)  -->
<!DOCTYPE svg PUBLIC "-//W3C//DTD SVG 1.1//EN" "http://www.w3.org/Graphics/SVG/1.1/DTD/svg11.dtd">
<svg version="1.1" id="Layer_1" xmlns="http://www.w3.org/2000/svg" xmlns:xlink="http://www.w3.org/1999/xlink" x="0px" y="0px"
	 width="12.83px" height="19.31px" viewBox="0 0 12.83 19.31" enable-background="new 0 0 12.83 19.31" xml:space="preserve">
<symbol  id="New_Symbol_4" viewBox="-30.506 -45.938 61.013 91.875">
	<g>
		<path fill="#9B9A9A" d="M2.269-43.938c0-1.1-0.9-2-2-2h-0.703c-1.1,0-2,0.9-2,2v87.875c0,1.1,0.9,2,2,2h0.703c1.1,0,2-0.9,2-2
			V-43.938z"/>
	</g>
	<g>
		<path fill="#9B9A9A" d="M15.851,10.863c0-1.1-0.9-2-2-2h-27.867c-1.1,0-2,0.9-2,2v15.666c0,1.101,0.9,2,2,2h27.867
			c1.1,0,2-0.899,2-2V10.863z"/>
	</g>
	<g>
		<path fill="#F4F6F7" d="M28.007-24.449c0-1.1-0.9-2-2-2h-52.013c-1.1,0-2,0.9-2,2v15.666c0,1.1,0.9,2,2,2h52.013c1.1,0,2-0.9,2-2
			V-24.449z"/>
		<path fill="none" stroke="#9B9A9A" stroke-width="5" stroke-miterlimit="10" d="M28.007-24.449c0-1.1-0.9-2-2-2h-52.013
			c-1.1,0-2,0.9-2,2v15.666c0,1.1,0.9,2,2,2h52.013c1.1,0,2-0.9,2-2V-24.449z"/>
	</g>
</symbol>
<use xlink:href="#New_Symbol_4"  width="61.013" height="91.875" id="XMLID_9_" x="-30.506" y="-45.938" transform="matrix(0.2102 0 0 -0.2102 6.415 9.6548)" overflow="visible"/>
</svg>
