<?xml version="1.0" encoding="utf-8"?>
<!-- Generator: Adobe Illustrator 16.0.0, SVG Export Plug-In . SVG Version: 6.00 Build 0)  -->
<!DOCTYPE svg PUBLIC "-//W3C//DTD SVG 1.1//EN" "http://www.w3.org/Graphics/SVG/1.1/DTD/svg11.dtd">
<svg version="1.1" id="Layer_1" xmlns="http://www.w3.org/2000/svg" xmlns:xlink="http://www.w3.org/1999/xlink" x="0px" y="0px"
	 width="25px" height="25px" viewBox="0 0 25 25" enable-background="new 0 0 25 25" xml:space="preserve">
<path fill="#9B9A9A" d="M23.059,11.328l-4.695,4.69c-2.589,2.593-6.79,2.593-9.381,0c-0.409-0.406-0.729-0.864-1.008-1.337
	l2.182-2.181c0.101-0.104,0.229-0.164,0.353-0.234c0.149,0.516,0.414,1.001,0.821,1.407c1.292,1.294,3.396,1.292,4.689,0
	l4.693-4.691c1.292-1.294,1.292-3.398,0-4.691c-1.294-1.295-3.399-1.295-4.693,0l-1.668,1.67c-1.354-0.528-2.812-0.669-4.233-0.461
	l3.556-3.554c2.589-2.593,6.792-2.593,9.385,0C25.648,4.534,25.648,8.736,23.059,11.328L23.059,11.328z M10.65,19.041l-1.668,1.67
	c-1.294,1.294-3.399,1.294-4.691,0c-1.294-1.294-1.294-3.397,0-4.693l4.691-4.69c1.294-1.294,3.397-1.294,4.691,0
	c0.403,0.403,0.668,0.892,0.819,1.405c0.124-0.07,0.249-0.128,0.352-0.232l2.183-2.18c-0.278-0.475-1.416-1.747-1.008-1.339
	c0.004,0.004-1.326-8.062-9.385,0l-4.691,4.691c-2.592,2.592-2.592,6.792,0,9.386c2.591,2.588,6.793,2.588,9.387,0l3.554-3.557
	C13.462,19.71,12.004,19.568,10.65,19.041L10.65,19.041z M10.65,19.041"/>
</svg>
