<?xml version="1.0" encoding="utf-8"?>
<!-- Generator: Adobe Illustrator 16.0.0, SVG Export Plug-In . SVG Version: 6.00 Build 0)  -->
<!DOCTYPE svg PUBLIC "-//W3C//DTD SVG 1.1//EN" "http://www.w3.org/Graphics/SVG/1.1/DTD/svg11.dtd">
<svg version="1.1" id="Layer_1" xmlns="http://www.w3.org/2000/svg" xmlns:xlink="http://www.w3.org/1999/xlink" x="0px" y="0px"
	 width="41.3px" height="9px" viewBox="0 0 41.3 9" enable-background="new 0 0 41.3 9" xml:space="preserve">
<g>
	<path fill="#9B9A9A" d="M2.527,6.857c-0.372,0-0.712-0.072-1.021-0.216C1.197,6.498,0.93,6.292,0.705,6.025
		C0.48,5.758,0.306,5.434,0.184,5.053C0.061,4.672-0.001,4.244-0.001,3.771s0.062-0.898,0.185-1.273
		C0.306,2.122,0.48,1.805,0.705,1.543C0.93,1.282,1.197,1.082,1.506,0.944c0.31-0.138,0.649-0.207,1.021-0.207
		c0.366,0,0.704,0.071,1.013,0.212s0.576,0.342,0.801,0.604c0.226,0.26,0.399,0.578,0.522,0.953s0.185,0.797,0.185,1.265
		c0,0.474-0.062,0.901-0.185,1.282S4.566,5.758,4.341,6.025C4.116,6.292,3.849,6.498,3.54,6.642S2.894,6.857,2.527,6.857z
		 M2.527,6.201c0.265,0,0.503-0.058,0.716-0.172c0.213-0.113,0.396-0.277,0.549-0.49S4.063,5.07,4.147,4.773
		s0.126-0.631,0.126-1.003c0-0.366-0.042-0.696-0.126-0.99S3.945,2.238,3.792,2.033C3.639,1.83,3.456,1.672,3.243,1.561
		C3.03,1.45,2.792,1.395,2.527,1.395c-0.264,0-0.504,0.056-0.72,0.166c-0.216,0.111-0.4,0.27-0.554,0.473
		C1.102,2.238,0.982,2.486,0.898,2.78s-0.126,0.624-0.126,0.99c0,0.372,0.042,0.706,0.126,1.003s0.203,0.553,0.355,0.766
		c0.153,0.213,0.338,0.377,0.554,0.49C2.023,6.144,2.264,6.201,2.527,6.201z"/>
	<path fill="#9B9A9A" d="M6.389,2.375H7l0.063,0.631h0.027c0.21-0.211,0.43-0.386,0.661-0.527c0.23-0.141,0.499-0.211,0.806-0.211
		c0.462,0,0.799,0.145,1.013,0.432C9.783,2.987,9.89,3.414,9.89,3.978V6.75H9.151V4.076c0-0.414-0.066-0.712-0.198-0.895
		c-0.132-0.184-0.342-0.275-0.63-0.275c-0.228,0-0.429,0.057-0.603,0.172C7.546,3.191,7.349,3.359,7.126,3.582V6.75H6.389V2.375z"/>
	<path fill="#9B9A9A" d="M11.149,4.571c0-0.36,0.056-0.683,0.166-0.968c0.111-0.284,0.259-0.525,0.441-0.725
		c0.183-0.197,0.392-0.349,0.626-0.454c0.233-0.104,0.477-0.157,0.729-0.157c0.276,0,0.523,0.048,0.742,0.145
		c0.22,0.096,0.402,0.233,0.55,0.414c0.146,0.18,0.259,0.396,0.337,0.647s0.117,0.534,0.117,0.846c0,0.162-0.009,0.298-0.027,0.405
		h-2.952c0.03,0.475,0.176,0.85,0.437,1.125c0.262,0.275,0.602,0.414,1.021,0.414c0.21,0,0.404-0.031,0.581-0.095
		s0.347-0.146,0.509-0.247l0.261,0.486c-0.192,0.119-0.405,0.225-0.64,0.314c-0.233,0.09-0.501,0.135-0.801,0.135
		c-0.294,0-0.568-0.053-0.823-0.157s-0.477-0.255-0.666-0.45s-0.338-0.434-0.445-0.715C11.203,5.252,11.149,4.932,11.149,4.571z
		 M14.209,4.238c0-0.449-0.094-0.793-0.283-1.03c-0.188-0.237-0.454-0.355-0.797-0.355c-0.155,0-0.304,0.031-0.445,0.095
		c-0.141,0.063-0.269,0.152-0.382,0.27c-0.114,0.117-0.209,0.262-0.284,0.432c-0.075,0.172-0.124,0.368-0.148,0.59H14.209z"/>
	<path fill="#9B9A9A" d="M20.149,0h0.521v9h-0.521V0z"/>
	<path fill="#9B9A9A" d="M27.629,1.476h-1.791v-0.63h4.329v0.63h-1.791V6.75h-0.747V1.476z"/>
	<path fill="#9B9A9A" d="M30.465,2.375h0.756l0.648,2.529c0.048,0.211,0.093,0.414,0.135,0.612s0.084,0.399,0.126,0.603h0.036
		c0.048-0.203,0.096-0.406,0.144-0.607c0.049-0.201,0.1-0.403,0.153-0.607l0.675-2.529h0.721l0.684,2.529
		c0.054,0.211,0.106,0.414,0.157,0.612s0.101,0.399,0.148,0.603h0.036c0.048-0.203,0.093-0.404,0.135-0.603s0.087-0.401,0.136-0.612
		l0.639-2.529h0.702l-1.17,4.375h-0.9l-0.63-2.35c-0.054-0.21-0.104-0.417-0.148-0.621c-0.045-0.203-0.095-0.416-0.148-0.639h-0.036
		c-0.048,0.223-0.096,0.437-0.144,0.644c-0.049,0.207-0.103,0.415-0.162,0.626l-0.612,2.34H31.68L30.465,2.375z"/>
	<path fill="#9B9A9A" d="M37.251,4.571c0-0.366,0.056-0.691,0.166-0.976c0.111-0.285,0.26-0.527,0.446-0.725
		c0.186-0.199,0.4-0.349,0.644-0.451c0.242-0.102,0.499-0.152,0.77-0.152c0.27,0,0.526,0.051,0.77,0.152
		c0.242,0.103,0.457,0.252,0.643,0.451c0.187,0.197,0.335,0.439,0.446,0.725c0.11,0.284,0.166,0.609,0.166,0.976
		c0,0.36-0.056,0.683-0.166,0.968c-0.111,0.285-0.26,0.525-0.446,0.72c-0.186,0.195-0.4,0.344-0.643,0.446
		c-0.243,0.102-0.5,0.152-0.77,0.152c-0.271,0-0.527-0.051-0.77-0.152c-0.243-0.103-0.458-0.251-0.644-0.446
		c-0.187-0.194-0.335-0.435-0.446-0.72C37.307,5.254,37.251,4.932,37.251,4.571z M38.016,4.571c0,0.253,0.03,0.48,0.09,0.685
		c0.061,0.203,0.146,0.379,0.257,0.526s0.244,0.261,0.4,0.342s0.327,0.122,0.514,0.122c0.186,0,0.356-0.041,0.513-0.122
		s0.289-0.194,0.4-0.342s0.196-0.323,0.257-0.526c0.06-0.204,0.09-0.432,0.09-0.685c0-0.252-0.03-0.481-0.09-0.688
		c-0.061-0.207-0.146-0.385-0.257-0.535s-0.244-0.266-0.4-0.347s-0.327-0.122-0.513-0.122c-0.187,0-0.357,0.041-0.514,0.122
		s-0.289,0.196-0.4,0.347s-0.196,0.328-0.257,0.535C38.046,4.09,38.016,4.319,38.016,4.571z"/>
</g>
</svg>
