<?xml version="1.0" encoding="utf-8"?>
<!-- Generator: Adobe Illustrator 16.0.0, SVG Export Plug-In . SVG Version: 6.00 Build 0)  -->
<!DOCTYPE svg PUBLIC "-//W3C//DTD SVG 1.1//EN" "http://www.w3.org/Graphics/SVG/1.1/DTD/svg11.dtd">
<svg version="1.1" id="Layer_1" xmlns="http://www.w3.org/2000/svg" xmlns:xlink="http://www.w3.org/1999/xlink" x="0px" y="0px"
	 width="27px" height="27px" viewBox="0 0 27 27" enable-background="new 0 0 27 27" xml:space="preserve">
<g>
	<rect x="1" y="1" fill="none" stroke="#9B9A9A" stroke-width="2" stroke-miterlimit="10" width="25" height="25"/>
	<path fill="#9B9A9A" d="M19.28,10.955l-1.139-1.137c-0.134-0.135-0.354-0.135-0.487,0l-5.288,5.287l-2.018-2.016
		c-0.133-0.135-0.353-0.135-0.486,0l-1.141,1.137c-0.134,0.135-0.134,0.354,0,0.488l3.401,3.4c0.065,0.066,0.155,0.102,0.243,0.102
		s0.178-0.035,0.244-0.102l6.67-6.672c0.065-0.063,0.1-0.15,0.1-0.244C19.38,11.111,19.346,11.021,19.28,10.955L19.28,10.955z
		 M19.28,10.955"/>
</g>
</svg>
