<?xml version="1.0" encoding="utf-8"?>
<!-- Generator: Adobe Illustrator 16.0.0, SVG Export Plug-In . SVG Version: 6.00 Build 0)  -->
<!DOCTYPE svg PUBLIC "-//W3C//DTD SVG 1.1//EN" "http://www.w3.org/Graphics/SVG/1.1/DTD/svg11.dtd">
<svg version="1.1" id="Layer_1" xmlns="http://www.w3.org/2000/svg" xmlns:xlink="http://www.w3.org/1999/xlink" x="0px" y="0px"
	 width="22px" height="21px" viewBox="0 0 22 21" enable-background="new 0 0 22 21" xml:space="preserve">
<g>
	<g>
		<path fill="#428CBB" d="M21.236,1h-5.938c-0.421,0-0.764,0.348-0.764,0.777v0.332c0,0.429,0.343,0.776,0.764,0.776h4.846v4.922
			c0,0.429,0.342,0.776,0.766,0.776h0.326C21.657,8.584,22,8.236,22,7.808v-6.03C22,1.348,21.657,1,21.236,1L21.236,1z M21.236,1"/>
		<path fill="#428CBB" d="M7.677,1H1.738C1.315,1,0.975,1.348,0.975,1.777v6.03c0,0.429,0.341,0.776,0.764,0.776h0.327
			c0.423,0,0.765-0.348,0.765-0.776V2.886h4.847c0.421,0,0.763-0.348,0.763-0.776V1.777C8.439,1.348,8.098,1,7.677,1L7.677,1z
			 M7.677,1"/>
		<path fill="#428CBB" d="M7.677,19.115H2.83v-4.922c0-0.428-0.342-0.776-0.765-0.776H1.738c-0.423,0-0.764,0.349-0.764,0.776v6.031
			C0.975,20.652,1.315,21,1.738,21h5.938c0.421,0,0.763-0.348,0.763-0.775v-0.333C8.439,19.463,8.098,19.115,7.677,19.115
			L7.677,19.115z M7.677,19.115"/>
		<path fill="#428CBB" d="M21.236,13.417H20.91c-0.424,0-0.766,0.349-0.766,0.776v4.922h-4.846c-0.421,0-0.764,0.348-0.764,0.776
			v0.333c0,0.428,0.343,0.775,0.764,0.775h5.938C21.657,21,22,20.652,22,20.225v-6.031C22,13.766,21.657,13.417,21.236,13.417
			L21.236,13.417z M21.236,13.417"/>
		<path fill="#428CBB" d="M13.525,10.059h-1.109V8.93c0-0.428-0.342-0.775-0.765-0.775h-0.327c-0.423,0-0.766,0.348-0.766,0.775
			v1.129H9.449c-0.421,0-0.766,0.348-0.766,0.775v0.333c0,0.429,0.345,0.776,0.766,0.776h1.109v1.127
			c0,0.43,0.343,0.777,0.766,0.777h0.327c0.423,0,0.765-0.348,0.765-0.777v-1.127h1.109c0.422,0,0.764-0.348,0.764-0.776v-0.333
			C14.289,10.406,13.947,10.059,13.525,10.059L13.525,10.059z M13.525,10.059"/>
	</g>
	<g>
		<g>
			<path fill="#FFFFFF" d="M20.262,0h-5.938c-0.421,0-0.763,0.348-0.763,0.777v0.332c0,0.429,0.342,0.776,0.763,0.776h4.847v4.922
				c0,0.429,0.342,0.776,0.765,0.776h0.327c0.421,0,0.764-0.348,0.764-0.776v-6.03C21.025,0.348,20.683,0,20.262,0L20.262,0z
				 M20.262,0"/>
			<path fill="#FFFFFF" d="M6.701,0H0.764C0.341,0,0,0.348,0,0.777v6.03c0,0.429,0.341,0.776,0.764,0.776H1.09
				c0.424,0,0.766-0.348,0.766-0.776V1.886h4.846c0.421,0,0.764-0.348,0.764-0.776V0.777C7.465,0.348,7.122,0,6.701,0L6.701,0z
				 M6.701,0"/>
			<path fill="#FFFFFF" d="M6.701,18.115H1.855v-4.922c0-0.428-0.342-0.776-0.766-0.776H0.764C0.341,12.417,0,12.766,0,13.193v6.031
				C0,19.652,0.341,20,0.764,20h5.938c0.421,0,0.764-0.348,0.764-0.775v-0.333C7.465,18.463,7.122,18.115,6.701,18.115L6.701,18.115
				z M6.701,18.115"/>
			<path fill="#FFFFFF" d="M20.262,12.417h-0.327c-0.423,0-0.765,0.349-0.765,0.776v4.922h-4.847c-0.421,0-0.763,0.348-0.763,0.776
				v0.333c0,0.428,0.342,0.775,0.763,0.775h5.938c0.421,0,0.764-0.348,0.764-0.775v-6.031
				C21.025,12.766,20.683,12.417,20.262,12.417L20.262,12.417z M20.262,12.417"/>
			<path fill="#FFFFFF" d="M12.551,9.059h-1.109V7.93c0-0.428-0.343-0.775-0.766-0.775h-0.327c-0.423,0-0.765,0.348-0.765,0.775
				v1.129H8.475c-0.422,0-0.765,0.348-0.765,0.775v0.333c0,0.429,0.343,0.776,0.765,0.776h1.109v1.127
				c0,0.43,0.342,0.777,0.765,0.777h0.327c0.423,0,0.766-0.348,0.766-0.777v-1.127h1.109c0.421,0,0.764-0.348,0.764-0.776V9.834
				C13.314,9.406,12.972,9.059,12.551,9.059L12.551,9.059z M12.551,9.059"/>
		</g>
	</g>
</g>
</svg>
