<?xml version="1.0" encoding="utf-8"?>
<!-- Generator: Adobe Illustrator 16.0.0, SVG Export Plug-In . SVG Version: 6.00 Build 0)  -->
<!DOCTYPE svg PUBLIC "-//W3C//DTD SVG 1.1//EN" "http://www.w3.org/Graphics/SVG/1.1/DTD/svg11.dtd">
<svg version="1.1" id="Layer_1" xmlns="http://www.w3.org/2000/svg" xmlns:xlink="http://www.w3.org/1999/xlink" x="0px" y="0px"
	 width="19px" height="19px" viewBox="0 0 19 19" enable-background="new 0 0 19 19" xml:space="preserve">
<g>
	<g>
		<g>
			<path fill="#9B9C9B" d="M0,0v19h19V0H0z M18.016,18.017H0.982V0.983h17.034V18.017z"/>
			<g>
				<path fill="#9B9A9A" d="M15.174,15.114c0,0.23-0.189,0.42-0.42,0.42H4.247c-0.231,0-0.42-0.189-0.42-0.42v-3.229
					c0-0.23,0.189-0.42,0.42-0.42h10.507c0.23,0,0.42,0.189,0.42,0.42V15.114z"/>
			</g>
			<g>
				<path fill="none" stroke="#9B9A9A" stroke-width="1.051" stroke-miterlimit="10" d="M12.797,8.274c0,0.231-0.189,0.42-0.42,0.42
					H6.625c-0.231,0-0.42-0.189-0.42-0.42V5.048c0-0.231,0.189-0.42,0.42-0.42h5.751c0.23,0,0.42,0.189,0.42,0.42V8.274z"/>
			</g>
		</g>
	</g>
</g>
</svg>
