<?xml version="1.0" encoding="utf-8"?>
<!-- Generator: Adobe Illustrator 16.0.0, SVG Export Plug-In . SVG Version: 6.00 Build 0)  -->
<!DOCTYPE svg PUBLIC "-//W3C//DTD SVG 1.1//EN" "http://www.w3.org/Graphics/SVG/1.1/DTD/svg11.dtd">
<svg version="1.1" id="Layer_1" xmlns="http://www.w3.org/2000/svg" xmlns:xlink="http://www.w3.org/1999/xlink" x="0px" y="0px"
	 width="13.48px" height="20.4px" viewBox="0 0 13.48 20.4" enable-background="new 0 0 13.48 20.4" xml:space="preserve">
<g>
	<g>
		<path fill="#9B9A9A" d="M10.922,2.54h1.201v1.102h1.357V1.37H6.807v2.271h1.357V2.54h1.199v4.682H8.723v1.174h2.879V7.222h-0.68
			V2.54z M10.922,2.54"/>
		<path fill="#9B9A9A" d="M10.922,13.175h1.201v1.104h1.357v-2.271H6.807v2.271h1.357v-1.104h1.199v4.683H8.723v1.174h2.879v-1.174
			h-0.68V13.175z M10.922,13.175"/>
	</g>
	<g>
		<polygon fill="#9B9A9A" points="1.836,20.401 0.918,19.23 0,18.06 1.836,18.06 3.672,18.06 2.754,19.23 		"/>
		<rect x="1.293" y="2.34" fill="#9B9A9A" width="1.086" height="15.72"/>
		<polygon fill="#9B9A9A" points="1.838,-0.001 2.754,1.169 3.672,2.34 1.838,2.34 0,2.34 0.918,1.169 		"/>
	</g>
</g>
</svg>
