<?xml version="1.0" encoding="utf-8"?>
<!-- Generator: Adobe Illustrator 16.0.0, SVG Export Plug-In . SVG Version: 6.00 Build 0)  -->
<!DOCTYPE svg PUBLIC "-//W3C//DTD SVG 1.1//EN" "http://www.w3.org/Graphics/SVG/1.1/DTD/svg11.dtd">
<svg version="1.1" id="Layer_1" xmlns="http://www.w3.org/2000/svg" xmlns:xlink="http://www.w3.org/1999/xlink" x="0px" y="0px"
	 width="22.1px" height="14.81px" viewBox="0 0 22.1 14.81" enable-background="new 0 0 22.1 14.81" xml:space="preserve">
<g>
	<g>
		<path fill="#9B9A9A" d="M6.218,1.27h1.301v1.193h1.471V0.002h-7.23v2.461h1.471V1.27h1.299v5.072H3.835v1.271h3.119V6.342H6.218
			V1.27z M6.218,1.27"/>
		<path fill="#9B9A9A" d="M17.569,1.268h1.301v1.195h1.471V0.002h-7.23v2.461h1.471V1.268h1.299V6.34h-0.693v1.271h3.117V6.34
			h-0.734V1.268z M17.569,1.268"/>
	</g>
	<g>
		<polygon fill="#9B9A9A" points="22.101,12.818 20.831,13.811 19.563,14.807 19.563,12.818 19.563,10.828 20.831,11.822 		"/>
		<rect x="2.536" y="12.229" fill="#9B9A9A" width="17.027" height="1.178"/>
		<polygon fill="#9B9A9A" points="-0.001,12.816 1.267,11.824 2.536,10.828 2.536,12.816 2.536,14.807 1.267,13.813 		"/>
	</g>
</g>
</svg>
