<?xml version="1.0" encoding="utf-8"?>
<!-- Generator: Adobe Illustrator 16.0.0, SVG Export Plug-In . SVG Version: 6.00 Build 0)  -->
<!DOCTYPE svg PUBLIC "-//W3C//DTD SVG 1.1//EN" "http://www.w3.org/Graphics/SVG/1.1/DTD/svg11.dtd">
<svg version="1.1" id="Layer_1" xmlns="http://www.w3.org/2000/svg" xmlns:xlink="http://www.w3.org/1999/xlink" x="0px" y="0px"
	 width="13.62px" height="13.9px" viewBox="0 0 13.62 13.9" enable-background="new 0 0 13.62 13.9" xml:space="preserve">
<g>
	<g>
		<defs>
			<rect id="SVGID_1_" x="0" y="0.16" width="13.619" height="13.919"/>
		</defs>
		<clipPath id="SVGID_2_">
			<use xlink:href="#SVGID_1_"  overflow="visible"/>
		</clipPath>
		<path clip-path="url(#SVGID_2_)" fill-rule="evenodd" clip-rule="evenodd" fill="#65C6BB" d="M9.85,5.637
			c0,0,0.535-0.451,0.127-0.903s-0.805,0.13-0.805,0.13L5.075,9.413c0,0-0.961,1.373-1.689,0.541C2.655,9.124,3.874,8.08,3.874,8.08
			l5.375-5.96c0,0,1.254-1.532,2.432-0.225c1.18,1.308-0.205,2.699-0.205,2.699l-6.039,6.698c0,0-1.934,2.479-3.723,0.492
			C-0.074,9.8,2.178,7.683,2.178,7.683l4.586-5.089c0,0,0.514-0.475,0.129-0.903C6.504,1.263,6.079,1.835,6.079,1.835L0.819,7.67
			c0,0-1.986,2.415,0.23,4.875c2.219,2.459,4.396,0.256,4.396,0.256l7.23-8.021c0,0,1.447-1.768-0.277-3.684
			c-1.725-1.912-3.32-0.309-3.32-0.309l-6.222,6.9c0,0-1.592,1.439-0.146,3.041c1.445,1.604,2.717-0.188,2.717-0.188L9.85,5.637z
			 M9.85,5.637"/>
	</g>
</g>
</svg>
