<?xml version="1.0" encoding="utf-8"?>
<!-- Generator: Adobe Illustrator 16.0.0, SVG Export Plug-In . SVG Version: 6.00 Build 0)  -->
<!DOCTYPE svg PUBLIC "-//W3C//DTD SVG 1.1//EN" "http://www.w3.org/Graphics/SVG/1.1/DTD/svg11.dtd">
<svg version="1.1" id="Layer_1" xmlns="http://www.w3.org/2000/svg" xmlns:xlink="http://www.w3.org/1999/xlink" x="0px" y="0px"
	 width="2387.03px" height="24px" viewBox="0 0 2387.03 24" enable-background="new 0 0 2387.03 24" xml:space="preserve">
<g id="New_Symbol_9">
	<g>
		<rect x="99.999" fill="#CDCCCC" width="1" height="24"/>
		<text transform="matrix(1 0 0 1 4.0347 16)" fill="#B3B4B4" font-family="'ArialMT'" font-size="9">0</text>
		<rect x="3.999" y="21" fill="#CDCCCC" width="1" height="3"/>
		<rect x="8.999" y="18" fill="#CDCCCC" width="1" height="6"/>
		<rect x="13.999" y="21" fill="#CDCCCC" width="1" height="3"/>
		<rect x="18.999" y="18" fill="#CDCCCC" width="1" height="6"/>
		<rect x="23.999" y="21" fill="#CDCCCC" width="1" height="3"/>
		<rect x="28.999" y="18" fill="#CDCCCC" width="1" height="6"/>
		<rect x="33.999" y="21" fill="#CDCCCC" width="1" height="3"/>
		<rect x="38.999" y="18" fill="#CDCCCC" width="1" height="6"/>
		<rect x="43.999" y="21" fill="#CDCCCC" width="1" height="3"/>
		<rect x="48.999" y="18" fill="#CDCCCC" width="1" height="6"/>
		<rect x="53.999" y="21" fill="#CDCCCC" width="1" height="3"/>
		<rect x="58.999" y="18" fill="#CDCCCC" width="1" height="6"/>
		<rect x="63.999" y="21" fill="#CDCCCC" width="1" height="3"/>
		<rect x="68.999" y="18" fill="#CDCCCC" width="1" height="6"/>
		<rect x="73.999" y="21" fill="#CDCCCC" width="1" height="3"/>
		<rect x="78.999" y="18" fill="#CDCCCC" width="1" height="6"/>
		<rect x="83.999" y="21" fill="#CDCCCC" width="1" height="3"/>
		<rect x="88.999" y="18" fill="#CDCCCC" width="1" height="6"/>
		<rect x="94.999" y="21" fill="#CDCCCC" width="1" height="3"/>
		<rect x="201.001" fill="#CDCCCC" width="1" height="24"/>
		<text transform="matrix(1 0 0 1 105.0366 16)" fill="#B3B4B4" font-family="'ArialMT'" font-size="9">100</text>
		<rect x="105.001" y="21" fill="#CDCCCC" width="1" height="3"/>
		<rect x="110.001" y="18" fill="#CDCCCC" width="1" height="6"/>
		<rect x="115.001" y="21" fill="#CDCCCC" width="1" height="3"/>
		<rect x="120.001" y="18" fill="#CDCCCC" width="1" height="6"/>
		<rect x="125.001" y="21" fill="#CDCCCC" width="1" height="3"/>
		<rect x="130.001" y="18" fill="#CDCCCC" width="1" height="6"/>
		<rect x="135.001" y="21" fill="#CDCCCC" width="1" height="3"/>
		<rect x="140.001" y="18" fill="#CDCCCC" width="1" height="6"/>
		<rect x="145.001" y="21" fill="#CDCCCC" width="1" height="3"/>
		<rect x="150.001" y="18" fill="#CDCCCC" width="1" height="6"/>
		<rect x="155.001" y="21" fill="#CDCCCC" width="1" height="3"/>
		<rect x="160.001" y="18" fill="#CDCCCC" width="1" height="6"/>
		<rect x="165.001" y="21" fill="#CDCCCC" width="1" height="3"/>
		<rect x="170.001" y="18" fill="#CDCCCC" width="1" height="6"/>
		<rect x="175.001" y="21" fill="#CDCCCC" width="1" height="3"/>
		<rect x="180.001" y="18" fill="#CDCCCC" width="1" height="6"/>
		<rect x="185.001" y="21" fill="#CDCCCC" width="1" height="3"/>
		<rect x="190.001" y="18" fill="#CDCCCC" width="1" height="6"/>
		<rect x="196.001" y="21" fill="#CDCCCC" width="1" height="3"/>
		<rect x="302.001" fill="#CDCCCC" width="1" height="24"/>
		<text transform="matrix(1 0 0 1 206.0366 16)" fill="#B3B4B4" font-family="'ArialMT'" font-size="9">200</text>
		<rect x="206.001" y="21" fill="#CDCCCC" width="1" height="3"/>
		<rect x="211.001" y="18" fill="#CDCCCC" width="1" height="6"/>
		<rect x="216.001" y="21" fill="#CDCCCC" width="1" height="3"/>
		<rect x="221.001" y="18" fill="#CDCCCC" width="1" height="6"/>
		<rect x="226.001" y="21" fill="#CDCCCC" width="1" height="3"/>
		<rect x="231.001" y="18" fill="#CDCCCC" width="1" height="6"/>
		<rect x="236.001" y="21" fill="#CDCCCC" width="1" height="3"/>
		<rect x="241.001" y="18" fill="#CDCCCC" width="1" height="6"/>
		<rect x="246.001" y="21" fill="#CDCCCC" width="1" height="3"/>
		<rect x="251.001" y="18" fill="#CDCCCC" width="1" height="6"/>
		<rect x="256.001" y="21" fill="#CDCCCC" width="1" height="3"/>
		<rect x="261.001" y="18" fill="#CDCCCC" width="1" height="6"/>
		<rect x="266.001" y="21" fill="#CDCCCC" width="1" height="3"/>
		<rect x="271.001" y="18" fill="#CDCCCC" width="1" height="6"/>
		<rect x="276.001" y="21" fill="#CDCCCC" width="1" height="3"/>
		<rect x="281.001" y="18" fill="#CDCCCC" width="1" height="6"/>
		<rect x="286.001" y="21" fill="#CDCCCC" width="1" height="3"/>
		<rect x="291.001" y="18" fill="#CDCCCC" width="1" height="6"/>
		<rect x="297.001" y="21" fill="#CDCCCC" width="1" height="3"/>
		<rect x="403.001" fill="#CDCCCC" width="1" height="24"/>
		<text transform="matrix(1 0 0 1 307.0366 16)" fill="#B3B4B4" font-family="'ArialMT'" font-size="9">300</text>
		<rect x="307.001" y="21" fill="#CDCCCC" width="1" height="3"/>
		<rect x="312.001" y="18" fill="#CDCCCC" width="1" height="6"/>
		<rect x="317.001" y="21" fill="#CDCCCC" width="1" height="3"/>
		<rect x="322.001" y="18" fill="#CDCCCC" width="1" height="6"/>
		<rect x="327.001" y="21" fill="#CDCCCC" width="1" height="3"/>
		<rect x="332.001" y="18" fill="#CDCCCC" width="1" height="6"/>
		<rect x="337.001" y="21" fill="#CDCCCC" width="1" height="3"/>
		<rect x="342.001" y="18" fill="#CDCCCC" width="1" height="6"/>
		<rect x="347.001" y="21" fill="#CDCCCC" width="1" height="3"/>
		<rect x="352.001" y="18" fill="#CDCCCC" width="1" height="6"/>
		<rect x="357.001" y="21" fill="#CDCCCC" width="1" height="3"/>
		<rect x="362.001" y="18" fill="#CDCCCC" width="1" height="6"/>
		<rect x="367.001" y="21" fill="#CDCCCC" width="1" height="3"/>
		<rect x="372.001" y="18" fill="#CDCCCC" width="1" height="6"/>
		<rect x="377.001" y="21" fill="#CDCCCC" width="1" height="3"/>
		<rect x="382.001" y="18" fill="#CDCCCC" width="1" height="6"/>
		<rect x="387.001" y="21" fill="#CDCCCC" width="1" height="3"/>
		<rect x="392.001" y="18" fill="#CDCCCC" width="1" height="6"/>
		<rect x="398.001" y="21" fill="#CDCCCC" width="1" height="3"/>
		<rect x="504.003" fill="#CDCCCC" width="1" height="24"/>
		<text transform="matrix(1 0 0 1 408.0386 16)" fill="#B3B4B4" font-family="'ArialMT'" font-size="9">400</text>
		<rect x="408.003" y="21" fill="#CDCCCC" width="1" height="3"/>
		<rect x="413.003" y="18" fill="#CDCCCC" width="1" height="6"/>
		<rect x="418.003" y="21" fill="#CDCCCC" width="1" height="3"/>
		<rect x="423.003" y="18" fill="#CDCCCC" width="1" height="6"/>
		<rect x="428.003" y="21" fill="#CDCCCC" width="1" height="3"/>
		<rect x="433.003" y="18" fill="#CDCCCC" width="1" height="6"/>
		<rect x="438.003" y="21" fill="#CDCCCC" width="1" height="3"/>
		<rect x="443.003" y="18" fill="#CDCCCC" width="1" height="6"/>
		<rect x="448.003" y="21" fill="#CDCCCC" width="1" height="3"/>
		<rect x="453.003" y="18" fill="#CDCCCC" width="1" height="6"/>
		<rect x="458.003" y="21" fill="#CDCCCC" width="1" height="3"/>
		<rect x="463.003" y="18" fill="#CDCCCC" width="1" height="6"/>
		<rect x="468.003" y="21" fill="#CDCCCC" width="1" height="3"/>
		<rect x="473.003" y="18" fill="#CDCCCC" width="1" height="6"/>
		<rect x="478.003" y="21" fill="#CDCCCC" width="1" height="3"/>
		<rect x="483.003" y="18" fill="#CDCCCC" width="1" height="6"/>
		<rect x="488.003" y="21" fill="#CDCCCC" width="1" height="3"/>
		<rect x="493.003" y="18" fill="#CDCCCC" width="1" height="6"/>
		<rect x="499.003" y="21" fill="#CDCCCC" width="1" height="3"/>
		<rect x="605.003" fill="#CDCCCC" width="1" height="24"/>
		<text transform="matrix(1 0 0 1 509.0386 16)" fill="#B3B4B4" font-family="'ArialMT'" font-size="9">500</text>
		<rect x="509.003" y="21" fill="#CDCCCC" width="1" height="3"/>
		<rect x="514.003" y="18" fill="#CDCCCC" width="1" height="6"/>
		<rect x="519.003" y="21" fill="#CDCCCC" width="1" height="3"/>
		<rect x="524.003" y="18" fill="#CDCCCC" width="1" height="6"/>
		<rect x="529.003" y="21" fill="#CDCCCC" width="1" height="3"/>
		<rect x="534.003" y="18" fill="#CDCCCC" width="1" height="6"/>
		<rect x="539.003" y="21" fill="#CDCCCC" width="1" height="3"/>
		<rect x="544.003" y="18" fill="#CDCCCC" width="1" height="6"/>
		<rect x="549.003" y="21" fill="#CDCCCC" width="1" height="3"/>
		<rect x="554.003" y="18" fill="#CDCCCC" width="1" height="6"/>
		<rect x="559.003" y="21" fill="#CDCCCC" width="1" height="3"/>
		<rect x="564.003" y="18" fill="#CDCCCC" width="1" height="6"/>
		<rect x="569.003" y="21" fill="#CDCCCC" width="1" height="3"/>
		<rect x="574.003" y="18" fill="#CDCCCC" width="1" height="6"/>
		<rect x="579.003" y="21" fill="#CDCCCC" width="1" height="3"/>
		<rect x="584.003" y="18" fill="#CDCCCC" width="1" height="6"/>
		<rect x="589.003" y="21" fill="#CDCCCC" width="1" height="3"/>
		<rect x="594.003" y="18" fill="#CDCCCC" width="1" height="6"/>
		<rect x="600.003" y="21" fill="#CDCCCC" width="1" height="3"/>
		<rect x="706.003" fill="#CDCCCC" width="1" height="24"/>
		<text transform="matrix(1 0 0 1 610.0386 16)" fill="#B3B4B4" font-family="'ArialMT'" font-size="9">600</text>
		<rect x="610.003" y="21" fill="#CDCCCC" width="1" height="3"/>
		<rect x="615.003" y="18" fill="#CDCCCC" width="1" height="6"/>
		<rect x="620.003" y="21" fill="#CDCCCC" width="1" height="3"/>
		<rect x="625.003" y="18" fill="#CDCCCC" width="1" height="6"/>
		<rect x="630.003" y="21" fill="#CDCCCC" width="1" height="3"/>
		<rect x="635.003" y="18" fill="#CDCCCC" width="1" height="6"/>
		<rect x="640.003" y="21" fill="#CDCCCC" width="1" height="3"/>
		<rect x="645.003" y="18" fill="#CDCCCC" width="1" height="6"/>
		<rect x="650.003" y="21" fill="#CDCCCC" width="1" height="3"/>
		<rect x="655.003" y="18" fill="#CDCCCC" width="1" height="6"/>
		<rect x="660.003" y="21" fill="#CDCCCC" width="1" height="3"/>
		<rect x="665.003" y="18" fill="#CDCCCC" width="1" height="6"/>
		<rect x="670.003" y="21" fill="#CDCCCC" width="1" height="3"/>
		<rect x="675.003" y="18" fill="#CDCCCC" width="1" height="6"/>
		<rect x="680.003" y="21" fill="#CDCCCC" width="1" height="3"/>
		<rect x="685.003" y="18" fill="#CDCCCC" width="1" height="6"/>
		<rect x="690.003" y="21" fill="#CDCCCC" width="1" height="3"/>
		<rect x="695.003" y="18" fill="#CDCCCC" width="1" height="6"/>
		<rect x="701.003" y="21" fill="#CDCCCC" width="1" height="3"/>
		<rect x="807.005" fill="#CDCCCC" width="1" height="24"/>
		<text transform="matrix(1 0 0 1 711.0405 16)" fill="#B3B4B4" font-family="'ArialMT'" font-size="9">700</text>
		<rect x="711.005" y="21" fill="#CDCCCC" width="1" height="3"/>
		<rect x="716.005" y="18" fill="#CDCCCC" width="1" height="6"/>
		<rect x="721.005" y="21" fill="#CDCCCC" width="1" height="3"/>
		<rect x="726.005" y="18" fill="#CDCCCC" width="1" height="6"/>
		<rect x="731.005" y="21" fill="#CDCCCC" width="1" height="3"/>
		<rect x="736.005" y="18" fill="#CDCCCC" width="1" height="6"/>
		<rect x="741.005" y="21" fill="#CDCCCC" width="1" height="3"/>
		<rect x="746.005" y="18" fill="#CDCCCC" width="1" height="6"/>
		<rect x="751.005" y="21" fill="#CDCCCC" width="1" height="3"/>
		<rect x="756.005" y="18" fill="#CDCCCC" width="1" height="6"/>
		<rect x="761.005" y="21" fill="#CDCCCC" width="1" height="3"/>
		<rect x="766.005" y="18" fill="#CDCCCC" width="1" height="6"/>
		<rect x="771.005" y="21" fill="#CDCCCC" width="1" height="3"/>
		<rect x="776.005" y="18" fill="#CDCCCC" width="1" height="6"/>
		<rect x="781.005" y="21" fill="#CDCCCC" width="1" height="3"/>
		<rect x="786.005" y="18" fill="#CDCCCC" width="1" height="6"/>
		<rect x="791.005" y="21" fill="#CDCCCC" width="1" height="3"/>
		<rect x="796.005" y="18" fill="#CDCCCC" width="1" height="6"/>
		<rect x="802.005" y="21" fill="#CDCCCC" width="1" height="3"/>
		<rect x="908.005" fill="#CDCCCC" width="1" height="24"/>
		<text transform="matrix(1 0 0 1 812.0405 16)" fill="#B3B4B4" font-family="'ArialMT'" font-size="9">800</text>
		<rect x="812.005" y="21" fill="#CDCCCC" width="1" height="3"/>
		<rect x="817.005" y="18" fill="#CDCCCC" width="1" height="6"/>
		<rect x="822.005" y="21" fill="#CDCCCC" width="1" height="3"/>
		<rect x="827.005" y="18" fill="#CDCCCC" width="1" height="6"/>
		<rect x="832.005" y="21" fill="#CDCCCC" width="1" height="3"/>
		<rect x="837.005" y="18" fill="#CDCCCC" width="1" height="6"/>
		<rect x="842.005" y="21" fill="#CDCCCC" width="1" height="3"/>
		<rect x="847.005" y="18" fill="#CDCCCC" width="1" height="6"/>
		<rect x="852.005" y="21" fill="#CDCCCC" width="1" height="3"/>
		<rect x="857.005" y="18" fill="#CDCCCC" width="1" height="6"/>
		<rect x="862.005" y="21" fill="#CDCCCC" width="1" height="3"/>
		<rect x="867.005" y="18" fill="#CDCCCC" width="1" height="6"/>
		<rect x="872.005" y="21" fill="#CDCCCC" width="1" height="3"/>
		<rect x="877.005" y="18" fill="#CDCCCC" width="1" height="6"/>
		<rect x="882.005" y="21" fill="#CDCCCC" width="1" height="3"/>
		<rect x="887.005" y="18" fill="#CDCCCC" width="1" height="6"/>
		<rect x="892.005" y="21" fill="#CDCCCC" width="1" height="3"/>
		<rect x="897.005" y="18" fill="#CDCCCC" width="1" height="6"/>
		<rect x="903.005" y="21" fill="#CDCCCC" width="1" height="3"/>
		<rect x="1009.005" fill="#CDCCCC" width="1" height="24"/>
		<text transform="matrix(1 0 0 1 913.0405 16)" fill="#B3B4B4" font-family="'ArialMT'" font-size="9">900</text>
		<rect x="913.005" y="21" fill="#CDCCCC" width="1" height="3"/>
		<rect x="918.005" y="18" fill="#CDCCCC" width="1" height="6"/>
		<rect x="923.005" y="21" fill="#CDCCCC" width="1" height="3"/>
		<rect x="928.005" y="18" fill="#CDCCCC" width="1" height="6"/>
		<rect x="933.005" y="21" fill="#CDCCCC" width="1" height="3"/>
		<rect x="938.005" y="18" fill="#CDCCCC" width="1" height="6"/>
		<rect x="943.005" y="21" fill="#CDCCCC" width="1" height="3"/>
		<rect x="948.005" y="18" fill="#CDCCCC" width="1" height="6"/>
		<rect x="953.005" y="21" fill="#CDCCCC" width="1" height="3"/>
		<rect x="958.005" y="18" fill="#CDCCCC" width="1" height="6"/>
		<rect x="963.005" y="21" fill="#CDCCCC" width="1" height="3"/>
		<rect x="968.005" y="18" fill="#CDCCCC" width="1" height="6"/>
		<rect x="973.005" y="21" fill="#CDCCCC" width="1" height="3"/>
		<rect x="978.005" y="18" fill="#CDCCCC" width="1" height="6"/>
		<rect x="983.005" y="21" fill="#CDCCCC" width="1" height="3"/>
		<rect x="988.005" y="18" fill="#CDCCCC" width="1" height="6"/>
		<rect x="993.005" y="21" fill="#CDCCCC" width="1" height="3"/>
		<rect x="998.005" y="18" fill="#CDCCCC" width="1" height="6"/>
		<rect x="1004.005" y="21" fill="#CDCCCC" width="1" height="3"/>
		<rect x="1110.007" fill="#CDCCCC" width="1" height="24"/>
		<text transform="matrix(1 0 0 1 1014.0425 16)" fill="#B3B4B4" font-family="'ArialMT'" font-size="9">1000</text>
		<rect x="1014.007" y="21" fill="#CDCCCC" width="1" height="3"/>
		<rect x="1019.007" y="18" fill="#CDCCCC" width="1" height="6"/>
		<rect x="1024.007" y="21" fill="#CDCCCC" width="1" height="3"/>
		<rect x="1029.007" y="18" fill="#CDCCCC" width="1" height="6"/>
		<rect x="1034.007" y="21" fill="#CDCCCC" width="1" height="3"/>
		<rect x="1039.007" y="18" fill="#CDCCCC" width="1" height="6"/>
		<rect x="1044.007" y="21" fill="#CDCCCC" width="1" height="3"/>
		<rect x="1049.007" y="18" fill="#CDCCCC" width="1" height="6"/>
		<rect x="1054.007" y="21" fill="#CDCCCC" width="1" height="3"/>
		<rect x="1059.007" y="18" fill="#CDCCCC" width="1" height="6"/>
		<rect x="1064.007" y="21" fill="#CDCCCC" width="1" height="3"/>
		<rect x="1069.007" y="18" fill="#CDCCCC" width="1" height="6"/>
		<rect x="1074.007" y="21" fill="#CDCCCC" width="1" height="3"/>
		<rect x="1079.007" y="18" fill="#CDCCCC" width="1" height="6"/>
		<rect x="1084.007" y="21" fill="#CDCCCC" width="1" height="3"/>
		<rect x="1089.007" y="18" fill="#CDCCCC" width="1" height="6"/>
		<rect x="1094.007" y="21" fill="#CDCCCC" width="1" height="3"/>
		<rect x="1099.007" y="18" fill="#CDCCCC" width="1" height="6"/>
		<rect x="1105.007" y="21" fill="#CDCCCC" width="1" height="3"/>
		<text transform="matrix(1 0 0 1 1115.0425 16)" fill="#B3B4B4" font-family="'ArialMT'" font-size="9">1100</text>
		<rect x="1115.007" y="21" fill="#CDCCCC" width="1" height="3"/>
		<rect x="1120.007" y="18" fill="#CDCCCC" width="1" height="6"/>
		<rect x="1125.007" y="21" fill="#CDCCCC" width="1" height="3"/>
		<rect x="1130.007" y="18" fill="#CDCCCC" width="1" height="6"/>
		<rect x="1135.007" y="21" fill="#CDCCCC" width="1" height="3"/>
		<rect x="1140.007" y="18" fill="#CDCCCC" width="1" height="6"/>
		<rect x="1145.007" y="21" fill="#CDCCCC" width="1" height="3"/>
		<rect x="1150.007" y="18" fill="#CDCCCC" width="1" height="6"/>
		<rect x="1155.007" y="21" fill="#CDCCCC" width="1" height="3"/>
		<rect x="1160.007" y="18" fill="#CDCCCC" width="1" height="6"/>
		<rect x="1165.007" y="21" fill="#CDCCCC" width="1" height="3"/>
		<rect x="1170.007" y="18" fill="#CDCCCC" width="1" height="6"/>
		<rect x="1175.007" y="21" fill="#CDCCCC" width="1" height="3"/>
		<g>
			<rect x="1311.023" fill="#CDCCCC" width="1" height="24"/>
			<text transform="matrix(1 0 0 1 1215.0586 16)" fill="#B3B4B4" font-family="'ArialMT'" font-size="9">1200</text>
			<rect x="1215.023" y="21" fill="#CDCCCC" width="1" height="3"/>
			<rect x="1220.023" y="18" fill="#CDCCCC" width="1" height="6"/>
			<rect x="1225.023" y="21" fill="#CDCCCC" width="1" height="3"/>
			<rect x="1230.023" y="18" fill="#CDCCCC" width="1" height="6"/>
			<rect x="1235.023" y="21" fill="#CDCCCC" width="1" height="3"/>
			<rect x="1240.023" y="18" fill="#CDCCCC" width="1" height="6"/>
			<rect x="1245.023" y="21" fill="#CDCCCC" width="1" height="3"/>
			<rect x="1250.023" y="18" fill="#CDCCCC" width="1" height="6"/>
			<rect x="1255.023" y="21" fill="#CDCCCC" width="1" height="3"/>
			<rect x="1260.023" y="18" fill="#CDCCCC" width="1" height="6"/>
			<rect x="1265.023" y="21" fill="#CDCCCC" width="1" height="3"/>
			<rect x="1270.023" y="18" fill="#CDCCCC" width="1" height="6"/>
			<rect x="1275.023" y="21" fill="#CDCCCC" width="1" height="3"/>
			<rect x="1280.023" y="18" fill="#CDCCCC" width="1" height="6"/>
			<rect x="1285.023" y="21" fill="#CDCCCC" width="1" height="3"/>
			<rect x="1290.023" y="18" fill="#CDCCCC" width="1" height="6"/>
			<rect x="1295.023" y="21" fill="#CDCCCC" width="1" height="3"/>
			<rect x="1300.023" y="18" fill="#CDCCCC" width="1" height="6"/>
			<rect x="1306.023" y="21" fill="#CDCCCC" width="1" height="3"/>
			<rect x="1412.025" fill="#CDCCCC" width="1" height="24"/>
			<text transform="matrix(1 0 0 1 1316.0605 16)" fill="#B3B4B4" font-family="'ArialMT'" font-size="9">1300</text>
			<rect x="1316.025" y="21" fill="#CDCCCC" width="1" height="3"/>
			<rect x="1321.025" y="18" fill="#CDCCCC" width="1" height="6"/>
			<rect x="1326.025" y="21" fill="#CDCCCC" width="1" height="3"/>
			<rect x="1331.025" y="18" fill="#CDCCCC" width="1" height="6"/>
			<rect x="1336.025" y="21" fill="#CDCCCC" width="1" height="3"/>
			<rect x="1341.025" y="18" fill="#CDCCCC" width="1" height="6"/>
			<rect x="1346.025" y="21" fill="#CDCCCC" width="1" height="3"/>
			<rect x="1351.025" y="18" fill="#CDCCCC" width="1" height="6"/>
			<rect x="1356.025" y="21" fill="#CDCCCC" width="1" height="3"/>
			<rect x="1361.025" y="18" fill="#CDCCCC" width="1" height="6"/>
			<rect x="1366.025" y="21" fill="#CDCCCC" width="1" height="3"/>
			<rect x="1371.025" y="18" fill="#CDCCCC" width="1" height="6"/>
			<rect x="1376.025" y="21" fill="#CDCCCC" width="1" height="3"/>
			<rect x="1381.025" y="18" fill="#CDCCCC" width="1" height="6"/>
			<rect x="1386.025" y="21" fill="#CDCCCC" width="1" height="3"/>
			<rect x="1391.025" y="18" fill="#CDCCCC" width="1" height="6"/>
			<rect x="1396.025" y="21" fill="#CDCCCC" width="1" height="3"/>
			<rect x="1401.025" y="18" fill="#CDCCCC" width="1" height="6"/>
			<rect x="1407.025" y="21" fill="#CDCCCC" width="1" height="3"/>
			<rect x="1513.025" fill="#CDCCCC" width="1" height="24"/>
			<text transform="matrix(1 0 0 1 1417.0605 16)" fill="#B3B4B4" font-family="'ArialMT'" font-size="9">1400</text>
			<rect x="1417.025" y="21" fill="#CDCCCC" width="1" height="3"/>
			<rect x="1422.025" y="18" fill="#CDCCCC" width="1" height="6"/>
			<rect x="1427.025" y="21" fill="#CDCCCC" width="1" height="3"/>
			<rect x="1432.025" y="18" fill="#CDCCCC" width="1" height="6"/>
			<rect x="1437.025" y="21" fill="#CDCCCC" width="1" height="3"/>
			<rect x="1442.025" y="18" fill="#CDCCCC" width="1" height="6"/>
			<rect x="1447.025" y="21" fill="#CDCCCC" width="1" height="3"/>
			<rect x="1452.025" y="18" fill="#CDCCCC" width="1" height="6"/>
			<rect x="1457.025" y="21" fill="#CDCCCC" width="1" height="3"/>
			<rect x="1462.025" y="18" fill="#CDCCCC" width="1" height="6"/>
			<rect x="1467.025" y="21" fill="#CDCCCC" width="1" height="3"/>
			<rect x="1472.025" y="18" fill="#CDCCCC" width="1" height="6"/>
			<rect x="1477.025" y="21" fill="#CDCCCC" width="1" height="3"/>
			<rect x="1482.025" y="18" fill="#CDCCCC" width="1" height="6"/>
			<rect x="1487.025" y="21" fill="#CDCCCC" width="1" height="3"/>
			<rect x="1492.025" y="18" fill="#CDCCCC" width="1" height="6"/>
			<rect x="1497.025" y="21" fill="#CDCCCC" width="1" height="3"/>
			<rect x="1502.025" y="18" fill="#CDCCCC" width="1" height="6"/>
			<rect x="1508.025" y="21" fill="#CDCCCC" width="1" height="3"/>
			<rect x="1614.025" fill="#CDCCCC" width="1" height="24"/>
			<text transform="matrix(1 0 0 1 1518.0605 16)" fill="#B3B4B4" font-family="'ArialMT'" font-size="9">1500</text>
			<rect x="1518.025" y="21" fill="#CDCCCC" width="1" height="3"/>
			<rect x="1523.025" y="18" fill="#CDCCCC" width="1" height="6"/>
			<rect x="1528.025" y="21" fill="#CDCCCC" width="1" height="3"/>
			<rect x="1533.025" y="18" fill="#CDCCCC" width="1" height="6"/>
			<rect x="1538.025" y="21" fill="#CDCCCC" width="1" height="3"/>
			<rect x="1543.025" y="18" fill="#CDCCCC" width="1" height="6"/>
			<rect x="1548.025" y="21" fill="#CDCCCC" width="1" height="3"/>
			<rect x="1553.025" y="18" fill="#CDCCCC" width="1" height="6"/>
			<rect x="1558.025" y="21" fill="#CDCCCC" width="1" height="3"/>
			<rect x="1563.025" y="18" fill="#CDCCCC" width="1" height="6"/>
			<rect x="1568.025" y="21" fill="#CDCCCC" width="1" height="3"/>
			<rect x="1573.025" y="18" fill="#CDCCCC" width="1" height="6"/>
			<rect x="1578.025" y="21" fill="#CDCCCC" width="1" height="3"/>
			<rect x="1583.025" y="18" fill="#CDCCCC" width="1" height="6"/>
			<rect x="1588.025" y="21" fill="#CDCCCC" width="1" height="3"/>
			<rect x="1593.025" y="18" fill="#CDCCCC" width="1" height="6"/>
			<rect x="1598.025" y="21" fill="#CDCCCC" width="1" height="3"/>
			<rect x="1603.025" y="18" fill="#CDCCCC" width="1" height="6"/>
			<rect x="1609.025" y="21" fill="#CDCCCC" width="1" height="3"/>
			<rect x="1715.027" fill="#CDCCCC" width="1" height="24"/>
			<text transform="matrix(1 0 0 1 1619.0625 16)" fill="#B3B4B4" font-family="'ArialMT'" font-size="9">1600</text>
			<rect x="1619.027" y="21" fill="#CDCCCC" width="1" height="3"/>
			<rect x="1624.027" y="18" fill="#CDCCCC" width="1" height="6"/>
			<rect x="1629.027" y="21" fill="#CDCCCC" width="1" height="3"/>
			<rect x="1634.027" y="18" fill="#CDCCCC" width="1" height="6"/>
			<rect x="1639.027" y="21" fill="#CDCCCC" width="1" height="3"/>
			<rect x="1644.027" y="18" fill="#CDCCCC" width="1" height="6"/>
			<rect x="1649.027" y="21" fill="#CDCCCC" width="1" height="3"/>
			<rect x="1654.027" y="18" fill="#CDCCCC" width="1" height="6"/>
			<rect x="1659.027" y="21" fill="#CDCCCC" width="1" height="3"/>
			<rect x="1664.027" y="18" fill="#CDCCCC" width="1" height="6"/>
			<rect x="1669.027" y="21" fill="#CDCCCC" width="1" height="3"/>
			<rect x="1674.027" y="18" fill="#CDCCCC" width="1" height="6"/>
			<rect x="1679.027" y="21" fill="#CDCCCC" width="1" height="3"/>
			<rect x="1684.027" y="18" fill="#CDCCCC" width="1" height="6"/>
			<rect x="1689.027" y="21" fill="#CDCCCC" width="1" height="3"/>
			<rect x="1694.027" y="18" fill="#CDCCCC" width="1" height="6"/>
			<rect x="1699.027" y="21" fill="#CDCCCC" width="1" height="3"/>
			<rect x="1704.027" y="18" fill="#CDCCCC" width="1" height="6"/>
			<rect x="1710.027" y="21" fill="#CDCCCC" width="1" height="3"/>
			<rect x="1816.027" fill="#CDCCCC" width="1" height="24"/>
			<text transform="matrix(1 0 0 1 1720.0625 16)" fill="#B3B4B4" font-family="'ArialMT'" font-size="9">1700</text>
			<rect x="1720.027" y="21" fill="#CDCCCC" width="1" height="3"/>
			<rect x="1725.027" y="18" fill="#CDCCCC" width="1" height="6"/>
			<rect x="1730.027" y="21" fill="#CDCCCC" width="1" height="3"/>
			<rect x="1735.027" y="18" fill="#CDCCCC" width="1" height="6"/>
			<rect x="1740.027" y="21" fill="#CDCCCC" width="1" height="3"/>
			<rect x="1745.027" y="18" fill="#CDCCCC" width="1" height="6"/>
			<rect x="1750.027" y="21" fill="#CDCCCC" width="1" height="3"/>
			<rect x="1755.027" y="18" fill="#CDCCCC" width="1" height="6"/>
			<rect x="1760.027" y="21" fill="#CDCCCC" width="1" height="3"/>
			<rect x="1765.027" y="18" fill="#CDCCCC" width="1" height="6"/>
			<rect x="1770.027" y="21" fill="#CDCCCC" width="1" height="3"/>
			<rect x="1775.027" y="18" fill="#CDCCCC" width="1" height="6"/>
			<rect x="1780.027" y="21" fill="#CDCCCC" width="1" height="3"/>
			<rect x="1785.027" y="18" fill="#CDCCCC" width="1" height="6"/>
			<rect x="1790.027" y="21" fill="#CDCCCC" width="1" height="3"/>
			<rect x="1795.027" y="18" fill="#CDCCCC" width="1" height="6"/>
			<rect x="1800.027" y="21" fill="#CDCCCC" width="1" height="3"/>
			<rect x="1805.027" y="18" fill="#CDCCCC" width="1" height="6"/>
			<rect x="1811.027" y="21" fill="#CDCCCC" width="1" height="3"/>
			<rect x="1917.027" fill="#CDCCCC" width="1" height="24"/>
			<text transform="matrix(1 0 0 1 1821.0625 16)" fill="#B3B4B4" font-family="'ArialMT'" font-size="9">1800</text>
			<rect x="1821.027" y="21" fill="#CDCCCC" width="1" height="3"/>
			<rect x="1826.027" y="18" fill="#CDCCCC" width="1" height="6"/>
			<rect x="1831.027" y="21" fill="#CDCCCC" width="1" height="3"/>
			<rect x="1836.027" y="18" fill="#CDCCCC" width="1" height="6"/>
			<rect x="1841.027" y="21" fill="#CDCCCC" width="1" height="3"/>
			<rect x="1846.027" y="18" fill="#CDCCCC" width="1" height="6"/>
			<rect x="1851.027" y="21" fill="#CDCCCC" width="1" height="3"/>
			<rect x="1856.027" y="18" fill="#CDCCCC" width="1" height="6"/>
			<rect x="1861.027" y="21" fill="#CDCCCC" width="1" height="3"/>
			<rect x="1866.027" y="18" fill="#CDCCCC" width="1" height="6"/>
			<rect x="1871.027" y="21" fill="#CDCCCC" width="1" height="3"/>
			<rect x="1876.027" y="18" fill="#CDCCCC" width="1" height="6"/>
			<rect x="1881.027" y="21" fill="#CDCCCC" width="1" height="3"/>
			<rect x="1886.027" y="18" fill="#CDCCCC" width="1" height="6"/>
			<rect x="1891.027" y="21" fill="#CDCCCC" width="1" height="3"/>
			<rect x="1896.027" y="18" fill="#CDCCCC" width="1" height="6"/>
			<rect x="1901.027" y="21" fill="#CDCCCC" width="1" height="3"/>
			<rect x="1906.027" y="18" fill="#CDCCCC" width="1" height="6"/>
			<rect x="1912.027" y="21" fill="#CDCCCC" width="1" height="3"/>
			<rect x="2018.029" fill="#CDCCCC" width="1" height="24"/>
			<text transform="matrix(1 0 0 1 1922.0645 16)" fill="#B3B4B4" font-family="'ArialMT'" font-size="9">1900</text>
			<rect x="1922.029" y="21" fill="#CDCCCC" width="1" height="3"/>
			<rect x="1927.029" y="18" fill="#CDCCCC" width="1" height="6"/>
			<rect x="1932.029" y="21" fill="#CDCCCC" width="1" height="3"/>
			<rect x="1937.029" y="18" fill="#CDCCCC" width="1" height="6"/>
			<rect x="1942.029" y="21" fill="#CDCCCC" width="1" height="3"/>
			<rect x="1947.029" y="18" fill="#CDCCCC" width="1" height="6"/>
			<rect x="1952.029" y="21" fill="#CDCCCC" width="1" height="3"/>
			<rect x="1957.029" y="18" fill="#CDCCCC" width="1" height="6"/>
			<rect x="1962.029" y="21" fill="#CDCCCC" width="1" height="3"/>
			<rect x="1967.029" y="18" fill="#CDCCCC" width="1" height="6"/>
			<rect x="1972.029" y="21" fill="#CDCCCC" width="1" height="3"/>
			<rect x="1977.029" y="18" fill="#CDCCCC" width="1" height="6"/>
			<rect x="1982.029" y="21" fill="#CDCCCC" width="1" height="3"/>
			<rect x="1987.029" y="18" fill="#CDCCCC" width="1" height="6"/>
			<rect x="1992.029" y="21" fill="#CDCCCC" width="1" height="3"/>
			<rect x="1997.029" y="18" fill="#CDCCCC" width="1" height="6"/>
			<rect x="2002.029" y="21" fill="#CDCCCC" width="1" height="3"/>
			<rect x="2007.029" y="18" fill="#CDCCCC" width="1" height="6"/>
			<rect x="2013.029" y="21" fill="#CDCCCC" width="1" height="3"/>
			<rect x="2119.029" fill="#CDCCCC" width="1" height="24"/>
			<text transform="matrix(1 0 0 1 2023.0645 16)" fill="#B3B4B4" font-family="'ArialMT'" font-size="9">2000</text>
			<rect x="2023.029" y="21" fill="#CDCCCC" width="1" height="3"/>
			<rect x="2028.029" y="18" fill="#CDCCCC" width="1" height="6"/>
			<rect x="2033.029" y="21" fill="#CDCCCC" width="1" height="3"/>
			<rect x="2038.029" y="18" fill="#CDCCCC" width="1" height="6"/>
			<rect x="2043.029" y="21" fill="#CDCCCC" width="1" height="3"/>
			<rect x="2048.029" y="18" fill="#CDCCCC" width="1" height="6"/>
			<rect x="2053.029" y="21" fill="#CDCCCC" width="1" height="3"/>
			<rect x="2058.029" y="18" fill="#CDCCCC" width="1" height="6"/>
			<rect x="2063.029" y="21" fill="#CDCCCC" width="1" height="3"/>
			<rect x="2068.029" y="18" fill="#CDCCCC" width="1" height="6"/>
			<rect x="2073.029" y="21" fill="#CDCCCC" width="1" height="3"/>
			<rect x="2078.029" y="18" fill="#CDCCCC" width="1" height="6"/>
			<rect x="2083.029" y="21" fill="#CDCCCC" width="1" height="3"/>
			<rect x="2088.029" y="18" fill="#CDCCCC" width="1" height="6"/>
			<rect x="2093.029" y="21" fill="#CDCCCC" width="1" height="3"/>
			<rect x="2098.029" y="18" fill="#CDCCCC" width="1" height="6"/>
			<rect x="2103.029" y="21" fill="#CDCCCC" width="1" height="3"/>
			<rect x="2108.029" y="18" fill="#CDCCCC" width="1" height="6"/>
			<rect x="2114.029" y="21" fill="#CDCCCC" width="1" height="3"/>
			<rect x="2220.029" fill="#CDCCCC" width="1" height="24"/>
			<text transform="matrix(1 0 0 1 2124.0645 16)" fill="#B3B4B4" font-family="'ArialMT'" font-size="9">2100</text>
			<rect x="2124.029" y="21" fill="#CDCCCC" width="1" height="3"/>
			<rect x="2129.029" y="18" fill="#CDCCCC" width="1" height="6"/>
			<rect x="2134.029" y="21" fill="#CDCCCC" width="1" height="3"/>
			<rect x="2139.029" y="18" fill="#CDCCCC" width="1" height="6"/>
			<rect x="2144.029" y="21" fill="#CDCCCC" width="1" height="3"/>
			<rect x="2149.029" y="18" fill="#CDCCCC" width="1" height="6"/>
			<rect x="2154.029" y="21" fill="#CDCCCC" width="1" height="3"/>
			<rect x="2159.029" y="18" fill="#CDCCCC" width="1" height="6"/>
			<rect x="2164.029" y="21" fill="#CDCCCC" width="1" height="3"/>
			<rect x="2169.029" y="18" fill="#CDCCCC" width="1" height="6"/>
			<rect x="2174.029" y="21" fill="#CDCCCC" width="1" height="3"/>
			<rect x="2179.029" y="18" fill="#CDCCCC" width="1" height="6"/>
			<rect x="2184.029" y="21" fill="#CDCCCC" width="1" height="3"/>
			<rect x="2189.029" y="18" fill="#CDCCCC" width="1" height="6"/>
			<rect x="2194.029" y="21" fill="#CDCCCC" width="1" height="3"/>
			<rect x="2199.029" y="18" fill="#CDCCCC" width="1" height="6"/>
			<rect x="2204.029" y="21" fill="#CDCCCC" width="1" height="3"/>
			<rect x="2209.029" y="18" fill="#CDCCCC" width="1" height="6"/>
			<rect x="2215.029" y="21" fill="#CDCCCC" width="1" height="3"/>
			<rect x="2321.031" fill="#CDCCCC" width="1" height="24"/>
			<text transform="matrix(1 0 0 1 2225.0664 16)" fill="#B3B4B4" font-family="'ArialMT'" font-size="9">2200</text>
			<rect x="2225.031" y="21" fill="#CDCCCC" width="1" height="3"/>
			<rect x="2230.031" y="18" fill="#CDCCCC" width="1" height="6"/>
			<rect x="2235.031" y="21" fill="#CDCCCC" width="1" height="3"/>
			<rect x="2240.031" y="18" fill="#CDCCCC" width="1" height="6"/>
			<rect x="2245.031" y="21" fill="#CDCCCC" width="1" height="3"/>
			<rect x="2250.031" y="18" fill="#CDCCCC" width="1" height="6"/>
			<rect x="2255.031" y="21" fill="#CDCCCC" width="1" height="3"/>
			<rect x="2260.031" y="18" fill="#CDCCCC" width="1" height="6"/>
			<rect x="2265.031" y="21" fill="#CDCCCC" width="1" height="3"/>
			<rect x="2270.031" y="18" fill="#CDCCCC" width="1" height="6"/>
			<rect x="2275.031" y="21" fill="#CDCCCC" width="1" height="3"/>
			<rect x="2280.031" y="18" fill="#CDCCCC" width="1" height="6"/>
			<rect x="2285.031" y="21" fill="#CDCCCC" width="1" height="3"/>
			<rect x="2290.031" y="18" fill="#CDCCCC" width="1" height="6"/>
			<rect x="2295.031" y="21" fill="#CDCCCC" width="1" height="3"/>
			<rect x="2300.031" y="18" fill="#CDCCCC" width="1" height="6"/>
			<rect x="2305.031" y="21" fill="#CDCCCC" width="1" height="3"/>
			<rect x="2310.031" y="18" fill="#CDCCCC" width="1" height="6"/>
			<rect x="2316.031" y="21" fill="#CDCCCC" width="1" height="3"/>
			<text transform="matrix(1 0 0 1 2326.0664 16)" fill="#B3B4B4" font-family="'ArialMT'" font-size="9">2300</text>
			<rect x="2326.031" y="21" fill="#CDCCCC" width="1" height="3"/>
			<rect x="2331.031" y="18" fill="#CDCCCC" width="1" height="6"/>
			<rect x="2336.031" y="21" fill="#CDCCCC" width="1" height="3"/>
			<rect x="2341.031" y="18" fill="#CDCCCC" width="1" height="6"/>
			<rect x="2346.031" y="21" fill="#CDCCCC" width="1" height="3"/>
			<rect x="2351.031" y="18" fill="#CDCCCC" width="1" height="6"/>
			<rect x="2356.031" y="21" fill="#CDCCCC" width="1" height="3"/>
			<rect x="2361.031" y="18" fill="#CDCCCC" width="1" height="6"/>
			<rect x="2366.031" y="21" fill="#CDCCCC" width="1" height="3"/>
			<rect x="2371.031" y="18" fill="#CDCCCC" width="1" height="6"/>
			<rect x="2376.031" y="21" fill="#CDCCCC" width="1" height="3"/>
			<rect x="2381.031" y="18" fill="#CDCCCC" width="1" height="6"/>
			<rect x="2386.031" y="21" fill="#CDCCCC" width="1" height="3"/>
		</g>
		<rect x="1210.023" fill="#CDCCCC" width="1" height="24"/>
		<rect x="1180.015" y="18" fill="#CDCCCC" width="1" height="6"/>
		<rect x="1184.991" y="21" fill="#CDCCCC" width="1" height="3"/>
		<rect x="1190.007" y="18" fill="#CDCCCC" width="1" height="6"/>
		<rect x="1194.991" y="21" fill="#CDCCCC" width="1.001" height="3"/>
		<rect x="1199.992" y="18" fill="#CDCCCC" width="1" height="6"/>
		<rect x="1204.992" y="21" fill="#CDCCCC" width="1" height="3"/>
	</g>
</g>
</svg>
