<?xml version="1.0" encoding="utf-8"?>
<!-- Generator: Adobe Illustrator 16.0.0, SVG Export Plug-In . SVG Version: 6.00 Build 0)  -->
<!DOCTYPE svg PUBLIC "-//W3C//DTD SVG 1.1//EN" "http://www.w3.org/Graphics/SVG/1.1/DTD/svg11.dtd">
<svg version="1.1" id="Layer_1" xmlns="http://www.w3.org/2000/svg" xmlns:xlink="http://www.w3.org/1999/xlink" x="0px" y="0px"
	 width="12px" height="12px" viewBox="0 0 12 12" enable-background="new 0 0 12 12" xml:space="preserve">
<g>
	<g>
		<defs>
			<rect id="SVGID_1_" width="12" height="12"/>
		</defs>
		<clipPath id="SVGID_2_">
			<use xlink:href="#SVGID_1_"  overflow="visible"/>
		</clipPath>
		<path clip-path="url(#SVGID_2_)" fill-rule="evenodd" clip-rule="evenodd" fill="#919090" d="M11.67,10.25l-2.6-2.598
			C9.057,7.64,9.042,7.629,9.026,7.616c0.512-0.774,0.812-1.703,0.812-2.701C9.838,2.201,7.635,0,4.92,0C2.202,0,0,2.201,0,4.915
			C0,7.63,2.202,9.831,4.92,9.831c0.996,0,1.924-0.298,2.699-0.81c0.016,0.014,0.023,0.031,0.039,0.045l2.598,2.597
			c0.391,0.39,1.022,0.39,1.414,0C12.061,11.273,12.061,10.641,11.67,10.25L11.67,10.25z M4.92,8.127
			c-1.775,0-3.215-1.438-3.215-3.212S3.145,1.704,4.92,1.704c1.773,0,3.213,1.438,3.213,3.211S6.693,8.127,4.92,8.127L4.92,8.127z
			 M4.92,8.127"/>
	</g>
</g>
</svg>
