<svg xmlns="http://www.w3.org/2000/svg" xmlns:xlink="http://www.w3.org/1999/xlink" width="19.31" height="15.8" viewBox="0 0 19.31 15.8"><symbol id="a" viewBox="-38.091 -45.938 75.182 91.875"><path fill="#9B9A9A" d="M-33.388-43.938c0-1.1-.899-2-2-2h-.703c-1.101 0-2 .9-2 2v87.875c0 1.1.899 2 2 2h.703c1.101 0 2-.9 2-2v-87.875zM37.091 9.795c0-1.1-.9-2-2-2h-50.865c-1.101 0-2 .9-2 2v15.666c0 1.101.899 2 2 2h50.865c1.1 0 2-.899 2-2V9.795z"/><path fill="none" stroke="#9B9A9A" stroke-width="5" stroke-miterlimit="10" d="M14.093-25.141c0-1.1-.9-2-2-2h-27.867c-1.101 0-2 .9-2 2v15.666c0 1.1.899 2 2 2h27.867c1.1 0 2-.9 2-2v-15.666z"/></symbol><use xlink:href="#a" width="75.182" height="91.875" x="-38.091" y="-45.938" transform="rotate(-90 8.725 -.93) scale(.2102)" overflow="visible"/></svg>