<svg xmlns="http://www.w3.org/2000/svg" width="18.1" height="18.1" viewBox="0 0 18.1 18.1"><path fill="none" stroke="#9B9A9A" stroke-width="1.051" stroke-miterlimit="10" d="M17.55 17.13c0 .23-.19.42-.42.42H8.57a.42.42 0 0 1-.42-.42V8.66c0-.232.188-.42.42-.42h8.56c.23 0 .42.188.42.42v8.47z"/><path fill="#9B9A9A" d="M13.75 13.286c0 .23-.19.42-.42.42H4.77a.42.42 0 0 1-.42-.42V4.814c0-.23.19-.42.42-.42h8.56c.23 0 .42.19.42.42v8.472z"/><path fill="none" stroke="#9A9A99" stroke-width="1.051" stroke-miterlimit="10" d="M13.75 13.286c0 .23-.19.42-.42.42H4.77a.42.42 0 0 1-.42-.42V4.814c0-.23.19-.42.42-.42h8.56c.23 0 .42.19.42.42v8.472z"/><g><path fill="#F4F6F7" d="M9.95 9.442c0 .23-.188.42-.42.42H.97a.42.42 0 0 1-.42-.42V.97C.55.74.74.55.97.55h8.56c.232 0 .42.19.42.42v8.472z"/><path fill="none" stroke="#9B9A9A" stroke-width="1.051" stroke-miterlimit="10" d="M9.95 9.442c0 .23-.188.42-.42.42H.97a.42.42 0 0 1-.42-.42V.97C.55.74.74.55.97.55h8.56c.232 0 .42.19.42.42v8.472z"/></g></svg>