<svg xmlns="http://www.w3.org/2000/svg" width="14.91" height="14.91" viewBox="0 0 14.91 14.91"><path fill="#65C6BB" d="M14.162.746c-.484-.482-1.125-.748-1.809-.748s-1.324.266-1.809.748L7.08 4.211a1.516 1.516 0 0 0-1.842 2.058L1 10.508a.539.539 0 0 0-.158.4l.063 1.646-.826 1.343a.536.536 0 0 0 .078.659l.199.2a.54.54 0 0 0 .662.076l1.342-.83 1.64.063a.549.549 0 0 0 .4-.155l4.24-4.242c.191.087.402.131.615.131.404 0 .783-.156 1.07-.442.396-.398.539-.993.369-1.528l3.467-3.465a2.56 2.56 0 0 0 .001-3.618zM4.168 12.393l-2.098-.852 4.148-4.149 1.299 1.297-3.349 3.704z"/></svg>