<svg xmlns="http://www.w3.org/2000/svg" xmlns:xlink="http://www.w3.org/1999/xlink" width="30.64" height="25" viewBox="0 0 30.64 25"><defs><path id="a" d="M.002 0h30.634v25H.002z"/></defs><clipPath id="b"><use xlink:href="#a" overflow="visible"/></clipPath><path clip-path="url(#b)" fill="#9B9A9A" d="M29.846-.004H.809a.807.807 0 0 0-.807.807V24.19c0 .445.361.807.807.807h29.037a.807.807 0 0 0 .807-.807V.803a.808.808 0 0 0-.807-.807zm-2.235 21.957H3.045V3.038h24.566v18.915zm0 0"/><path fill="#9B9A9A" d="M6.096 20.021h18.462a.75.75 0 0 0 .748-.748v-4.287a.748.748 0 0 0-.213-.523l-2.055-2.105a.748.748 0 0 0-1.035-.034L18.131 15.8l-6.689-6.07a.748.748 0 0 0-.965-.034l-4.842 3.799a.745.745 0 0 0-.285.588v5.191c0 .412.334.747.746.747zm0 0"/><path fill="#9B9A9A" d="M18.359 13.127c.928 0 1.682-.754 1.682-1.68a1.682 1.682 0 0 0-3.362 0c.001.926.755 1.68 1.68 1.68zm0 0"/></svg>