<svg xmlns="http://www.w3.org/2000/svg" width="22" height="21" viewBox="0 0 22 21"><g fill="#428CBB"><path d="M21.236 1h-5.938a.77.77 0 0 0-.764.777v.332c0 .428.343.775.764.775h4.846v4.922c0 .43.342.776.766.776h.326A.77.77 0 0 0 22 7.808v-6.03A.77.77 0 0 0 21.236 1zm0 0M7.677 1h-5.94a.77.77 0 0 0-.762.777v6.03c0 .43.34.776.764.776h.326a.77.77 0 0 0 .765-.776v-4.92H7.68a.77.77 0 0 0 .763-.777v-.333A.773.773 0 0 0 7.678 1zm0 0M7.677 19.115H2.83v-4.922a.77.77 0 0 0-.765-.776h-.327a.77.77 0 0 0-.764.776v6.03c0 .43.34.777.764.777h5.938a.77.77 0 0 0 .763-.775v-.333a.77.77 0 0 0-.763-.777zm0 0M21.236 13.417h-.326a.77.77 0 0 0-.766.776v4.922h-4.846a.77.77 0 0 0-.764.776v.334a.77.77 0 0 0 .764.775h5.938a.77.77 0 0 0 .764-.775v-6.03a.772.772 0 0 0-.764-.778zm0 0M13.525 10.06h-1.11V8.93a.77.77 0 0 0-.764-.775h-.326a.77.77 0 0 0-.766.775v1.13h-1.11a.773.773 0 0 0-.765.774v.333c0 .43.345.776.766.776h1.108v1.127c0 .43.343.777.766.777h.327a.77.77 0 0 0 .766-.777v-1.127h1.11a.77.77 0 0 0 .763-.776v-.333a.77.77 0 0 0-.765-.775zm0 0"/></g><g fill="#FFF"><path d="M20.262 0h-5.938a.77.77 0 0 0-.763.777v.332c0 .428.343.775.764.775h4.847v4.922c0 .43.343.776.766.776h.327a.77.77 0 0 0 .764-.776V.777A.773.773 0 0 0 20.262 0zm0 0M6.7 0H.765A.77.77 0 0 0 0 .777v6.03c0 .43.34.776.764.776h.326a.77.77 0 0 0 .766-.776v-4.92h4.846a.77.77 0 0 0 .764-.777V.777A.773.773 0 0 0 6.7 0zm0 0M6.7 18.115H1.856v-4.922a.77.77 0 0 0-.766-.776H.763a.77.77 0 0 0-.764.776v6.03c0 .43.34.777.764.777h5.938a.77.77 0 0 0 .764-.775v-.333a.773.773 0 0 0-.765-.777zm0 0M20.262 12.417h-.327a.77.77 0 0 0-.765.776v4.922h-4.847a.77.77 0 0 0-.763.776v.334a.77.77 0 0 0 .763.775h5.938a.77.77 0 0 0 .765-.776v-6.03a.77.77 0 0 0-.763-.777zm0 0M12.55 9.06h-1.108V7.93a.77.77 0 0 0-.766-.775h-.327a.77.77 0 0 0-.766.775v1.13h-1.11a.77.77 0 0 0-.764.774v.333c0 .43.343.776.765.776h1.11v1.127c0 .43.34.777.764.777h.326a.772.772 0 0 0 .766-.777v-1.127h1.11a.77.77 0 0 0 .763-.776v-.333a.77.77 0 0 0-.764-.775zm0 0"/></g></svg>