<svg xmlns="http://www.w3.org/2000/svg" width="41.3" height="9" viewBox="0 0 41.3 9"><g fill="#9B9A9A"><path d="M2.527 6.857a2.305 2.305 0 0 1-1.822-.832 2.827 2.827 0 0 1-.521-.972c-.123-.381-.185-.809-.185-1.282s.062-.898.185-1.273c.122-.376.296-.693.521-.955.225-.261.492-.461.801-.599.31-.138.649-.207 1.021-.207.366 0 .704.071 1.013.212s.576.342.801.604c.226.26.399.578.522.953s.185.797.185 1.265c0 .474-.062.901-.185 1.282s-.297.705-.522.972c-.225.267-.492.473-.801.617s-.646.215-1.013.215zm0-.656c.265 0 .503-.058.716-.172.213-.113.396-.277.549-.49s.271-.469.355-.766.126-.631.126-1.003c0-.366-.042-.696-.126-.99s-.202-.542-.355-.747a1.524 1.524 0 0 0-1.265-.638c-.264 0-.504.056-.72.166-.216.111-.4.27-.554.473-.151.204-.271.452-.355.746s-.126.624-.126.99c0 .372.042.706.126 1.003s.203.553.355.766c.153.213.338.377.554.49.216.115.457.172.72.172zM6.389 2.375H7l.063.631h.027c.21-.211.43-.386.661-.527.23-.141.499-.211.806-.211.462 0 .799.145 1.013.432.213.287.32.714.32 1.278V6.75h-.739V4.076c0-.414-.066-.712-.198-.895-.132-.184-.342-.275-.63-.275-.228 0-.429.057-.603.172a3.845 3.845 0 0 0-.594.504V6.75h-.737V2.375zM11.149 4.571c0-.36.056-.683.166-.968.111-.284.259-.525.441-.725.183-.197.392-.349.626-.454.233-.104.477-.157.729-.157.276 0 .523.048.742.145.22.096.402.233.55.414.146.18.259.396.337.647s.117.534.117.846c0 .162-.009.298-.027.405h-2.952c.03.475.176.85.437 1.125.262.275.602.414 1.021.414.21 0 .404-.031.581-.095s.347-.146.509-.247l.261.486a3.699 3.699 0 0 1-.64.314c-.233.09-.501.135-.801.135-.294 0-.568-.053-.823-.157s-.477-.255-.666-.45-.338-.434-.445-.715a2.653 2.653 0 0 1-.163-.963zm3.06-.333c0-.449-.094-.793-.283-1.03-.188-.237-.454-.355-.797-.355-.155 0-.304.031-.445.095a1.206 1.206 0 0 0-.382.27 1.454 1.454 0 0 0-.284.432 2.009 2.009 0 0 0-.148.59h2.339zM20.149 0h.521v9h-.521V0zM27.629 1.476h-1.791v-.63h4.329v.63h-1.791V6.75h-.747V1.476zM30.465 2.375h.756l.648 2.529a42.79 42.79 0 0 1 .261 1.215h.036l.144-.607c.049-.201.1-.403.153-.607l.675-2.529h.721l.684 2.529.157.612c.051.198.101.399.148.603h.036c.048-.203.093-.404.135-.603s.087-.401.136-.612l.639-2.529h.702l-1.17 4.375h-.9l-.63-2.35c-.054-.21-.104-.417-.148-.621a43.685 43.685 0 0 0-.148-.639h-.036c-.048.223-.096.437-.144.644a16.06 16.06 0 0 1-.162.626l-.612 2.34h-.866l-1.215-4.376zM37.251 4.571c0-.366.056-.691.166-.976.111-.285.26-.527.446-.725.186-.199.4-.349.644-.451.242-.102.499-.152.77-.152.27 0 .526.051.77.152.242.103.457.252.643.451.187.197.335.439.446.725.11.284.166.609.166.976 0 .36-.056.683-.166.968a2.17 2.17 0 0 1-.446.72c-.186.195-.4.344-.643.446a1.97 1.97 0 0 1-.77.152 1.913 1.913 0 0 1-1.414-.598 2.144 2.144 0 0 1-.446-.72 2.67 2.67 0 0 1-.166-.968zm.765 0c0 .253.03.48.09.685.061.203.146.379.257.526s.244.261.4.342.327.122.514.122c.186 0 .356-.041.513-.122s.289-.194.4-.342.196-.323.257-.526c.06-.204.09-.432.09-.685 0-.252-.03-.481-.09-.688-.061-.207-.146-.385-.257-.535s-.244-.266-.4-.347-.327-.122-.513-.122a1.1 1.1 0 0 0-.914.469 1.705 1.705 0 0 0-.257.535c-.06.207-.09.436-.09.688z"/></g></svg>