<svg xmlns="http://www.w3.org/2000/svg" width="24" height="1423.061" viewBox="0 0 24 1423.061"><path fill="#F3F3F3" d="M0 0h24V706H0z"/><path fill="#CDCCCC" d="M0 100h24v1H0zM21 4h3v1h-3zM18 9h6v1h-6zM21 14h3v1h-3zM18 19h6v1h-6zM21 24h3v1h-3zM18 29h6v1h-6zM21 34h3v1h-3zM18 39h6v1h-6zM21 44h3v1h-3zM18 49h6v1h-6zM21 54h3v1h-3zM18 59h6v1h-6zM21 64h3v1h-3zM18 69h6v1h-6zM21 74h3v1h-3zM18 79h6v1h-6zM21 84h3v1h-3zM18 89h6v1h-6zM21 95h3v1h-3z"/><text transform="translate(10.155 10.727)" fill="#AFAFAF" font-family="'ArialMT'" font-size="9">0</text><path fill="#CDCCCC" d="M0 201h24v1H0zM21 105h3v1h-3zM18 110h6v1h-6zM21 115h3v1h-3zM18 120h6v1h-6zM21 125h3v1h-3zM18 130h6v1h-6zM21 135h3v1h-3zM18 140h6v1h-6zM21 145h3v1h-3zM18 150h6v1h-6zM21 155h3v1h-3zM18 160h6v1h-6zM21 165h3v1h-3zM18 170h6v1h-6zM21 175h3v1h-3zM18 180h6v1h-6zM21 185h3v1h-3zM18 190h6v1h-6zM21 196h3v1h-3z"/><text transform="translate(10.155 111.727)" fill="#AFAFAF" font-family="'ArialMT'" font-size="9">1</text><text transform="translate(10.155 122.526)" fill="#AFAFAF" font-family="'ArialMT'" font-size="9">0</text><text transform="translate(10.155 133.327)" fill="#AFAFAF" font-family="'ArialMT'" font-size="9">0</text><path fill="#CDCCCC" d="M0 302h24v1H0zM21 206h3v1h-3zM18 211h6v1h-6zM21 216h3v1h-3zM18 221h6v1h-6zM21 226h3v1h-3zM18 231h6v1h-6zM21 236h3v1h-3zM18 241h6v1h-6zM21 246h3v1h-3zM18 251h6v1h-6zM21 256h3v1h-3zM18 261h6v1h-6zM21 266h3v1h-3zM18 271h6v1h-6zM21 276h3v1h-3zM18 281h6v1h-6zM21 286h3v1h-3zM18 291h6v1h-6zM21 297h3v1h-3z"/><text transform="translate(10.155 212.727)" fill="#AFAFAF" font-family="'ArialMT'" font-size="9">2</text><text transform="translate(10.155 223.526)" fill="#AFAFAF" font-family="'ArialMT'" font-size="9">0</text><text transform="translate(10.155 234.327)" fill="#AFAFAF" font-family="'ArialMT'" font-size="9">0</text><path fill="#CDCCCC" d="M0 403h24v1H0zM21 307h3v1h-3zM18 312h6v1h-6zM21 317h3v1h-3zM18 322h6v1h-6zM21 327h3v1h-3zM18 332h6v1h-6zM21 337h3v1h-3zM18 342h6v1h-6zM21 347h3v1h-3zM18 352h6v1h-6zM21 357h3v1h-3zM18 362h6v1h-6zM21 367h3v1h-3zM18 372h6v1h-6zM21 377h3v1h-3zM18 382h6v1h-6zM21 387h3v1h-3zM18 392h6v1h-6zM21 398h3v1h-3z"/><text transform="translate(10.155 313.727)" fill="#AFAFAF" font-family="'ArialMT'" font-size="9">3</text><text transform="translate(10.155 324.526)" fill="#AFAFAF" font-family="'ArialMT'" font-size="9">0</text><text transform="translate(10.155 335.328)" fill="#AFAFAF" font-family="'ArialMT'" font-size="9">0</text><path fill="#CDCCCC" d="M0 504h24v1H0zM21 408h3v1h-3zM18 413h6v1h-6zM21 418h3v1h-3zM18 423h6v1h-6zM21 428h3v1h-3zM18 433h6v1h-6zM21 438h3v1h-3zM18 443h6v1h-6zM21 448h3v1h-3zM18 453h6v1h-6zM21 458h3v1h-3zM18 463h6v1h-6zM21 468h3v1h-3zM18 473h6v1h-6zM21 478h3v1h-3zM18 483h6v1h-6zM21 488h3v1h-3zM18 493h6v1h-6zM21 499h3v1h-3z"/><text transform="translate(10.155 414.727)" fill="#AFAFAF" font-family="'ArialMT'" font-size="9">4</text><text transform="translate(10.155 425.526)" fill="#AFAFAF" font-family="'ArialMT'" font-size="9">0</text><text transform="translate(10.155 436.328)" fill="#AFAFAF" font-family="'ArialMT'" font-size="9">0</text><path fill="#CDCCCC" d="M0 605h24v1H0zM21 509h3v1h-3zM18 514h6v1h-6zM21 519h3v1h-3zM18 524h6v1h-6zM21 529h3v1h-3zM18 534h6v1h-6zM21 539h3v1h-3zM18 544h6v1h-6zM21 549h3v1h-3zM18 554h6v1h-6zM21 559h3v1h-3zM18 564h6v1h-6zM21 569h3v1h-3zM18 574h6v1h-6zM21 579h3v1h-3zM18 584h6v1h-6zM21 589h3v1h-3zM18 594h6v1h-6zM21 600h3v1h-3z"/><text transform="translate(10.155 515.727)" fill="#AFAFAF" font-family="'ArialMT'" font-size="9">5</text><text transform="translate(10.155 526.526)" fill="#AFAFAF" font-family="'ArialMT'" font-size="9">0</text><text transform="translate(10.155 537.328)" fill="#AFAFAF" font-family="'ArialMT'" font-size="9">0</text><path fill="#CDCCCC" d="M21 610h3v1h-3zM18 615h6v1h-6zM21 620h3v1h-3zM18 625h6v1h-6zM21 630h3v1h-3zM18 635h6v1h-6zM21 640h3v1h-3zM18 645h6v1h-6zM21 650h3v1h-3zM18 655h6v1h-6zM21 660h3v1h-3zM18 665h6v1h-6zM21 670h3v1h-3zM18 675h6v1h-6zM21 680h3v1h-3zM18 685h6v1h-6zM21 690h3v1h-3z"/><text transform="translate(10.155 616.727)" fill="#AFAFAF" font-family="'ArialMT'" font-size="9">6</text><text transform="translate(10.155 627.526)" fill="#AFAFAF" font-family="'ArialMT'" font-size="9">0</text><text transform="translate(10.155 638.328)" fill="#AFAFAF" font-family="'ArialMT'" font-size="9">0</text><path fill="#F3F3F3" d="M0 706.06h24v717H0z"/><path fill="#CDCCCC" d="M0 705.06h24v1H0zM0 806.06h24v1H0zM21 710.06h3v1h-3zM18 715.06h6v1h-6zM21 720.06h3v1h-3zM18 725.06h6v1h-6zM21 730.06h3v1h-3zM18 735.06h6v1h-6zM21 740.06h3v1h-3zM18 745.06h6v1h-6zM21 750.06h3v1h-3zM18 755.06h6v1h-6zM21 760.06h3v1h-3zM18 765.06h6v1h-6zM21 770.06h3v1h-3zM18 775.06h6v1h-6zM21 780.06h3v1h-3zM18 785.06h6v1h-6zM21 790.06h3v1h-3zM18 795.06h6v1h-6zM21 801.06h3v1h-3zM0 907.06h24v1H0zM21 811.06h3v1h-3zM18 816.06h6v1h-6zM21 821.06h3v1h-3zM18 826.06h6v1h-6zM21 831.06h3v1h-3zM18 836.06h6v1h-6zM21 841.06h3v1h-3zM18 846.06h6v1h-6zM21 851.06h3v1h-3zM18 856.06h6v1h-6zM21 861.06h3v1h-3zM18 866.06h6v1h-6zM21 871.06h3v1h-3zM18 876.06h6v1h-6zM21 881.06h3v1h-3zM18 886.06h6v1h-6zM21 891.06h3v1h-3zM18 896.06h6v1h-6zM21 902.06h3v1h-3z"/><text transform="translate(10.155 817.784)" fill="#AFAFAF" font-family="'ArialMT'" font-size="9">8</text><text transform="translate(10.155 828.584)" fill="#AFAFAF" font-family="'ArialMT'" font-size="9">0</text><text transform="translate(10.155 839.385)" fill="#AFAFAF" font-family="'ArialMT'" font-size="9">0</text><path fill="#CDCCCC" d="M0 1008.06h24v1H0zM21 912.06h3v1h-3zM18 917.06h6v1h-6zM21 922.06h3v1h-3zM18 927.06h6v1h-6zM21 932.06h3v1h-3zM18 937.06h6v1h-6zM21 942.06h3v1h-3zM18 947.06h6v1h-6zM21 952.06h3v1h-3zM18 957.06h6v1h-6zM21 962.06h3v1h-3zM18 967.06h6v1h-6zM21 972.06h3v1h-3zM18 977.06h6v1h-6zM21 982.06h3v1h-3zM18 987.06h6v1h-6zM21 992.06h3v1h-3zM18 997.06h6v1h-6zM21 1003.06h3v1h-3z"/><text transform="translate(10.155 918.784)" fill="#AFAFAF" font-family="'ArialMT'" font-size="9">9</text><text transform="translate(10.155 929.584)" fill="#AFAFAF" font-family="'ArialMT'" font-size="9">0</text><text transform="translate(10.155 940.385)" fill="#AFAFAF" font-family="'ArialMT'" font-size="9">0</text><path fill="#CDCCCC" d="M0 1109.06h24v1H0zM21 1013.06h3v1h-3zM18 1018.06h6v1h-6zM21 1023.06h3v1h-3zM18 1028.06h6v1h-6zM21 1033.06h3v1h-3zM18 1038.06h6v1h-6zM21 1043.06h3v1h-3zM18 1048.06h6v1h-6zM21 1053.06h3v1h-3zM18 1058.06h6v1h-6zM21 1063.06h3v1h-3zM18 1068.06h6v1h-6zM21 1073.06h3v1h-3zM18 1078.06h6v1h-6zM21 1083.06h3v1h-3zM18 1088.06h6v1h-6zM21 1093.06h3v1h-3zM18 1098.06h6v1h-6zM21 1104.06h3v1h-3z"/><text transform="translate(10.155 1019.784)" fill="#AFAFAF" font-family="'ArialMT'" font-size="9">1</text><text transform="translate(10.155 1030.584)" fill="#AFAFAF" font-family="'ArialMT'" font-size="9">0</text><text transform="translate(10.155 1041.385)" fill="#AFAFAF" font-family="'ArialMT'" font-size="9">0</text><text transform="translate(10.155 1052.184)" fill="#AFAFAF" font-family="'ArialMT'" font-size="9">0</text><path fill="#CDCCCC" d="M0 1210.06h24v1H0zM21 1114.06h3v1h-3zM18 1119.06h6v1h-6zM21 1124.06h3v1h-3zM18 1129.06h6v1h-6zM21 1134.06h3v1h-3zM18 1139.06h6v1h-6zM21 1144.06h3v1h-3zM18 1149.06h6v1h-6zM21 1154.06h3v1h-3zM18 1159.06h6v1h-6zM21 1164.06h3v1h-3zM18 1169.06h6v1h-6zM21 1174.06h3v1h-3zM18 1179.06h6v1h-6zM21 1184.06h3v1h-3zM18 1189.06h6v1h-6zM21 1194.06h3v1h-3zM18 1199.06h6v1h-6zM21 1205.06h3v1h-3z"/><text transform="translate(10.155 1120.784)" fill="#AFAFAF" font-family="'ArialMT'" font-size="9">1</text><text transform="translate(10.155 1131.584)" fill="#AFAFAF" font-family="'ArialMT'" font-size="9">2</text><text transform="translate(10.155 1142.385)" fill="#AFAFAF" font-family="'ArialMT'" font-size="9">0</text><text transform="translate(10.155 1153.184)" fill="#AFAFAF" font-family="'ArialMT'" font-size="9">0</text><path fill="#CDCCCC" d="M0 1311.06h24v1H0zM21 1215.06h3v1h-3zM18 1220.06h6v1h-6zM21 1225.06h3v1h-3zM18 1230.06h6v1h-6zM21 1235.06h3v1h-3zM18 1240.06h6v1h-6zM21 1245.06h3v1h-3zM18 1250.06h6v1h-6zM21 1255.06h3v1h-3zM18 1260.06h6v1h-6zM21 1265.06h3v1h-3zM18 1270.06h6v1h-6zM21 1275.06h3v1h-3zM18 1280.06h6v1h-6zM21 1285.06h3v1h-3zM18 1290.06h6v1h-6zM21 1295.06h3v1h-3zM18 1300.06h6v1h-6zM21 1306.06h3v1h-3z"/><text transform="translate(10.155 1221.784)" fill="#AFAFAF" font-family="'ArialMT'" font-size="9">1</text><text transform="translate(10.155 1232.584)" fill="#AFAFAF" font-family="'ArialMT'" font-size="9">3</text><text transform="translate(10.155 1243.385)" fill="#AFAFAF" font-family="'ArialMT'" font-size="9">0</text><text transform="translate(10.155 1254.184)" fill="#AFAFAF" font-family="'ArialMT'" font-size="9">0</text><path fill="#CDCCCC" d="M21 1316.06h3v1h-3zM18 1321.06h6v1h-6zM21 1326.06h3v1h-3zM18 1331.06h6v1h-6zM21 1336.06h3v1h-3zM18 1341.06h6v1h-6zM21 1346.06h3v1h-3zM18 1351.06h6v1h-6zM21 1356.06h3v1h-3zM18 1361.06h6v1h-6zM21 1366.06h3v1h-3zM18 1371.06h6v1h-6zM21 1376.06h3v1h-3zM18 1381.06h6v1h-6zM21 1386.06h3v1h-3zM18 1391.06h6v1h-6zM21 1396.06h3v1h-3z"/><text transform="translate(10.155 1322.784)" fill="#AFAFAF" font-family="'ArialMT'" font-size="9">1</text><text transform="translate(10.155 1333.584)" fill="#AFAFAF" font-family="'ArialMT'" font-size="9">4</text><text transform="translate(10.155 1344.385)" fill="#AFAFAF" font-family="'ArialMT'" font-size="9">0</text><text transform="translate(10.155 1355.184)" fill="#AFAFAF" font-family="'ArialMT'" font-size="9">0</text><path fill="#CDCCCC" d="M18 695.022h6v1h-6zM21 700.022h3v1h-3z"/><text transform="translate(10.17 716.914)" fill="#AFAFAF" font-family="'ArialMT'" font-size="9">7</text><text transform="translate(10.17 727.714)" fill="#AFAFAF" font-family="'ArialMT'" font-size="9">0</text><text transform="translate(10.17 738.516)" fill="#AFAFAF" font-family="'ArialMT'" font-size="9">0</text></svg>