<svg xmlns="http://www.w3.org/2000/svg" xmlns:xlink="http://www.w3.org/1999/xlink" width="15.8" height="19.31" viewBox="0 0 15.8 19.31"><symbol id="a" viewBox="-38.091 -45.937 75.182 91.874"><path fill="#9B9A9A" d="M-33.388-43.937c0-1.1-.9-2-2-2h-.703c-1.1 0-2 .9-2 2v87.874c0 1.101.9 2 2 2h.703c1.1 0 2-.899 2-2v-87.874zM37.091 9.794c0-1.1-.9-2-2-2h-50.865c-1.1 0-2 .9-2 2v15.667c0 1.101.9 2 2 2h50.865c1.1 0 2-.899 2-2V9.794z"/><path fill="none" stroke="#9B9A9A" stroke-width="5" stroke-miterlimit="10" d="M14.093-25.141c0-1.1-.9-2-2-2h-27.867c-1.1 0-2 .9-2 2v15.667c0 1.1.9 2 2 2h27.867c1.1 0 2-.9 2-2v-15.667z"/></symbol><use xlink:href="#a" width="75.182" height="91.874" x="-38.091" y="-45.937" transform="rotate(180 3.897 4.827) scale(.2102)" overflow="visible"/></svg>