<svg xmlns="http://www.w3.org/2000/svg" width="24" height="17" viewBox="0 0 24 17"><path fill="#929BA5" d="M18.763 10.924c.353.182.528.49.528.926v4.142c0 .272-.08.51-.237.71a.75.75 0 0 1-.61.3H5.452c-.228 0-.422-.102-.582-.3-.158-.2-.24-.438-.24-.71V11.85c0-.436.178-.744.53-.926L8.81 9.18l1.43-.68c-.67-.418-1.183-1.018-1.535-1.798a5.003 5.003 0 0 1-.45-2.888 6.73 6.73 0 0 1 .132-.627c.25-.926.693-1.688 1.338-2.29C10.37.3 11.113 0 11.96 0c.865 0 1.623.31 2.276.927.652.617 1.094 1.397 1.324 2.343.088.454.13.862.13 1.225 0 .727-.14 1.427-.423 2.1-.352.816-.863 1.434-1.535 1.85l1.508.737 3.523 1.742zM4.63 9.78c-.39.18-.693.458-.913.83-.22.372-.33.786-.33 1.24v3.514H.66c-.196 0-.354-.077-.477-.23S0 14.783 0 14.547v-3.323c0-.4.14-.653.42-.764L4.525 8.5c-.495-.31-.89-.748-1.19-1.32-.3-.573-.45-1.214-.45-1.92 0-.492.08-.96.237-1.404.16-.446.376-.83.65-1.158.272-.326.59-.586.953-.776.36-.19.754-.285 1.175-.285.283 0 .548.045.794.137a3.6 3.6 0 0 1 .715.353c-.3.764-.45 1.554-.45 2.37 0 .636.088 1.25.265 1.84.175.59.423 1.12.74 1.593a2.64 2.64 0 0 1-.61.517L4.63 9.78zm18.948.68"/><path fill="#929BA5" d="M16.645 8.405a2.638 2.638 0 0 1-.61-.518 5.82 5.82 0 0 0 .74-1.593c.18-.59.267-1.203.267-1.84 0-.815-.15-1.605-.45-2.37.23-.145.468-.262.716-.352.246-.092.512-.137.795-.137.42 0 .814.095 1.175.285.36.19.68.45.954.776.273.327.488.712.648 1.158.157.445.238.912.238 1.403 0 .707-.15 1.348-.45 1.92-.3.572-.696 1.012-1.19 1.32l4.102 1.96c.28.115.42.367.42.768v3.324c0 .235-.062.43-.185.583s-.28.232-.478.232h-2.725V11.81c0-.453-.11-.867-.33-1.238a2.027 2.027 0 0 0-.912-.83l-2.725-1.337zM.422 10.42"/></svg>