<svg xmlns="http://www.w3.org/2000/svg" width="18" height="18" viewBox="0 0 18 18"><path fill="#428CBB" d="M1.676 12.797c.45 1.05 1.054 1.953 1.814 2.713s1.664 1.365 2.71 1.814c1.05.45 2.15.676 3.3.676 1.084 0 2.135-.203 3.148-.613s1.917-.988 2.706-1.732l1.44 1.426c.22.23.475.282.764.157.295-.126.442-.344.442-.655v-4.957c0-.19-.07-.357-.21-.498a.68.68 0 0 0-.497-.21h-4.96c-.31 0-.528.147-.653.442-.125.288-.072.54.155.763l1.517 1.527c-.518.488-1.107.86-1.77 1.123s-1.358.395-2.08.395c-.77 0-1.5-.15-2.198-.45s-1.3-.702-1.81-1.21c-.51-.512-.913-1.113-1.212-1.81s-.45-1.428-.45-2.198c0-.766.15-1.5.45-2.197s.702-1.3 1.21-1.81c.512-.51 1.113-.913 1.81-1.212s1.43-.446 2.198-.446c.88 0 1.707.19 2.49.576a5.51 5.51 0 0 1 1.98 1.627c.052.072.137.117.255.133a.39.39 0 0 0 .276-.1l1.518-1.527c.06-.06.09-.135.096-.227a.398.398 0 0 0-.074-.252 8.295 8.295 0 0 0-2.922-2.262A8.444 8.444 0 0 0 9.5 1a8.33 8.33 0 0 0-3.3.674A8.632 8.632 0 0 0 3.49 3.49a8.588 8.588 0 0 0-1.815 2.713A8.284 8.284 0 0 0 1 9.5c0 1.152.226 2.25.676 3.297zm0 0"/><path fill="#FFF" d="M.676 11.797c.45 1.05 1.054 1.953 1.814 2.713s1.664 1.365 2.71 1.814c1.05.45 2.15.676 3.3.676 1.084 0 2.135-.203 3.148-.613s1.917-.988 2.706-1.732l1.44 1.426c.22.23.475.282.764.157.295-.126.442-.344.442-.655v-4.957c0-.19-.07-.357-.21-.498a.68.68 0 0 0-.497-.21h-4.96c-.31 0-.528.147-.653.442-.125.288-.072.54.155.763l1.517 1.527c-.518.488-1.107.86-1.77 1.123s-1.358.395-2.08.395c-.77 0-1.5-.15-2.198-.45s-1.3-.702-1.81-1.21c-.51-.512-.913-1.113-1.212-1.81s-.45-1.428-.45-2.198c0-.766.15-1.5.45-2.197s.702-1.3 1.21-1.81c.512-.51 1.113-.913 1.81-1.212s1.43-.446 2.198-.446c.88 0 1.707.19 2.49.576a5.51 5.51 0 0 1 1.98 1.627c.052.072.137.117.255.133a.39.39 0 0 0 .276-.1l1.518-1.527c.06-.06.09-.135.096-.227a.398.398 0 0 0-.074-.252A8.295 8.295 0 0 0 12.118.802 8.444 8.444 0 0 0 8.5 0a8.33 8.33 0 0 0-3.3.674A8.632 8.632 0 0 0 2.49 2.49 8.588 8.588 0 0 0 .675 5.203 8.284 8.284 0 0 0 0 8.5c0 1.152.226 2.25.676 3.297zm0 0"/></svg>