<svg xmlns="http://www.w3.org/2000/svg" width="2387.03" height="24" viewBox="0 0 2387.03 24"><path fill="#CDCCCC" d="M99.999 0h1v24h-1z"/><text transform="translate(4.035 16)" fill="#B3B4B4" font-family="'ArialMT'" font-size="9">0</text><path fill="#CDCCCC" d="M3.999 21h1v3h-1zM8.999 18h1v6h-1zM13.999 21h1v3h-1zM18.999 18h1v6h-1zM23.999 21h1v3h-1zM28.999 18h1v6h-1zM33.999 21h1v3h-1zM38.999 18h1v6h-1zM43.999 21h1v3h-1zM48.999 18h1v6h-1zM53.999 21h1v3h-1zM58.999 18h1v6h-1zM63.999 21h1v3h-1zM68.999 18h1v6h-1zM73.999 21h1v3h-1zM78.999 18h1v6h-1zM83.999 21h1v3h-1zM88.999 18h1v6h-1zM94.999 21h1v3h-1zM201.001 0h1v24h-1z"/><text transform="translate(105.037 16)" fill="#B3B4B4" font-family="'ArialMT'" font-size="9">100</text><path fill="#CDCCCC" d="M105.001 21h1v3h-1zM110.001 18h1v6h-1zM115.001 21h1v3h-1zM120.001 18h1v6h-1zM125.001 21h1v3h-1zM130.001 18h1v6h-1zM135.001 21h1v3h-1zM140.001 18h1v6h-1zM145.001 21h1v3h-1zM150.001 18h1v6h-1zM155.001 21h1v3h-1zM160.001 18h1v6h-1zM165.001 21h1v3h-1zM170.001 18h1v6h-1zM175.001 21h1v3h-1zM180.001 18h1v6h-1zM185.001 21h1v3h-1zM190.001 18h1v6h-1zM196.001 21h1v3h-1zM302.001 0h1v24h-1z"/><text transform="translate(206.037 16)" fill="#B3B4B4" font-family="'ArialMT'" font-size="9">200</text><path fill="#CDCCCC" d="M206.001 21h1v3h-1zM211.001 18h1v6h-1zM216.001 21h1v3h-1zM221.001 18h1v6h-1zM226.001 21h1v3h-1zM231.001 18h1v6h-1zM236.001 21h1v3h-1zM241.001 18h1v6h-1zM246.001 21h1v3h-1zM251.001 18h1v6h-1zM256.001 21h1v3h-1zM261.001 18h1v6h-1zM266.001 21h1v3h-1zM271.001 18h1v6h-1zM276.001 21h1v3h-1zM281.001 18h1v6h-1zM286.001 21h1v3h-1zM291.001 18h1v6h-1zM297.001 21h1v3h-1zM403.001 0h1v24h-1z"/><text transform="translate(307.037 16)" fill="#B3B4B4" font-family="'ArialMT'" font-size="9">300</text><path fill="#CDCCCC" d="M307.001 21h1v3h-1zM312.001 18h1v6h-1zM317.001 21h1v3h-1zM322.001 18h1v6h-1zM327.001 21h1v3h-1zM332.001 18h1v6h-1zM337.001 21h1v3h-1zM342.001 18h1v6h-1zM347.001 21h1v3h-1zM352.001 18h1v6h-1zM357.001 21h1v3h-1zM362.001 18h1v6h-1zM367.001 21h1v3h-1zM372.001 18h1v6h-1zM377.001 21h1v3h-1zM382.001 18h1v6h-1zM387.001 21h1v3h-1zM392.001 18h1v6h-1zM398.001 21h1v3h-1zM504.003 0h1v24h-1z"/><text transform="translate(408.039 16)" fill="#B3B4B4" font-family="'ArialMT'" font-size="9">400</text><path fill="#CDCCCC" d="M408.003 21h1v3h-1zM413.003 18h1v6h-1zM418.003 21h1v3h-1zM423.003 18h1v6h-1zM428.003 21h1v3h-1zM433.003 18h1v6h-1zM438.003 21h1v3h-1zM443.003 18h1v6h-1zM448.003 21h1v3h-1zM453.003 18h1v6h-1zM458.003 21h1v3h-1zM463.003 18h1v6h-1zM468.003 21h1v3h-1zM473.003 18h1v6h-1zM478.003 21h1v3h-1zM483.003 18h1v6h-1zM488.003 21h1v3h-1zM493.003 18h1v6h-1zM499.003 21h1v3h-1zM605.003 0h1v24h-1z"/><text transform="translate(509.039 16)" fill="#B3B4B4" font-family="'ArialMT'" font-size="9">500</text><path fill="#CDCCCC" d="M509.003 21h1v3h-1zM514.003 18h1v6h-1zM519.003 21h1v3h-1zM524.003 18h1v6h-1zM529.003 21h1v3h-1zM534.003 18h1v6h-1zM539.003 21h1v3h-1zM544.003 18h1v6h-1zM549.003 21h1v3h-1zM554.003 18h1v6h-1zM559.003 21h1v3h-1zM564.003 18h1v6h-1zM569.003 21h1v3h-1zM574.003 18h1v6h-1zM579.003 21h1v3h-1zM584.003 18h1v6h-1zM589.003 21h1v3h-1zM594.003 18h1v6h-1zM600.003 21h1v3h-1zM706.003 0h1v24h-1z"/><text transform="translate(610.039 16)" fill="#B3B4B4" font-family="'ArialMT'" font-size="9">600</text><path fill="#CDCCCC" d="M610.003 21h1v3h-1zM615.003 18h1v6h-1zM620.003 21h1v3h-1zM625.003 18h1v6h-1zM630.003 21h1v3h-1zM635.003 18h1v6h-1zM640.003 21h1v3h-1zM645.003 18h1v6h-1zM650.003 21h1v3h-1zM655.003 18h1v6h-1zM660.003 21h1v3h-1zM665.003 18h1v6h-1zM670.003 21h1v3h-1zM675.003 18h1v6h-1zM680.003 21h1v3h-1zM685.003 18h1v6h-1zM690.003 21h1v3h-1zM695.003 18h1v6h-1zM701.003 21h1v3h-1zM807.005 0h1v24h-1z"/><text transform="translate(711.04 16)" fill="#B3B4B4" font-family="'ArialMT'" font-size="9">700</text><path fill="#CDCCCC" d="M711.005 21h1v3h-1zM716.005 18h1v6h-1zM721.005 21h1v3h-1zM726.005 18h1v6h-1zM731.005 21h1v3h-1zM736.005 18h1v6h-1zM741.005 21h1v3h-1zM746.005 18h1v6h-1zM751.005 21h1v3h-1zM756.005 18h1v6h-1zM761.005 21h1v3h-1zM766.005 18h1v6h-1zM771.005 21h1v3h-1zM776.005 18h1v6h-1zM781.005 21h1v3h-1zM786.005 18h1v6h-1zM791.005 21h1v3h-1zM796.005 18h1v6h-1zM802.005 21h1v3h-1zM908.005 0h1v24h-1z"/><text transform="translate(812.04 16)" fill="#B3B4B4" font-family="'ArialMT'" font-size="9">800</text><path fill="#CDCCCC" d="M812.005 21h1v3h-1zM817.005 18h1v6h-1zM822.005 21h1v3h-1zM827.005 18h1v6h-1zM832.005 21h1v3h-1zM837.005 18h1v6h-1zM842.005 21h1v3h-1zM847.005 18h1v6h-1zM852.005 21h1v3h-1zM857.005 18h1v6h-1zM862.005 21h1v3h-1zM867.005 18h1v6h-1zM872.005 21h1v3h-1zM877.005 18h1v6h-1zM882.005 21h1v3h-1zM887.005 18h1v6h-1zM892.005 21h1v3h-1zM897.005 18h1v6h-1zM903.005 21h1v3h-1zM1009.005 0h1v24h-1z"/><text transform="translate(913.04 16)" fill="#B3B4B4" font-family="'ArialMT'" font-size="9">900</text><path fill="#CDCCCC" d="M913.005 21h1v3h-1zM918.005 18h1v6h-1zM923.005 21h1v3h-1zM928.005 18h1v6h-1zM933.005 21h1v3h-1zM938.005 18h1v6h-1zM943.005 21h1v3h-1zM948.005 18h1v6h-1zM953.005 21h1v3h-1zM958.005 18h1v6h-1zM963.005 21h1v3h-1zM968.005 18h1v6h-1zM973.005 21h1v3h-1zM978.005 18h1v6h-1zM983.005 21h1v3h-1zM988.005 18h1v6h-1zM993.005 21h1v3h-1zM998.005 18h1v6h-1zM1004.005 21h1v3h-1zM1110.007 0h1v24h-1z"/><text transform="translate(1014.043 16)" fill="#B3B4B4" font-family="'ArialMT'" font-size="9">1000</text><path fill="#CDCCCC" d="M1014.007 21h1v3h-1zM1019.007 18h1v6h-1zM1024.007 21h1v3h-1zM1029.007 18h1v6h-1zM1034.007 21h1v3h-1zM1039.007 18h1v6h-1zM1044.007 21h1v3h-1zM1049.007 18h1v6h-1zM1054.007 21h1v3h-1zM1059.007 18h1v6h-1zM1064.007 21h1v3h-1zM1069.007 18h1v6h-1zM1074.007 21h1v3h-1zM1079.007 18h1v6h-1zM1084.007 21h1v3h-1zM1089.007 18h1v6h-1zM1094.007 21h1v3h-1zM1099.007 18h1v6h-1zM1105.007 21h1v3h-1z"/><text transform="translate(1115.043 16)" fill="#B3B4B4" font-family="'ArialMT'" font-size="9">1100</text><path fill="#CDCCCC" d="M1115.007 21h1v3h-1zM1120.007 18h1v6h-1zM1125.007 21h1v3h-1zM1130.007 18h1v6h-1zM1135.007 21h1v3h-1zM1140.007 18h1v6h-1zM1145.007 21h1v3h-1zM1150.007 18h1v6h-1zM1155.007 21h1v3h-1zM1160.007 18h1v6h-1zM1165.007 21h1v3h-1zM1170.007 18h1v6h-1zM1175.007 21h1v3h-1zM1311.023 0h1v24h-1z"/><text transform="translate(1215.059 16)" fill="#B3B4B4" font-family="'ArialMT'" font-size="9">1200</text><path fill="#CDCCCC" d="M1215.023 21h1v3h-1zM1220.023 18h1v6h-1zM1225.023 21h1v3h-1zM1230.023 18h1v6h-1zM1235.023 21h1v3h-1zM1240.023 18h1v6h-1zM1245.023 21h1v3h-1zM1250.023 18h1v6h-1zM1255.023 21h1v3h-1zM1260.023 18h1v6h-1zM1265.023 21h1v3h-1zM1270.023 18h1v6h-1zM1275.023 21h1v3h-1zM1280.023 18h1v6h-1zM1285.023 21h1v3h-1zM1290.023 18h1v6h-1zM1295.023 21h1v3h-1zM1300.023 18h1v6h-1zM1306.023 21h1v3h-1zM1412.025 0h1v24h-1z"/><text transform="translate(1316.06 16)" fill="#B3B4B4" font-family="'ArialMT'" font-size="9">1300</text><path fill="#CDCCCC" d="M1316.025 21h1v3h-1zM1321.025 18h1v6h-1zM1326.025 21h1v3h-1zM1331.025 18h1v6h-1zM1336.025 21h1v3h-1zM1341.025 18h1v6h-1zM1346.025 21h1v3h-1zM1351.025 18h1v6h-1zM1356.025 21h1v3h-1zM1361.025 18h1v6h-1zM1366.025 21h1v3h-1zM1371.025 18h1v6h-1zM1376.025 21h1v3h-1zM1381.025 18h1v6h-1zM1386.025 21h1v3h-1zM1391.025 18h1v6h-1zM1396.025 21h1v3h-1zM1401.025 18h1v6h-1zM1407.025 21h1v3h-1zM1513.025 0h1v24h-1z"/><text transform="translate(1417.06 16)" fill="#B3B4B4" font-family="'ArialMT'" font-size="9">1400</text><path fill="#CDCCCC" d="M1417.025 21h1v3h-1zM1422.025 18h1v6h-1zM1427.025 21h1v3h-1zM1432.025 18h1v6h-1zM1437.025 21h1v3h-1zM1442.025 18h1v6h-1zM1447.025 21h1v3h-1zM1452.025 18h1v6h-1zM1457.025 21h1v3h-1zM1462.025 18h1v6h-1zM1467.025 21h1v3h-1zM1472.025 18h1v6h-1zM1477.025 21h1v3h-1zM1482.025 18h1v6h-1zM1487.025 21h1v3h-1zM1492.025 18h1v6h-1zM1497.025 21h1v3h-1zM1502.025 18h1v6h-1zM1508.025 21h1v3h-1zM1614.025 0h1v24h-1z"/><text transform="translate(1518.06 16)" fill="#B3B4B4" font-family="'ArialMT'" font-size="9">1500</text><path fill="#CDCCCC" d="M1518.025 21h1v3h-1zM1523.025 18h1v6h-1zM1528.025 21h1v3h-1zM1533.025 18h1v6h-1zM1538.025 21h1v3h-1zM1543.025 18h1v6h-1zM1548.025 21h1v3h-1zM1553.025 18h1v6h-1zM1558.025 21h1v3h-1zM1563.025 18h1v6h-1zM1568.025 21h1v3h-1zM1573.025 18h1v6h-1zM1578.025 21h1v3h-1zM1583.025 18h1v6h-1zM1588.025 21h1v3h-1zM1593.025 18h1v6h-1zM1598.025 21h1v3h-1zM1603.025 18h1v6h-1zM1609.025 21h1v3h-1zM1715.027 0h1v24h-1z"/><text transform="translate(1619.063 16)" fill="#B3B4B4" font-family="'ArialMT'" font-size="9">1600</text><path fill="#CDCCCC" d="M1619.027 21h1v3h-1zM1624.027 18h1v6h-1zM1629.027 21h1v3h-1zM1634.027 18h1v6h-1zM1639.027 21h1v3h-1zM1644.027 18h1v6h-1zM1649.027 21h1v3h-1zM1654.027 18h1v6h-1zM1659.027 21h1v3h-1zM1664.027 18h1v6h-1zM1669.027 21h1v3h-1zM1674.027 18h1v6h-1zM1679.027 21h1v3h-1zM1684.027 18h1v6h-1zM1689.027 21h1v3h-1zM1694.027 18h1v6h-1zM1699.027 21h1v3h-1zM1704.027 18h1v6h-1zM1710.027 21h1v3h-1zM1816.027 0h1v24h-1z"/><text transform="translate(1720.063 16)" fill="#B3B4B4" font-family="'ArialMT'" font-size="9">1700</text><path fill="#CDCCCC" d="M1720.027 21h1v3h-1zM1725.027 18h1v6h-1zM1730.027 21h1v3h-1zM1735.027 18h1v6h-1zM1740.027 21h1v3h-1zM1745.027 18h1v6h-1zM1750.027 21h1v3h-1zM1755.027 18h1v6h-1zM1760.027 21h1v3h-1zM1765.027 18h1v6h-1zM1770.027 21h1v3h-1zM1775.027 18h1v6h-1zM1780.027 21h1v3h-1zM1785.027 18h1v6h-1zM1790.027 21h1v3h-1zM1795.027 18h1v6h-1zM1800.027 21h1v3h-1zM1805.027 18h1v6h-1zM1811.027 21h1v3h-1zM1917.027 0h1v24h-1z"/><text transform="translate(1821.063 16)" fill="#B3B4B4" font-family="'ArialMT'" font-size="9">1800</text><path fill="#CDCCCC" d="M1821.027 21h1v3h-1zM1826.027 18h1v6h-1zM1831.027 21h1v3h-1zM1836.027 18h1v6h-1zM1841.027 21h1v3h-1zM1846.027 18h1v6h-1zM1851.027 21h1v3h-1zM1856.027 18h1v6h-1zM1861.027 21h1v3h-1zM1866.027 18h1v6h-1zM1871.027 21h1v3h-1zM1876.027 18h1v6h-1zM1881.027 21h1v3h-1zM1886.027 18h1v6h-1zM1891.027 21h1v3h-1zM1896.027 18h1v6h-1zM1901.027 21h1v3h-1zM1906.027 18h1v6h-1zM1912.027 21h1v3h-1zM2018.029 0h1v24h-1z"/><text transform="translate(1922.064 16)" fill="#B3B4B4" font-family="'ArialMT'" font-size="9">1900</text><path fill="#CDCCCC" d="M1922.029 21h1v3h-1zM1927.029 18h1v6h-1zM1932.029 21h1v3h-1zM1937.029 18h1v6h-1zM1942.029 21h1v3h-1zM1947.029 18h1v6h-1zM1952.029 21h1v3h-1zM1957.029 18h1v6h-1zM1962.029 21h1v3h-1zM1967.029 18h1v6h-1zM1972.029 21h1v3h-1zM1977.029 18h1v6h-1zM1982.029 21h1v3h-1zM1987.029 18h1v6h-1zM1992.029 21h1v3h-1zM1997.029 18h1v6h-1zM2002.029 21h1v3h-1zM2007.029 18h1v6h-1zM2013.029 21h1v3h-1zM2119.029 0h1v24h-1z"/><text transform="translate(2023.064 16)" fill="#B3B4B4" font-family="'ArialMT'" font-size="9">2000</text><path fill="#CDCCCC" d="M2023.029 21h1v3h-1zM2028.029 18h1v6h-1zM2033.029 21h1v3h-1zM2038.029 18h1v6h-1zM2043.029 21h1v3h-1zM2048.029 18h1v6h-1zM2053.029 21h1v3h-1zM2058.029 18h1v6h-1zM2063.029 21h1v3h-1zM2068.029 18h1v6h-1zM2073.029 21h1v3h-1zM2078.029 18h1v6h-1zM2083.029 21h1v3h-1zM2088.029 18h1v6h-1zM2093.029 21h1v3h-1zM2098.029 18h1v6h-1zM2103.029 21h1v3h-1zM2108.029 18h1v6h-1zM2114.029 21h1v3h-1zM2220.029 0h1v24h-1z"/><text transform="translate(2124.064 16)" fill="#B3B4B4" font-family="'ArialMT'" font-size="9">2100</text><path fill="#CDCCCC" d="M2124.029 21h1v3h-1zM2129.029 18h1v6h-1zM2134.029 21h1v3h-1zM2139.029 18h1v6h-1zM2144.029 21h1v3h-1zM2149.029 18h1v6h-1zM2154.029 21h1v3h-1zM2159.029 18h1v6h-1zM2164.029 21h1v3h-1zM2169.029 18h1v6h-1zM2174.029 21h1v3h-1zM2179.029 18h1v6h-1zM2184.029 21h1v3h-1zM2189.029 18h1v6h-1zM2194.029 21h1v3h-1zM2199.029 18h1v6h-1zM2204.029 21h1v3h-1zM2209.029 18h1v6h-1zM2215.029 21h1v3h-1zM2321.031 0h1v24h-1z"/><text transform="translate(2225.066 16)" fill="#B3B4B4" font-family="'ArialMT'" font-size="9">2200</text><path fill="#CDCCCC" d="M2225.031 21h1v3h-1zM2230.031 18h1v6h-1zM2235.031 21h1v3h-1zM2240.031 18h1v6h-1zM2245.031 21h1v3h-1zM2250.031 18h1v6h-1zM2255.031 21h1v3h-1zM2260.031 18h1v6h-1zM2265.031 21h1v3h-1zM2270.031 18h1v6h-1zM2275.031 21h1v3h-1zM2280.031 18h1v6h-1zM2285.031 21h1v3h-1zM2290.031 18h1v6h-1zM2295.031 21h1v3h-1zM2300.031 18h1v6h-1zM2305.031 21h1v3h-1zM2310.031 18h1v6h-1zM2316.031 21h1v3h-1z"/><text transform="translate(2326.066 16)" fill="#B3B4B4" font-family="'ArialMT'" font-size="9">2300</text><path fill="#CDCCCC" d="M2326.031 21h1v3h-1zM2331.031 18h1v6h-1zM2336.031 21h1v3h-1zM2341.031 18h1v6h-1zM2346.031 21h1v3h-1zM2351.031 18h1v6h-1zM2356.031 21h1v3h-1zM2361.031 18h1v6h-1zM2366.031 21h1v3h-1zM2371.031 18h1v6h-1zM2376.031 21h1v3h-1zM2381.031 18h1v6h-1zM2386.031 21h1v3h-1zM1210.023 0h1v24h-1zM1180.015 18h1v6h-1zM1184.991 21h1v3h-1zM1190.007 18h1v6h-1zM1194.991 21h1.001v3h-1.001zM1199.992 18h1v6h-1zM1204.992 21h1v3h-1z"/></svg>