<svg xmlns="http://www.w3.org/2000/svg" xmlns:xlink="http://www.w3.org/1999/xlink" width="12" height="15" viewBox="0 0 12 15"><defs><path id="a" d="M0 0h12v15H0z"/></defs><clipPath id="b"><use xlink:href="#a" overflow="visible"/></clipPath><path clip-path="url(#b)" fill="#9B9A9A" d="M9.465 9.954c-.12 0-.237.008-.354.024l-1.02-1.277-1.616 2.028.64.802a2.366 2.366 0 0 0-.161.625c-.082.66.104 1.311.521 1.834a2.538 2.538 0 0 0 1.994.953 2.54 2.54 0 0 0 1.56-.531 2.467 2.467 0 0 0 .432-3.501 2.545 2.545 0 0 0-1.996-.957zm1.554 2.683a1.557 1.557 0 0 1-1.551 1.352c-.483 0-.932-.215-1.229-.588a1.519 1.519 0 0 1 .265-2.157c.279-.214.61-.325.963-.325h.001c.482 0 .931.212 1.229.586.257.322.371.724.322 1.132zm0 0"/><path clip-path="url(#b)" fill="#9B9A9A" d="M2.883 9.985a2.665 2.665 0 0 0-.348-.023c-.784 0-1.511.347-1.994.953a2.438 2.438 0 0 0-.522 1.834 2.47 2.47 0 0 0 .953 1.664c.449.346.989.529 1.561.529.783 0 1.511-.348 1.993-.953a2.438 2.438 0 0 0 .522-1.834 2.487 2.487 0 0 0-.161-.625l6.62-8.295c.526-.66.635-1.421.311-2.199a3.064 3.064 0 0 0-.636-.958.28.28 0 0 0-.195-.078h-.018a.28.28 0 0 0-.2.104l-4.775 5.97c-.585.734-1.611 2.033-1.611 2.033l-1.5 1.878zm1.201 2.652a1.514 1.514 0 0 1-.589 1.026 1.554 1.554 0 0 1-.961.326c-.483 0-.932-.215-1.229-.588a1.517 1.517 0 0 1 .266-2.157c.276-.214.61-.325.962-.325.483 0 .932.212 1.229.586.258.322.372.724.322 1.132zM6 7.748c.201 0 .364.162.364.36a.363.363 0 0 1-.727-.001A.36.36 0 0 1 6 7.748zm0 0"/><path clip-path="url(#b)" fill="#9B9A9A" d="M.494 3.235l3.409 4.273c.478-.598 1.038-1.302 1.618-2.027L1.23.104A.277.277 0 0 0 1.03 0h-.017a.281.281 0 0 0-.195.078c-.017.016-.4.391-.636.958-.323.778-.215 1.54.312 2.199zm0 0"/></svg>