<svg xmlns="http://www.w3.org/2000/svg" xmlns:xlink="http://www.w3.org/1999/xlink" width="12" height="15" viewBox="0 0 12 15"><defs><path id="a" d="M0 0h12v15H0z"/></defs><clipPath id="b"><use xlink:href="#a" overflow="visible"/></clipPath><path clip-path="url(#b)" fill="#9B9A9A" d="M9.465 9.954a2.6 2.6 0 0 0-.354.024L8.09 8.7l-1.615 2.03.64.8c-.08.2-.136.41-.16.626a2.44 2.44 0 0 0 .52 1.834c.483.605 1.21.953 1.994.953.57 0 1.108-.185 1.56-.53a2.467 2.467 0 0 0 .43-3.502 2.545 2.545 0 0 0-1.995-.956zm1.554 2.683c-.052.41-.26.772-.59 1.026-.277.214-.61.326-.962.326-.483 0-.932-.216-1.23-.59a1.52 1.52 0 0 1 .265-2.157c.28-.213.61-.324.964-.324.483 0 .932.21 1.23.585.257.322.37.724.322 1.132zm0 0"/><path clip-path="url(#b)" fill="#9B9A9A" d="M2.883 9.985a2.665 2.665 0 0 0-.348-.023c-.784 0-1.51.347-1.994.953a2.438 2.438 0 0 0-.52 1.834c.08.66.42 1.25.952 1.663.45.346.99.53 1.56.53.784 0 1.512-.35 1.994-.954a2.438 2.438 0 0 0 .522-1.835 2.487 2.487 0 0 0-.16-.625c.798-1 5.586-7.002 6.62-8.295.525-.66.634-1.42.31-2.2a3.064 3.064 0 0 0-.636-.957.28.28 0 0 0-.195-.078h-.018a.28.28 0 0 0-.2.104l-4.776 5.97c-.585.734-1.61 2.033-1.61 2.033l-1.5 1.878zm1.2 2.652c-.048.41-.258.772-.588 1.026-.276.214-.61.326-.96.326-.484 0-.933-.216-1.23-.59a1.517 1.517 0 0 1 .266-2.157c.276-.213.61-.324.962-.324.483 0 .932.21 1.23.585.257.322.37.724.32 1.132zM6 7.747c.2 0 .364.163.364.36a.363.363 0 0 1-.727 0A.36.36 0 0 1 6 7.747zm0 0"/><path clip-path="url(#b)" fill="#9B9A9A" d="M.494 3.235l3.41 4.273C4.38 6.91 4.94 6.206 5.52 5.48L1.23.105A.277.277 0 0 0 1.03 0h-.017a.28.28 0 0 0-.195.078c-.017.016-.4.39-.636.958-.323.778-.215 1.54.312 2.2zm0 0"/></svg>