<svg xmlns="http://www.w3.org/2000/svg" width="14" height="13" viewBox="0 0 14 13"><g fill="#9B9A9A"><path d="M1.986 3.94a.338.338 0 0 1-.206-.612l1.895-1.384a.344.344 0 0 1 .48.072.334.334 0 0 1-.07.474L2.188 3.875a.344.344 0 0 1-.204.066zm0 0M2.173 5.722a.345.345 0 0 1-.28-.144.337.337 0 0 1 .08-.473l4.064-2.84a.347.347 0 0 1 .48.082.338.338 0 0 1-.083.473L2.37 5.66a.335.335 0 0 1-.197.062zm0 0"/><path d="M13.424 0H.576A.574.574 0 0 0 0 .57v9.77c0 .312.26.567.576.567h4.69s.167-.01.167.152v.85c0 .08-.006.132-.102.132H4.11a.482.482 0 0 0-.485.48c0 .263.218.478.485.478h5.78a.48.48 0 0 0 .485-.48.482.482 0 0 0-.485-.478H8.656c-.07 0-.09-.042-.09-.09v-.92c0-.127.12-.125.12-.125h4.737A.574.574 0 0 0 14 10.34V.57a.573.573 0 0 0-.576-.57zM7.596 11.062v.877c0 .046-.024.1-.095.1H6.5c-.09 0-.093-.047-.093-.12v-.85c0-.125.15-.13.15-.13h.913s.128-.007.128.122zM7 10.278a.56.56 0 0 1-.566-.56c0-.308.254-.558.566-.558s.566.25.566.56a.56.56 0 0 1-.566.558zm6.152-2.156a.57.57 0 0 1-.575.567H1.424a.574.574 0 0 1-.576-.568V1.507c0-.313.26-.567.576-.567h11.153c.317 0 .575.255.575.567v6.615zm0 0"/></g></svg>