<svg xmlns="http://www.w3.org/2000/svg" xmlns:xlink="http://www.w3.org/1999/xlink" width="12" height="12" viewBox="0 0 12 12"><defs><path id="a" d="M0 0h12v12H0z"/></defs><clipPath id="b"><use xlink:href="#a" overflow="visible"/></clipPath><path clip-path="url(#b)" fill-rule="evenodd" clip-rule="evenodd" fill="#919090" d="M11.67 10.25l-2.6-2.598c-.013-.012-.028-.023-.044-.036a4.882 4.882 0 0 0 .812-2.701A4.918 4.918 0 0 0 4.92 0 4.917 4.917 0 0 0 0 4.915a4.918 4.918 0 0 0 7.619 4.106c.016.014.023.031.039.045l2.598 2.597a1 1 0 0 0 1.414-1.413zM4.92 8.127c-1.775 0-3.215-1.438-3.215-3.212s1.44-3.211 3.215-3.211c1.773 0 3.213 1.438 3.213 3.211S6.693 8.127 4.92 8.127zm0 0"/></svg>