<svg xmlns="http://www.w3.org/2000/svg" width="16" height="16" viewBox="0 0 16 16"><path fill="#929BA5" d="M14.773 7.248l-3.012 3.009a4.254 4.254 0 0 1-6.02 0 4.22 4.22 0 0 1-.645-.858L6.496 8c.064-.066.146-.105.227-.15.096.331.266.643.525.903.83.83 2.18.829 3.01 0l3.01-3.01a2.129 2.129 0 0 0-3.01-3.01l-1.07 1.071a5.355 5.355 0 0 0-2.717-.296l2.281-2.28a4.255 4.255 0 0 1 6.021 0 4.256 4.256 0 0 1 0 6.02zm-7.96 4.948l-1.07 1.072c-.83.83-2.18.83-3.01 0s-.83-2.18 0-3.012l3.01-3.009a2.129 2.129 0 0 1 3.01 0c.26.259.43.572.525.901.079-.044.16-.081.226-.148l1.4-1.398a4.24 4.24 0 0 0-.646-.859 4.257 4.257 0 0 0-6.021 0l-3.01 3.01a4.259 4.259 0 0 0 0 6.021 4.262 4.262 0 0 0 6.021 0l2.281-2.281a5.34 5.34 0 0 1-2.716-.297zm0 0"/></svg>