<svg xmlns="http://www.w3.org/2000/svg" width="18" height="18" viewBox="0 0 18 18"><path fill="#428CBB" d="M17.324 6.203A8.558 8.558 0 0 0 15.51 3.49a8.61 8.61 0 0 0-2.711-1.814A8.28 8.28 0 0 0 9.5 1a8.306 8.306 0 0 0-3.148.615 8.585 8.585 0 0 0-2.707 1.732L2.206 1.92c-.222-.229-.476-.281-.764-.156-.296.126-.442.343-.442.654v4.957c0 .192.07.358.21.498.14.141.306.211.498.211h4.958c.312 0 .529-.148.654-.443.125-.287.073-.541-.155-.764L5.648 5.35c.518-.487 1.108-.862 1.772-1.123s1.357-.393 2.08-.393c.768 0 1.5.148 2.197.447.697.3 1.301.703 1.811 1.213.508.51.912 1.111 1.211 1.809.298.697.449 1.429.449 2.197s-.151 1.5-.449 2.197a5.748 5.748 0 0 1-1.211 1.811c-.51.508-1.113.912-1.811 1.211s-1.43.448-2.197.448a5.588 5.588 0 0 1-2.49-.575 5.533 5.533 0 0 1-1.98-1.627c-.052-.073-.138-.118-.255-.133a.39.39 0 0 0-.276.1l-1.517 1.527a.325.325 0 0 0-.095.226.4.4 0 0 0 .073.251 8.275 8.275 0 0 0 2.922 2.262A8.432 8.432 0 0 0 9.5 18c1.15 0 2.251-.225 3.299-.674 1.047-.451 1.951-1.057 2.711-1.816s1.365-1.664 1.816-2.711C17.773 11.751 18 10.65 18 9.5s-.227-2.25-.676-3.297zm0 0"/><path fill="#FFF" d="M16.324 5.203A8.558 8.558 0 0 0 14.51 2.49 8.61 8.61 0 0 0 11.799.676 8.28 8.28 0 0 0 8.5 0a8.306 8.306 0 0 0-3.148.615 8.585 8.585 0 0 0-2.707 1.732L1.206.92C.984.691.73.639.442.764.146.89 0 1.107 0 1.418v4.957c0 .192.07.358.21.498.14.141.306.211.498.211h4.958c.312 0 .529-.148.654-.443.125-.287.073-.541-.155-.764L4.648 4.35c.518-.487 1.108-.862 1.772-1.123s1.357-.393 2.08-.393c.768 0 1.5.148 2.197.447.697.3 1.301.703 1.811 1.213.508.51.912 1.111 1.211 1.809.298.697.449 1.429.449 2.197s-.151 1.5-.449 2.197a5.748 5.748 0 0 1-1.211 1.811c-.51.508-1.113.912-1.811 1.211s-1.43.448-2.197.448a5.588 5.588 0 0 1-2.49-.575 5.533 5.533 0 0 1-1.98-1.627c-.052-.073-.138-.118-.255-.133a.39.39 0 0 0-.276.1l-1.517 1.527a.325.325 0 0 0-.095.226.4.4 0 0 0 .073.251 8.275 8.275 0 0 0 2.922 2.262A8.432 8.432 0 0 0 8.5 17c1.15 0 2.251-.225 3.299-.674 1.047-.451 1.951-1.057 2.711-1.816s1.365-1.664 1.816-2.711C16.773 10.751 17 9.65 17 8.5s-.227-2.25-.676-3.297zm0 0"/></svg>