<?xml version="1.0" encoding="utf-8"?>
<!-- Generator: Adobe Illustrator 16.0.0, SVG Export Plug-In . SVG Version: 6.00 Build 0)  -->
<!DOCTYPE svg PUBLIC "-//W3C//DTD SVG 1.1//EN" "http://www.w3.org/Graphics/SVG/1.1/DTD/svg11.dtd">
<svg version="1.1" id="Layer_1" xmlns="http://www.w3.org/2000/svg" xmlns:xlink="http://www.w3.org/1999/xlink" x="0px" y="0px"
	 width="18.1px" height="18.1px" viewBox="0 0 18.1 18.1" enable-background="new 0 0 18.1 18.1" xml:space="preserve">
<g>
	<g>
		<g>
			<g>
				<path fill="none" stroke="#9B9A9A" stroke-width="1.051" stroke-miterlimit="10" d="M17.55,17.13c0,0.23-0.189,0.42-0.42,0.42
					H8.569c-0.231,0-0.42-0.189-0.42-0.42V8.659c0-0.231,0.189-0.42,0.42-0.42h8.561c0.23,0,0.42,0.189,0.42,0.42V17.13z"/>
			</g>
			<g>
				<path fill="#9B9A9A" d="M13.75,13.286c0,0.23-0.189,0.42-0.42,0.42H4.77c-0.231,0-0.42-0.189-0.42-0.42V4.814
					c0-0.231,0.189-0.42,0.42-0.42h8.56c0.23,0,0.42,0.189,0.42,0.42V13.286z"/>
				<path fill="none" stroke="#9A9A99" stroke-width="1.051" stroke-miterlimit="10" d="M13.75,13.286c0,0.23-0.189,0.42-0.42,0.42
					H4.77c-0.231,0-0.42-0.189-0.42-0.42V4.814c0-0.231,0.189-0.42,0.42-0.42h8.56c0.23,0,0.42,0.189,0.42,0.42V13.286z"/>
			</g>
			<g>
				<path fill="#F4F6F7" d="M9.951,9.442c0,0.231-0.189,0.42-0.42,0.42H0.97c-0.231,0-0.42-0.189-0.42-0.42V0.97
					c0-0.231,0.189-0.42,0.42-0.42h8.561c0.231,0,0.42,0.189,0.42,0.42V9.442z"/>
				<path fill="none" stroke="#9B9A9A" stroke-width="1.051" stroke-miterlimit="10" d="M9.951,9.442c0,0.231-0.189,0.42-0.42,0.42
					H0.97c-0.231,0-0.42-0.189-0.42-0.42V0.97c0-0.231,0.189-0.42,0.42-0.42h8.561c0.231,0,0.42,0.189,0.42,0.42V9.442z"/>
			</g>
		</g>
	</g>
</g>
</svg>
