<?xml version="1.0" encoding="utf-8"?>
<!-- Generator: Adobe Illustrator 16.0.0, SVG Export Plug-In . SVG Version: 6.00 Build 0)  -->
<!DOCTYPE svg PUBLIC "-//W3C//DTD SVG 1.1//EN" "http://www.w3.org/Graphics/SVG/1.1/DTD/svg11.dtd">
<svg version="1.1" id="Layer_1" xmlns="http://www.w3.org/2000/svg" xmlns:xlink="http://www.w3.org/1999/xlink" x="0px" y="0px"
	 width="20.54px" height="19.05px" viewBox="0 0 20.54 19.05" enable-background="new 0 0 20.54 19.05" xml:space="preserve">
<g>
	<g>
		<path fill="#428CBB" d="M20.541,0.953"/>
		<path fill="#428CBB" d="M7.424,0.953"/>
		<path fill="#428CBB" d="M7.424,18.206"/>
		<path fill="#428CBB" d="M20.541,12.779"/>
		<path fill="#428CBB" d="M13.082,9.581"/>
	</g>
	<g>
		<g>
			<path fill="#65BD61" d="M19.598,0.001h-5.744c-0.406,0-0.738,0.331-0.738,0.74v0.316c0,0.408,0.332,0.739,0.738,0.739h4.688
				v4.688c0,0.408,0.332,0.739,0.74,0.739h0.316c0.408,0,0.738-0.331,0.738-0.739V0.741C20.336,0.332,20.006,0.001,19.598,0.001
				L19.598,0.001z M19.598,0.001"/>
			<path fill="#65BD61" d="M6.481,0.001H0.737c-0.408,0-0.738,0.331-0.738,0.74v5.743c0,0.408,0.33,0.739,0.738,0.739h0.316
				c0.409,0,0.74-0.331,0.74-0.739V1.797h4.688c0.407,0,0.738-0.331,0.738-0.739V0.741C7.22,0.332,6.889,0.001,6.481,0.001
				L6.481,0.001z M6.481,0.001"/>
			<path fill="#65BD61" d="M6.481,17.253H1.794v-4.688c0-0.406-0.331-0.738-0.74-0.738H0.737c-0.408,0-0.738,0.332-0.738,0.738
				v5.744c0,0.408,0.33,0.739,0.738,0.739h5.744c0.407,0,0.738-0.331,0.738-0.739v-0.316C7.22,17.585,6.889,17.253,6.481,17.253
				L6.481,17.253z M6.481,17.253"/>
			<path fill="#65BD61" d="M19.598,11.827h-0.316c-0.408,0-0.74,0.332-0.74,0.738v4.688h-4.688c-0.406,0-0.738,0.332-0.738,0.74
				v0.316c0,0.408,0.332,0.739,0.738,0.739h5.744c0.408,0,0.738-0.331,0.738-0.739v-5.744
				C20.336,12.159,20.006,11.827,19.598,11.827L19.598,11.827z M19.598,11.827"/>
			<path fill="#65BD61" d="M12.139,8.628h-1.072V7.553c0-0.408-0.331-0.739-0.74-0.739H10.01c-0.409,0-0.74,0.331-0.74,0.739v1.075
				H8.196c-0.407,0-0.739,0.331-0.739,0.738v0.317c0,0.409,0.332,0.74,0.739,0.74H9.27v1.074c0,0.408,0.331,0.74,0.74,0.74h0.316
				c0.409,0,0.74-0.332,0.74-0.74v-1.074h1.072c0.408,0,0.738-0.331,0.738-0.74V9.367C12.877,8.959,12.547,8.628,12.139,8.628
				L12.139,8.628z M12.139,8.628"/>
		</g>
	</g>
</g>
</svg>
