<?xml version="1.0" encoding="utf-8"?>
<!-- Generator: Adobe Illustrator 16.0.0, SVG Export Plug-In . SVG Version: 6.00 Build 0)  -->
<!DOCTYPE svg PUBLIC "-//W3C//DTD SVG 1.1//EN" "http://www.w3.org/Graphics/SVG/1.1/DTD/svg11.dtd">
<svg version="1.1" id="Layer_1" xmlns="http://www.w3.org/2000/svg" xmlns:xlink="http://www.w3.org/1999/xlink" x="0px" y="0px"
	 width="24px" height="17px" viewBox="0 0 24 17" enable-background="new 0 0 24 17" xml:space="preserve">
<g>
	<g>
		<path fill="#929BA5" d="M18.763,10.924c0.353,0.182,0.528,0.49,0.528,0.926v4.142c0,0.272-0.08,0.509-0.238,0.709
			c-0.159,0.199-0.363,0.3-0.609,0.3H5.451c-0.229,0-0.423-0.101-0.583-0.3c-0.158-0.2-0.239-0.437-0.239-0.709V11.85
			c0-0.436,0.177-0.744,0.529-0.926l3.652-1.743L10.24,8.5C9.569,8.082,9.057,7.482,8.705,6.702
			c-0.334-0.69-0.502-1.426-0.502-2.208c0-0.235,0.018-0.462,0.052-0.68s0.081-0.427,0.132-0.627
			C8.636,2.261,9.08,1.499,9.725,0.898C10.369,0.3,11.113,0,11.961,0c0.864,0,1.622,0.309,2.275,0.927
			c0.652,0.617,1.094,1.397,1.324,2.343c0.088,0.454,0.131,0.862,0.131,1.225c0,0.727-0.141,1.427-0.424,2.1
			c-0.352,0.816-0.863,1.434-1.535,1.851l1.508,0.736L18.763,10.924z M4.629,9.781c-0.388,0.18-0.692,0.457-0.912,0.829
			c-0.221,0.372-0.331,0.786-0.331,1.239v3.515H0.662c-0.196,0-0.354-0.077-0.477-0.231S0,14.784,0,14.548v-3.323
			c0-0.4,0.141-0.653,0.421-0.764L4.524,8.5C4.029,8.191,3.633,7.752,3.333,7.179c-0.3-0.572-0.45-1.213-0.45-1.92
			c0-0.491,0.081-0.958,0.238-1.403c0.16-0.446,0.375-0.831,0.648-1.158c0.273-0.326,0.592-0.586,0.954-0.776
			c0.36-0.19,0.754-0.285,1.175-0.285c0.283,0,0.548,0.045,0.794,0.137c0.248,0.09,0.487,0.207,0.715,0.353
			c-0.3,0.764-0.45,1.554-0.45,2.369c0,0.637,0.088,1.25,0.265,1.84c0.175,0.59,0.423,1.121,0.741,1.594
			c-0.196,0.218-0.396,0.39-0.61,0.517L4.629,9.781z M23.578,10.461"/>
	</g>
</g>
<g>
	<g>
		<path fill="#929BA5" d="M16.645,8.405c-0.213-0.127-0.413-0.299-0.609-0.518c0.317-0.473,0.565-1.004,0.74-1.593
			c0.178-0.59,0.266-1.203,0.266-1.84c0-0.815-0.15-1.605-0.449-2.369c0.229-0.146,0.467-0.263,0.715-0.353
			c0.246-0.092,0.512-0.137,0.795-0.137c0.42,0,0.814,0.095,1.175,0.285c0.361,0.19,0.681,0.45,0.954,0.776
			c0.273,0.327,0.488,0.712,0.648,1.158c0.157,0.445,0.238,0.912,0.238,1.403c0,0.707-0.15,1.348-0.45,1.92
			c-0.3,0.572-0.696,1.012-1.19,1.32l4.102,1.961C23.859,10.532,24,10.784,24,11.185v3.324c0,0.236-0.062,0.43-0.185,0.584
			s-0.28,0.232-0.478,0.232h-2.725V11.81c0-0.453-0.109-0.867-0.331-1.238c-0.22-0.373-0.523-0.65-0.911-0.83L16.645,8.405z
			 M0.422,10.421"/>
	</g>
</g>
</svg>
