<?xml version="1.0" encoding="utf-8"?>
<!-- Generator: Adobe Illustrator 16.0.0, SVG Export Plug-In . SVG Version: 6.00 Build 0)  -->
<!DOCTYPE svg PUBLIC "-//W3C//DTD SVG 1.1//EN" "http://www.w3.org/Graphics/SVG/1.1/DTD/svg11.dtd">
<svg version="1.1" id="Layer_1" xmlns="http://www.w3.org/2000/svg" xmlns:xlink="http://www.w3.org/1999/xlink" x="0px" y="0px"
	 width="12px" height="15px" viewBox="0 0 12 15" enable-background="new 0 0 12 15" xml:space="preserve">
<g>
	<g>
		<defs>
			<rect id="SVGID_1_" width="12" height="15"/>
		</defs>
		<clipPath id="SVGID_2_">
			<use xlink:href="#SVGID_1_"  overflow="visible"/>
		</clipPath>
		<path clip-path="url(#SVGID_2_)" fill="#9B9A9A" d="M9.465,9.954L9.465,9.954c-0.12,0-0.237,0.008-0.354,0.024l-1.02-1.277
			C7.494,9.45,6.93,10.157,6.475,10.729l0.64,0.802c-0.081,0.198-0.136,0.408-0.161,0.625c-0.082,0.66,0.104,1.311,0.521,1.834
			c0.483,0.605,1.211,0.953,1.994,0.953c0.571,0,1.109-0.185,1.56-0.531c0.534-0.41,0.872-1.002,0.954-1.664
			c0.08-0.659-0.106-1.313-0.522-1.837C10.976,10.306,10.25,9.954,9.465,9.954L9.465,9.954z M11.019,12.637
			c-0.051,0.409-0.259,0.772-0.589,1.026c-0.277,0.214-0.609,0.326-0.962,0.326c-0.483,0-0.932-0.215-1.229-0.588
			c-0.257-0.322-0.373-0.725-0.322-1.133c0.05-0.408,0.259-0.771,0.587-1.024c0.279-0.214,0.61-0.325,0.963-0.325h0.001
			c0.482,0,0.931,0.212,1.229,0.586C10.954,11.827,11.068,12.229,11.019,12.637L11.019,12.637z M11.019,12.637"/>
		<path clip-path="url(#SVGID_2_)" fill="#9B9A9A" d="M2.883,9.985C2.77,9.97,2.652,9.962,2.535,9.962
			c-0.784,0-1.511,0.347-1.994,0.953c-0.417,0.522-0.604,1.174-0.522,1.834c0.081,0.662,0.42,1.252,0.953,1.664
			c0.449,0.346,0.989,0.529,1.561,0.529c0.783,0,1.511-0.348,1.993-0.953c0.418-0.522,0.603-1.174,0.522-1.834
			c-0.026-0.217-0.082-0.427-0.161-0.625c0.799-1.001,5.587-7.002,6.62-8.295c0.526-0.66,0.635-1.421,0.311-2.199
			c-0.234-0.568-0.619-0.942-0.636-0.958C11.13,0.028,11.061,0,10.987,0c-0.006,0-0.012,0-0.018,0
			c-0.078,0.005-0.151,0.043-0.2,0.104l-4.775,5.97C5.409,6.808,4.383,8.107,4.383,8.107L2.883,9.985z M4.084,12.637
			c-0.049,0.409-0.259,0.772-0.589,1.026c-0.276,0.214-0.609,0.326-0.961,0.326c-0.483,0-0.932-0.215-1.229-0.588
			c-0.258-0.322-0.372-0.725-0.323-1.133c0.051-0.408,0.259-0.771,0.589-1.024c0.276-0.214,0.61-0.325,0.962-0.325l0,0
			c0.483,0,0.932,0.212,1.229,0.586C4.02,11.827,4.134,12.229,4.084,12.637L4.084,12.637z M6,7.748c0.201,0,0.364,0.162,0.364,0.36
			c0,0.199-0.163,0.361-0.364,0.361S5.637,8.307,5.637,8.107C5.637,7.909,5.799,7.748,6,7.748L6,7.748z M6,7.748"/>
		<path clip-path="url(#SVGID_2_)" fill="#9B9A9A" d="M0.494,3.235c0.517,0.648,1.979,2.481,3.409,4.273
			c0.478-0.598,1.038-1.302,1.618-2.027L1.23,0.104C1.182,0.043,1.109,0.005,1.03,0C1.024,0,1.019,0,1.013,0
			C0.94,0,0.87,0.028,0.818,0.078c-0.017,0.016-0.4,0.391-0.636,0.958C-0.141,1.814-0.033,2.576,0.494,3.235L0.494,3.235z
			 M0.494,3.235"/>
	</g>
</g>
</svg>
