<?xml version="1.0" encoding="utf-8"?>
<!-- Generator: Adobe Illustrator 16.0.0, SVG Export Plug-In . SVG Version: 6.00 Build 0)  -->
<!DOCTYPE svg PUBLIC "-//W3C//DTD SVG 1.1//EN" "http://www.w3.org/Graphics/SVG/1.1/DTD/svg11.dtd">
<svg version="1.1" id="Layer_1" xmlns="http://www.w3.org/2000/svg" xmlns:xlink="http://www.w3.org/1999/xlink" x="0px" y="0px"
	 width="11.99px" height="12px" viewBox="0 0 11.99 12" enable-background="new 0 0 11.99 12" xml:space="preserve">
<g>
	<g>
		<defs>
			<rect id="SVGID_1_" x="-0.001" width="11.994" height="12"/>
		</defs>
		<clipPath id="SVGID_2_">
			<use xlink:href="#SVGID_1_"  overflow="visible"/>
		</clipPath>
		<path clip-path="url(#SVGID_2_)" fill-rule="evenodd" clip-rule="evenodd" fill="#919090" d="M11.662,10.25L9.064,7.652
			C9.051,7.64,9.035,7.629,9.02,7.616C9.531,6.842,9.83,5.913,9.83,4.915C9.83,2.201,7.629,0,4.916,0C2.2,0-0.001,2.201-0.001,4.915
			c0,2.715,2.201,4.916,4.917,4.916c0.996,0,1.923-0.298,2.698-0.81c0.016,0.014,0.023,0.031,0.039,0.045l2.596,2.597
			c0.391,0.39,1.021,0.39,1.414,0C12.053,11.273,12.053,10.641,11.662,10.25L11.662,10.25z M4.916,8.127
			c-1.774,0-3.213-1.438-3.213-3.212s1.438-3.211,3.213-3.211c1.772,0,3.211,1.438,3.211,3.211S6.688,8.127,4.916,8.127L4.916,8.127
			z M4.916,8.127"/>
	</g>
</g>
</svg>
