<?xml version="1.0" encoding="utf-8"?>
<!-- Generator: Adobe Illustrator 16.0.0, SVG Export Plug-In . SVG Version: 6.00 Build 0)  -->
<!DOCTYPE svg PUBLIC "-//W3C//DTD SVG 1.1//EN" "http://www.w3.org/Graphics/SVG/1.1/DTD/svg11.dtd">
<svg version="1.1" id="Layer_1" xmlns="http://www.w3.org/2000/svg" xmlns:xlink="http://www.w3.org/1999/xlink" x="0px" y="0px"
	 width="11.66px" height="11.66px" viewBox="0 0 11.66 11.66" enable-background="new 0 0 11.66 11.66" xml:space="preserve">
<g>
	<path fill="#65C6BB" d="M11.66,5.1c0-0.305-0.249-0.555-0.555-0.555h-0.882c-0.093-0.316-0.219-0.623-0.379-0.913l0.624-0.624
		c0.103-0.103,0.162-0.246,0.162-0.393c0-0.148-0.058-0.287-0.162-0.393L9.437,1.191c-0.201-0.201-0.583-0.201-0.784,0L8.028,1.815
		c-0.29-0.159-0.597-0.286-0.914-0.379V0.555C7.114,0.249,6.865,0,6.56,0H5.101C4.795,0,4.546,0.249,4.546,0.555v0.882
		c-0.317,0.093-0.624,0.22-0.914,0.379L3.008,1.191c-0.209-0.209-0.574-0.209-0.784,0L1.191,2.224c-0.216,0.216-0.216,0.567,0,0.784
		l0.624,0.624c-0.159,0.29-0.286,0.597-0.379,0.913H0.555C0.249,4.545,0,4.795,0,5.1v1.459c0,0.307,0.249,0.555,0.555,0.555h0.882
		c0.093,0.318,0.22,0.625,0.379,0.915L1.191,8.652C1.089,8.755,1.029,8.898,1.029,9.045c0,0.147,0.058,0.287,0.162,0.392
		l1.032,1.032c0.201,0.201,0.583,0.201,0.784,0l0.624-0.624c0.29,0.159,0.597,0.286,0.914,0.379v0.882
		c0,0.306,0.249,0.555,0.555,0.555H6.56c0.306,0,0.555-0.249,0.555-0.555v-0.882c0.317-0.093,0.624-0.22,0.914-0.379l0.624,0.624
		c0.209,0.209,0.574,0.209,0.784,0l1.032-1.032c0.216-0.216,0.216-0.568,0-0.784L9.845,8.028c0.16-0.29,0.286-0.597,0.379-0.915
		h0.882c0.306,0,0.555-0.248,0.555-0.553V5.1z M7.851,5.83c0,1.113-0.907,2.02-2.021,2.02c-1.114,0-2.02-0.906-2.02-2.02
		s0.905-2.02,2.02-2.02C6.943,3.811,7.851,4.717,7.851,5.83L7.851,5.83z M7.851,5.83"/>
</g>
</svg>
