<?xml version="1.0" encoding="utf-8"?>
<!-- Generator: Adobe Illustrator 16.0.0, SVG Export Plug-In . SVG Version: 6.00 Build 0)  -->
<!DOCTYPE svg PUBLIC "-//W3C//DTD SVG 1.1//EN" "http://www.w3.org/Graphics/SVG/1.1/DTD/svg11.dtd">
<svg version="1.1" id="Layer_1" xmlns="http://www.w3.org/2000/svg" xmlns:xlink="http://www.w3.org/1999/xlink" x="0px" y="0px"
	 width="16px" height="16px" viewBox="0 0 16 16" enable-background="new 0 0 16 16" xml:space="preserve">
<path fill="#929BA5" d="M14.773,7.248l-3.012,3.009c-1.662,1.664-4.357,1.664-6.02,0C5.48,9.997,5.275,9.702,5.096,9.399L6.496,8
	c0.064-0.066,0.146-0.105,0.227-0.15c0.096,0.331,0.266,0.643,0.525,0.903c0.83,0.83,2.18,0.829,3.01,0l3.01-3.01
	c0.83-0.83,0.83-2.18,0-3.01c-0.83-0.831-2.18-0.831-3.01,0l-1.07,1.071C8.318,3.466,7.383,3.375,6.471,3.508l2.281-2.28
	c1.662-1.664,4.357-1.664,6.021,0C16.436,2.89,16.436,5.585,14.773,7.248L14.773,7.248z M6.813,12.196l-1.07,1.072
	c-0.83,0.83-2.18,0.83-3.01,0s-0.83-2.18,0-3.012l3.01-3.009c0.83-0.831,2.18-0.831,3.01,0c0.26,0.259,0.43,0.572,0.525,0.901
	C9.357,8.104,9.438,8.067,9.504,8l1.4-1.398c-0.18-0.305-0.385-0.598-0.646-0.859c-1.662-1.663-4.359-1.663-6.021,0l-3.01,3.01
	c-1.662,1.662-1.662,4.357,0,6.021c1.662,1.66,4.357,1.66,6.021,0l2.281-2.281C8.617,12.626,7.682,12.535,6.813,12.196L6.813,12.196
	z M6.813,12.196"/>
</svg>
