<?xml version="1.0" encoding="utf-8"?>
<!-- Generator: Adobe Illustrator 16.0.0, SVG Export Plug-In . SVG Version: 6.00 Build 0)  -->
<!DOCTYPE svg PUBLIC "-//W3C//DTD SVG 1.1//EN" "http://www.w3.org/Graphics/SVG/1.1/DTD/svg11.dtd">
<svg version="1.1" id="Layer_1" xmlns="http://www.w3.org/2000/svg" xmlns:xlink="http://www.w3.org/1999/xlink" x="0px" y="0px"
	 width="13.5px" height="13.5px" viewBox="0 0 13.5 13.5" enable-background="new 0 0 13.5 13.5" xml:space="preserve">
<g>
	<path fill="#9B9A9A" d="M0.37,11.343c-0.493,0.494-0.493,1.293,0,1.787c0.248,0.246,0.573,0.37,0.894,0.37
		c0.325,0,0.65-0.124,0.896-0.37l4.148-4.153L4.523,7.19L0.37,11.343z M0.37,11.343"/>
	<path fill="#9B9A9A" d="M10.746,3.647l1.808-0.936L13.5,0.881L12.619,0l-1.832,0.946L9.854,2.753L7.651,4.956l0.894,0.893
		L10.746,3.647z M10.746,3.647"/>
	<path fill="#9B9A9A" d="M11.141,8.446L10.973,8.43c-0.309,0-0.601,0.062-0.877,0.165l-5.19-5.191
		C5.009,3.129,5.07,2.835,5.07,2.526L5.054,2.358C4.964,1.041,3.882,0,2.544,0C2.153,0,1.786,0.095,1.457,0.25l1.68,1.685
		c0.089,0.086,0.152,0.194,0.189,0.301c0.11,0.299,0.054,0.649-0.189,0.889C2.971,3.288,2.757,3.37,2.544,3.37
		c-0.104,0-0.202-0.02-0.293-0.057C2.14,3.271,2.033,3.215,1.947,3.124l-1.68-1.679c-0.16,0.33-0.255,0.695-0.255,1.082
		c0,1.342,1.046,2.425,2.358,2.515l0.173,0.018c0.308,0,0.601-0.067,0.872-0.166l5.19,5.19c-0.098,0.271-0.164,0.563-0.164,0.872
		l0.018,0.174c0.09,1.313,1.172,2.357,2.514,2.357c0.387,0,0.754-0.094,1.082-0.255l-1.679-1.68c-0.091-0.087-0.149-0.192-0.194-0.3
		c-0.106-0.301-0.049-0.65,0.194-0.89c0.164-0.164,0.378-0.247,0.597-0.247c0.098,0,0.197,0.021,0.291,0.058
		c0.107,0.042,0.215,0.1,0.302,0.189l1.683,1.679c0.156-0.328,0.252-0.695,0.252-1.086C13.5,9.618,12.457,8.536,11.141,8.446
		L11.141,8.446z M11.141,8.446"/>
</g>
</svg>
