<?xml version="1.0" encoding="utf-8"?>
<!-- Generator: Adobe Illustrator 16.0.0, SVG Export Plug-In . SVG Version: 6.00 Build 0)  -->
<!DOCTYPE svg PUBLIC "-//W3C//DTD SVG 1.1//EN" "http://www.w3.org/Graphics/SVG/1.1/DTD/svg11.dtd">
<svg version="1.1" id="Layer_1" xmlns="http://www.w3.org/2000/svg" xmlns:xlink="http://www.w3.org/1999/xlink" x="0px" y="0px"
	 width="18px" height="18px" viewBox="0 0 18 18" enable-background="new 0 0 18 18" xml:space="preserve">
<g>
	<g>
		<path fill="#428CBB" d="M17.324,6.203C16.875,5.155,16.27,4.25,15.51,3.49c-0.76-0.759-1.664-1.363-2.711-1.814
			C11.751,1.226,10.65,1,9.5,1C8.416,1,7.366,1.204,6.352,1.615C5.337,2.023,4.436,2.602,3.645,3.347L2.206,1.92
			C1.984,1.691,1.73,1.639,1.442,1.764C1.146,1.89,1,2.107,1,2.418v4.957c0,0.192,0.07,0.358,0.21,0.498
			c0.14,0.141,0.306,0.211,0.498,0.211h4.958c0.312,0,0.529-0.148,0.654-0.443C7.445,7.354,7.393,7.1,7.165,6.877L5.648,5.35
			C6.166,4.863,6.756,4.488,7.42,4.227S8.777,3.834,9.5,3.834c0.768,0,1.5,0.148,2.197,0.447c0.697,0.3,1.301,0.703,1.811,1.213
			c0.508,0.51,0.912,1.111,1.211,1.809C15.017,8,15.168,8.732,15.168,9.5s-0.151,1.5-0.449,2.197
			c-0.299,0.697-0.703,1.301-1.211,1.811c-0.51,0.508-1.113,0.912-1.811,1.211s-1.43,0.448-2.197,0.448
			c-0.879,0-1.707-0.192-2.49-0.575c-0.783-0.384-1.443-0.926-1.98-1.627c-0.052-0.073-0.138-0.118-0.255-0.133
			c-0.111,0-0.204,0.033-0.276,0.1l-1.517,1.527c-0.06,0.06-0.091,0.134-0.095,0.226c-0.003,0.094,0.021,0.177,0.073,0.251
			c0.803,0.973,1.776,1.728,2.922,2.262C7.025,17.733,8.231,18,9.5,18c1.15,0,2.251-0.225,3.299-0.674
			c1.047-0.451,1.951-1.057,2.711-1.816s1.365-1.664,1.816-2.711C17.773,11.751,18,10.65,18,9.5S17.773,7.25,17.324,6.203
			L17.324,6.203z M17.324,6.203"/>
	</g>
	<g>
		<path fill="#FFFFFF" d="M16.324,5.203C15.875,4.155,15.27,3.25,14.51,2.49c-0.76-0.759-1.664-1.363-2.711-1.814
			C10.751,0.226,9.65,0,8.5,0C7.416,0,6.366,0.204,5.352,0.615C4.337,1.023,3.436,1.602,2.645,2.347L1.206,0.92
			C0.984,0.691,0.73,0.639,0.442,0.764C0.146,0.89,0,1.107,0,1.418v4.957c0,0.192,0.07,0.358,0.21,0.498
			c0.14,0.141,0.306,0.211,0.498,0.211h4.958c0.312,0,0.529-0.148,0.654-0.443C6.445,6.354,6.393,6.1,6.165,5.877L4.648,4.35
			C5.166,3.863,5.756,3.488,6.42,3.227S7.777,2.834,8.5,2.834c0.768,0,1.5,0.148,2.197,0.447c0.697,0.3,1.301,0.703,1.811,1.213
			c0.508,0.51,0.912,1.111,1.211,1.809C14.017,7,14.168,7.732,14.168,8.5s-0.151,1.5-0.449,2.197
			c-0.299,0.697-0.703,1.301-1.211,1.811c-0.51,0.508-1.113,0.912-1.811,1.211s-1.43,0.448-2.197,0.448
			c-0.879,0-1.707-0.192-2.49-0.575c-0.783-0.384-1.443-0.926-1.98-1.627c-0.052-0.073-0.138-0.118-0.255-0.133
			c-0.111,0-0.204,0.033-0.276,0.1l-1.517,1.527c-0.06,0.06-0.091,0.134-0.095,0.226c-0.003,0.094,0.021,0.177,0.073,0.251
			c0.803,0.973,1.776,1.728,2.922,2.262C6.025,16.733,7.231,17,8.5,17c1.15,0,2.251-0.225,3.299-0.674
			c1.047-0.451,1.951-1.057,2.711-1.816s1.365-1.664,1.816-2.711C16.773,10.751,17,9.65,17,8.5S16.773,6.25,16.324,5.203
			L16.324,5.203z M16.324,5.203"/>
	</g>
</g>
</svg>
