<svg id="Layer_1" xmlns="http://www.w3.org/2000/svg" width="16" height="19" viewBox="0 0 16 19"><g id="XMLID_1_"><path fill="#9B9A9A" d="M1.001 18.58c0 .23-.189.42-.42.42H.42a.421.421 0 0 1-.42-.42V.42C0 .189.189 0 .42 0h.16C.811 0 1 .189 1 .42v18.16zM16 7.468c0 .231-.189.42-.42.42H4.744a.421.421 0 0 1-.42-.42V4.241c0-.231.189-.42.42-.42H15.58c.23 0 .42.189.42.42v3.227z"/><path fill="none" stroke="#9B9A9A" stroke-width="1.051" stroke-miterlimit="10" d="M11.105 14.693c0 .23-.189.42-.42.42H4.744a.421.421 0 0 1-.42-.42v-3.228c0-.23.189-.42.42-.42h5.942c.23 0 .42.189.42.42v3.228z"/></g></svg>