<svg id="Layer_1" xmlns="http://www.w3.org/2000/svg" width="16" height="19" viewBox="0 0 16 19"><g id="XMLID_1_"><path fill="#9B9A9A" d="M1 18.58c0 .23-.188.42-.42.42H.42a.42.42 0 0 1-.42-.42V.42C0 .19.19 0 .42 0h.16C.81 0 1 .19 1 .42v18.16zM16 7.468c0 .23-.19.42-.42.42H4.744a.42.42 0 0 1-.42-.42V4.24c0-.23.19-.42.42-.42H15.58c.23 0 .42.19.42.42V7.47z"/><path fill="none" stroke="#9B9A9A" stroke-width="1.051" stroke-miterlimit="10" d="M11.105 14.693c0 .23-.19.42-.42.42h-5.94a.42.42 0 0 1-.42-.42v-3.228c0-.23.188-.42.42-.42h5.94c.23 0 .42.19.42.42v3.228z"/></g></svg>