<svg id="Layer_1" xmlns="http://www.w3.org/2000/svg" width="11" height="14.88" viewBox="0 0 11 14.88"><path fill="#9B9A9A" d="M8.403-.01H.912A.913.913 0 0 0 0 .903v13.074c0 .504.409.913.912.913h9.176c.502 0 .912-.41.912-.913V2.815L8.403-.01zm.216 1.366l1.138 1.239H8.619V1.356zm1.613 12.621a.145.145 0 0 1-.145.146H.912a.146.146 0 0 1-.146-.146V.903c0-.081.066-.146.146-.146H7.85V2.98c0 .211.173.382.385.382h1.997v10.615zM2.119 4.07h6.507a.289.289 0 0 1 0 .576H2.119a.288.288 0 0 1 0-.576zm6.794 2.221a.289.289 0 0 1-.287.288H2.119a.288.288 0 0 1 0-.576h6.507a.287.287 0 0 1 .287.288zm0 1.867a.289.289 0 0 1-.287.288H2.119a.287.287 0 0 1 0-.574h6.507c.158 0 .287.128.287.286zm0 1.901a.288.288 0 0 1-.287.287H2.119a.288.288 0 1 1 0-.575h6.507c.158 0 .287.128.287.288zm0 0"/></svg>