<svg id="Layer_1" xmlns="http://www.w3.org/2000/svg" width="11" height="14.88" viewBox="0 0 11 14.88"><path fill="#9B9A9A" d="M8.403-.01H.913A.913.913 0 0 0 0 .903v13.074c0 .504.41.913.912.913h9.176c.502 0 .912-.41.912-.913V2.815L8.403-.01zm.216 1.366l1.137 1.24H8.62v-1.24zm1.612 12.62c0 .082-.065.147-.145.147H.912a.146.146 0 0 1-.146-.146V.903c0-.08.066-.146.146-.146H7.85V2.98c0 .21.173.382.385.382h1.997v10.615zM2.12 4.07h6.506a.29.29 0 0 1 0 .576H2.12a.288.288 0 0 1 0-.576zm6.793 2.22a.29.29 0 0 1-.287.29H2.12a.288.288 0 0 1 0-.577h6.506c.158 0 .287.13.287.288zm0 1.868a.29.29 0 0 1-.287.288H2.12a.287.287 0 0 1 0-.574h6.506c.158 0 .287.128.287.286zm0 1.9c0 .16-.13.288-.287.288H2.12a.288.288 0 0 1 0-.575h6.506c.158 0 .287.13.287.29zm0 0"/></svg>