<svg id="Layer_1" xmlns="http://www.w3.org/2000/svg" width="22" height="21" viewBox="0 0 22 21"><g fill="#428CBB"><path d="M21.236 1h-5.938a.771.771 0 0 0-.764.777v.332a.77.77 0 0 0 .764.776h4.846v4.922a.77.77 0 0 0 .766.776h.326A.77.77 0 0 0 22 7.808v-6.03A.771.771 0 0 0 21.236 1zm0 0M7.677 1H1.738a.77.77 0 0 0-.763.777v6.03a.77.77 0 0 0 .764.776h.327a.77.77 0 0 0 .765-.776V2.886h4.847a.77.77 0 0 0 .763-.776v-.333A.773.773 0 0 0 7.677 1zm0 0M7.677 19.115H2.83v-4.922a.77.77 0 0 0-.765-.776h-.327a.77.77 0 0 0-.764.776v6.031a.77.77 0 0 0 .764.776h5.938a.77.77 0 0 0 .763-.775v-.333a.77.77 0 0 0-.762-.777zm0 0M21.236 13.417h-.326a.771.771 0 0 0-.766.776v4.922h-4.846a.771.771 0 0 0-.764.776v.333a.77.77 0 0 0 .764.775h5.938a.77.77 0 0 0 .764-.774v-6.031a.772.772 0 0 0-.764-.777zm0 0M13.525 10.059h-1.109V8.93a.77.77 0 0 0-.765-.775h-.327a.771.771 0 0 0-.766.775v1.129H9.449a.773.773 0 0 0-.766.775v.333c0 .429.345.776.766.776h1.109v1.127c0 .43.343.777.766.777h.327a.77.77 0 0 0 .765-.777v-1.127h1.109a.77.77 0 0 0 .764-.776v-.333a.77.77 0 0 0-.764-.775zm0 0"/></g><g fill="#FFF"><path d="M20.262 0h-5.938a.77.77 0 0 0-.763.777v.332a.77.77 0 0 0 .763.776h4.847v4.922a.77.77 0 0 0 .765.776h.327a.771.771 0 0 0 .764-.776V.777A.773.773 0 0 0 20.262 0zm0 0M6.701 0H.764A.77.77 0 0 0 0 .777v6.03a.77.77 0 0 0 .764.776h.326a.77.77 0 0 0 .766-.776V1.886h4.846a.771.771 0 0 0 .764-.776V.777A.773.773 0 0 0 6.701 0zm0 0M6.701 18.115H1.855v-4.922a.77.77 0 0 0-.766-.776H.764a.77.77 0 0 0-.764.776v6.031A.77.77 0 0 0 .764 20h5.938a.77.77 0 0 0 .764-.775v-.333a.773.773 0 0 0-.765-.777zm0 0M20.262 12.417h-.327a.771.771 0 0 0-.765.776v4.922h-4.847a.77.77 0 0 0-.763.776v.333a.77.77 0 0 0 .763.775h5.938a.77.77 0 0 0 .764-.775v-6.031a.77.77 0 0 0-.763-.776zm0 0M12.551 9.059h-1.109V7.93a.77.77 0 0 0-.766-.775h-.327a.77.77 0 0 0-.765.775v1.129H8.475a.771.771 0 0 0-.765.775v.333a.77.77 0 0 0 .765.776h1.109v1.127c0 .43.342.777.765.777h.327a.772.772 0 0 0 .766-.777v-1.127h1.109a.771.771 0 0 0 .764-.776v-.333a.77.77 0 0 0-.764-.775zm0 0"/></g></svg>