<svg id="Layer_1" xmlns="http://www.w3.org/2000/svg" width="21" height="21" viewBox="0 0 21 21"><path fill="#428CBB" d="M10.5 1L21 6.27l-10.5 5.272L0 6.272 10.5 1zm0 12.46L2.928 9.657 0 11.128l10.5 5.27 10.5-5.27-2.928-1.47-7.572 3.8zm0 4.6L2.928 14.26 0 15.728 10.5 21 21 15.73l-2.928-1.472L10.5 18.06zm0 0"/><path fill="#FFF" d="M10.5 0L21 5.27l-10.5 5.272L0 5.272 10.5 0zm0 12.46L2.928 8.657 0 10.128l10.5 5.27 10.5-5.27-2.928-1.47-7.572 3.8zm0 4.6L2.928 13.26 0 14.728 10.5 20 21 14.73l-2.928-1.472L10.5 17.06zm0 0"/></svg>