<svg id="Layer_1" xmlns="http://www.w3.org/2000/svg" width="13.48" height="20.4" viewBox="0 0 13.48 20.4"><g fill="#9B9A9A"><path d="M10.922 2.54h1.201v1.102h1.357V1.37H6.807v2.271h1.357V2.54h1.199v4.682h-.64v1.174h2.879V7.222h-.68V2.54zm0 0M10.922 13.175h1.201v1.104h1.357v-2.271H6.807v2.271h1.357v-1.104h1.199v4.683h-.64v1.174h2.879v-1.174h-.68v-4.683zm0 0"/><g><path d="M1.836 20.401L.918 19.23 0 18.06h3.672l-.918 1.17z"/><path d="M1.293 2.34h1.086v15.72H1.293zM1.838-.001l.916 1.17.918 1.171H0l.918-1.171z"/></g></g></svg>