<svg id="Layer_1" xmlns="http://www.w3.org/2000/svg" width="6" height="14" viewBox="0 0 6 14"><path fill="#929BA5" d="M5.986 3.105l.004 3.11c.004 1.72-1.332 3.115-2.987 3.117-.26.002-.51-.044-.748-.107l-.002-1.448c0-.068.02-.13.038-.194.213.122.452.194.71.194.826-.002 1.498-.7 1.496-1.56l-.006-3.11c-.002-.857-.675-1.554-1.5-1.552s-1.495.7-1.493 1.558L1.5 4.22C.9 4.495.39 4.933 0 5.474L0 3.117C-.005 1.397 1.334.002 2.988 0c1.654-.004 2.996 1.387 2.998 3.105zM4.502 9.78l.002 1.104c.002.858-.67 1.557-1.495 1.56s-1.498-.695-1.5-1.554l-.005-3.11c-.002-.858.668-1.557 1.493-1.558.26 0 .498.073.71.193.017-.065.04-.125.038-.194l-.002-1.446a2.86 2.86 0 0 0-.75-.108c-1.65.002-2.99 1.4-2.988 3.117l.006 3.11c.004 1.72 1.345 3.11 3 3.107 1.652-.004 2.99-1.4 2.988-3.117l-.004-2.358c-.387.54-.895.98-1.494 1.254zm0 0"/></svg>