<svg id="Layer_1" xmlns="http://www.w3.org/2000/svg" width="18" height="18" viewBox="0 0 18 18"><path fill="#428CBB" d="M1.676 6.203A8.26 8.26 0 0 0 1 9.5c0 1.15.226 2.25.675 3.297A8.588 8.588 0 0 0 3.49 15.51a8.632 8.632 0 0 0 2.711 1.816A8.33 8.33 0 0 0 9.5 18c1.27 0 2.477-.268 3.618-.802a8.286 8.286 0 0 0 2.922-2.263.398.398 0 0 0 .074-.252.33.33 0 0 0-.097-.227L14.5 12.929a.392.392 0 0 0-.276-.1c-.117.016-.203.061-.254.133a5.519 5.519 0 0 1-1.98 1.627 5.562 5.562 0 0 1-2.49.576 5.52 5.52 0 0 1-2.197-.447 5.744 5.744 0 0 1-1.81-1.211 5.746 5.746 0 0 1-1.212-1.811A5.512 5.512 0 0 1 3.833 9.5c0-.77.15-1.499.449-2.197a5.757 5.757 0 0 1 1.212-1.811 5.755 5.755 0 0 1 1.81-1.211 5.514 5.514 0 0 1 2.197-.449 5.613 5.613 0 0 1 3.851 1.518l-1.517 1.527c-.228.223-.28.475-.155.764.125.295.342.443.653.443h4.96a.68.68 0 0 0 .498-.211.687.687 0 0 0 .209-.498V2.418c0-.311-.146-.529-.441-.654-.289-.125-.545-.074-.765.155l-1.44 1.427a8.628 8.628 0 0 0-2.705-1.732A8.31 8.31 0 0 0 9.5 1c-1.15 0-2.25.225-3.299.676A8.56 8.56 0 0 0 3.49 3.49a8.547 8.547 0 0 0-1.814 2.713z"/><path fill="#FFF" d="M.676 5.203A8.26 8.26 0 0 0 0 8.5c0 1.15.226 2.25.675 3.297A8.588 8.588 0 0 0 2.49 14.51a8.632 8.632 0 0 0 2.711 1.816A8.33 8.33 0 0 0 8.5 17c1.27 0 2.477-.268 3.618-.802a8.286 8.286 0 0 0 2.922-2.263.398.398 0 0 0 .074-.252.33.33 0 0 0-.097-.227L13.5 11.929a.392.392 0 0 0-.276-.1c-.117.016-.203.061-.254.133a5.519 5.519 0 0 1-1.98 1.627 5.562 5.562 0 0 1-2.49.576 5.52 5.52 0 0 1-2.197-.447 5.744 5.744 0 0 1-1.81-1.211 5.746 5.746 0 0 1-1.212-1.811A5.512 5.512 0 0 1 2.833 8.5c0-.77.15-1.499.449-2.197a5.757 5.757 0 0 1 1.212-1.811 5.755 5.755 0 0 1 1.81-1.211 5.514 5.514 0 0 1 2.197-.449 5.617 5.617 0 0 1 3.851 1.518l-1.517 1.527c-.228.223-.28.475-.155.764.125.295.342.443.653.443h4.96a.68.68 0 0 0 .498-.211.687.687 0 0 0 .209-.498V1.418c0-.311-.146-.529-.441-.654-.289-.125-.545-.074-.765.155l-1.44 1.427A8.628 8.628 0 0 0 11.649.614 8.31 8.31 0 0 0 8.5 0C7.35 0 6.25.225 5.201.676A8.56 8.56 0 0 0 2.49 2.49 8.547 8.547 0 0 0 .676 5.203z"/></svg>