<svg id="Layer_1" xmlns="http://www.w3.org/2000/svg" width="14" height="13" viewBox="0 0 14 13"><g fill="#9B9A9A"><path d="M1.986 3.941a.338.338 0 0 1-.206-.612l1.896-1.385a.344.344 0 0 1 .48.072.334.334 0 0 1-.071.474L2.189 3.875a.344.344 0 0 1-.203.066zm0 0M2.173 5.722a.345.345 0 0 1-.281-.144.337.337 0 0 1 .082-.473l4.063-2.839a.347.347 0 0 1 .479.081.338.338 0 0 1-.082.473L2.371 5.659a.335.335 0 0 1-.198.063zm0 0"/><path d="M13.424 0H.576A.574.574 0 0 0 0 .569v9.77c0 .313.259.568.576.568h4.69s.167-.01.167.152v.851c0 .079-.006.132-.102.132H4.11a.482.482 0 0 0-.485.479c0 .264.218.479.485.479h5.78c.27 0 .485-.215.485-.479a.482.482 0 0 0-.485-.479H8.656c-.07 0-.09-.042-.09-.091v-.919c0-.127.12-.125.12-.125h4.737a.574.574 0 0 0 .576-.568V.569A.573.573 0 0 0 13.424 0zM7.596 11.062v.877c0 .047-.024.1-.095.1H6.498c-.089 0-.093-.046-.093-.118v-.851c0-.125.15-.129.15-.129h.913c.001-.001.128-.008.128.121zM7 10.278a.561.561 0 0 1-.566-.559c0-.309.254-.559.566-.559s.566.25.566.559c0 .31-.253.559-.566.559zm6.152-2.156a.571.571 0 0 1-.575.567H1.424a.574.574 0 0 1-.576-.567V1.507c0-.313.26-.567.576-.567h11.153c.317 0 .575.255.575.567v6.615zm0 0"/></g></svg>