<svg id="Layer_1" xmlns="http://www.w3.org/2000/svg" width="13.5" height="13.5" viewBox="0 0 13.5 13.5"><g fill="#9B9A9A"><path d="M.37 11.343a1.264 1.264 0 0 0 1.79 1.787l4.148-4.153L4.523 7.19.37 11.343zm0 0M10.746 3.647l1.808-.936L13.5.88 12.62 0l-1.833.946-.933 1.807L7.65 4.956l.895.893 2.2-2.203zm0 0"/><path d="M11.14 8.446l-.167-.016c-.31 0-.6.062-.877.165l-5.19-5.19c.103-.276.164-.57.164-.88l-.016-.167A2.52 2.52 0 0 0 2.544 0c-.39 0-.758.095-1.087.25l1.68 1.685c.09.086.152.194.19.3a.837.837 0 0 1-.783 1.135.773.773 0 0 1-.293-.057.79.79 0 0 1-.303-.19L.267 1.446a2.47 2.47 0 0 0-.255 1.082A2.525 2.525 0 0 0 2.37 5.042l.173.018c.308 0 .6-.067.872-.166l5.19 5.19c-.098.27-.164.563-.164.872l.02.174a2.522 2.522 0 0 0 2.513 2.357 2.45 2.45 0 0 0 1.082-.255l-1.68-1.68a.86.86 0 0 1-.193-.3.848.848 0 0 1 .194-.89.838.838 0 0 1 .597-.247.8.8 0 0 1 .29.058c.108.042.216.1.303.19l1.683 1.678c.155-.327.25-.694.25-1.085a2.522 2.522 0 0 0-2.36-2.51zm0 0"/></g></svg>