<svg id="Layer_1" xmlns="http://www.w3.org/2000/svg" width="18" height="18" viewBox="0 0 18 18"><path fill="#428CBB" d="M17.324 6.203A8.558 8.558 0 0 0 15.51 3.49a8.61 8.61 0 0 0-2.71-1.814A8.28 8.28 0 0 0 9.5 1a8.306 8.306 0 0 0-3.148.615 8.585 8.585 0 0 0-2.707 1.732L2.205 1.92c-.22-.23-.475-.28-.763-.156-.296.126-.442.343-.442.654v4.957c0 .192.07.358.21.498.14.14.306.21.498.21h4.958c.312 0 .53-.147.654-.442.125-.286.073-.54-.155-.763L5.648 5.35c.518-.487 1.108-.862 1.772-1.123s1.357-.393 2.08-.393c.768 0 1.5.148 2.197.447.697.3 1.3.704 1.81 1.214s.913 1.11 1.212 1.81c.297.696.448 1.428.448 2.196s-.15 1.5-.45 2.197c-.298.697-.702 1.3-1.21 1.81-.51.51-1.113.913-1.81 1.212s-1.43.447-2.198.447c-.88 0-1.707-.192-2.49-.575a5.533 5.533 0 0 1-1.98-1.627c-.052-.073-.138-.118-.255-.133a.39.39 0 0 0-.276.1L2.98 14.46a.325.325 0 0 0-.095.225.4.4 0 0 0 .073.25A8.275 8.275 0 0 0 5.882 17.2 8.432 8.432 0 0 0 9.5 18c1.15 0 2.25-.225 3.3-.674 1.046-.45 1.95-1.057 2.71-1.816s1.365-1.664 1.816-2.71c.447-1.05.674-2.15.674-3.3s-.227-2.25-.676-3.297zm0 0"/><path fill="#FFF" d="M16.324 5.203A8.558 8.558 0 0 0 14.51 2.49 8.61 8.61 0 0 0 11.8.676 8.28 8.28 0 0 0 8.5 0a8.306 8.306 0 0 0-3.148.615 8.585 8.585 0 0 0-2.707 1.732L1.205.92C.986.69.73.64.443.764.146.89 0 1.107 0 1.418v4.957c0 .192.07.358.21.498.14.14.306.21.498.21h4.958c.312 0 .53-.147.654-.442.125-.286.073-.54-.155-.763L4.648 4.35c.518-.487 1.108-.862 1.772-1.123s1.357-.393 2.08-.393c.768 0 1.5.148 2.197.447.697.3 1.3.704 1.81 1.214s.913 1.11 1.212 1.81c.297.696.448 1.428.448 2.196s-.15 1.5-.45 2.197c-.298.697-.702 1.3-1.21 1.81-.51.51-1.113.913-1.81 1.212s-1.43.447-2.198.447c-.88 0-1.707-.192-2.49-.575a5.533 5.533 0 0 1-1.98-1.627c-.052-.073-.138-.118-.255-.133a.39.39 0 0 0-.276.1L1.98 13.46a.325.325 0 0 0-.095.225.4.4 0 0 0 .073.25A8.275 8.275 0 0 0 4.882 16.2 8.432 8.432 0 0 0 8.5 17c1.15 0 2.25-.225 3.3-.674 1.046-.45 1.95-1.057 2.71-1.816s1.365-1.664 1.816-2.71c.447-1.05.674-2.15.674-3.3s-.227-2.25-.676-3.297zm0 0"/></svg>