<svg id="Layer_1" xmlns="http://www.w3.org/2000/svg" width="19.32" height="19.31" viewBox="0 0 19.32 19.31"><path fill="#9B9C9B" d="M.004 0v19.311h19.312V0H.004zm18.312 18.311H1.003V.999h17.313v17.312z"/><path fill="#9B9A9A" d="M8.407 5.767a.701.701 0 0 1 .057-.702l.485-.628c.142-.183.068-.333-.163-.333H4.519a.421.421 0 0 0-.42.42v3.293c0 .231.189.42.42.42h4.268c.231 0 .42-.189.42-.42v-.159c0-.231-.09-.586-.201-.79l-.599-1.101zM11.192 4.104a.969.969 0 0 0-.678.333l-.485.628a.701.701 0 0 0-.056.702l.599 1.102c.11.204.201.559.201.79v.159c0 .231.189.42.42.42h4.019c.23 0 .42-.189.42-.42V4.524a.421.421 0 0 0-.42-.42h-4.02z"/><g><path fill="#9B9A9A" d="M8.407 12.717a.701.701 0 0 1 .057-.702l.485-.627c.142-.184.068-.333-.163-.333H4.545a.421.421 0 0 0-.42.42v3.295c0 .23.189.42.42.42h4.241c.231 0 .42-.189.42-.42v-.16c0-.23-.09-.586-.201-.789l-.598-1.104zM11.192 11.055a.969.969 0 0 0-.678.333l-.485.627a.702.702 0 0 0-.057.702l.599 1.104c.11.203.201.559.201.789v.16c0 .23.189.42.42.42h4.046c.23 0 .42-.189.42-.42v-3.295c0-.23-.189-.42-.42-.42h-4.046z"/></g></svg>