<svg id="Layer_1" xmlns="http://www.w3.org/2000/svg" width="14" height="14" viewBox="0 0 14 14"><g fill-rule="evenodd" clip-rule="evenodd"><path fill="#428CBB" d="M9.034 7.487l4.646-4.645a1.095 1.095 0 1 0-1.55-1.55L7.488 5.94 2.84 1.295a1.094 1.094 0 0 0-1.548 1.547l4.646 4.645-4.646 4.644a1.095 1.095 0 0 0 1.55 1.55l4.646-4.644 4.645 4.644a1.094 1.094 0 1 0 1.547-1.548L9.034 7.487zm0 0"/><path fill="#FFF" d="M8.062 6.514l4.646-4.645A1.094 1.094 0 1 0 11.158.32L6.515 4.964 1.87.322A1.094 1.094 0 0 0 .32 1.87l4.645 4.645L.32 11.157a1.095 1.095 0 0 0 1.55 1.55l4.646-4.645 4.645 4.644a1.094 1.094 0 1 0 1.547-1.548L8.063 6.514zm0 0"/></g></svg>