<svg xmlns="http://www.w3.org/2000/svg" xmlns:xlink="http://www.w3.org/1999/xlink" width="12.83" height="19.31" viewBox="0 0 12.83 19.31"><symbol id="a" viewBox="-30.506 -45.938 61.013 91.875"><path fill="#9B9A9A" d="M2.269-43.938c0-1.1-.9-2-2-2h-.703c-1.1 0-2 .9-2 2v87.875c0 1.1.9 2 2 2h.703c1.1 0 2-.9 2-2v-87.875z"/><path fill="#9B9A9A" d="M15.851 10.863c0-1.1-.9-2-2-2h-27.867c-1.1 0-2 .9-2 2v15.666c0 1.101.9 2 2 2h27.867c1.1 0 2-.899 2-2V10.863z"/><path fill="#F4F6F7" d="M28.007-24.449c0-1.1-.9-2-2-2h-52.013c-1.1 0-2 .9-2 2v15.666c0 1.1.9 2 2 2h52.013c1.1 0 2-.9 2-2v-15.666z"/><path fill="none" stroke="#9B9A9A" stroke-width="5" stroke-miterlimit="10" d="M28.007-24.449c0-1.1-.9-2-2-2h-52.013c-1.1 0-2 .9-2 2v15.666c0 1.1.9 2 2 2h52.013c1.1 0 2-.9 2-2v-15.666z"/></symbol><use xlink:href="#a" width="61.013" height="91.875" x="-30.506" y="-45.938" transform="matrix(.2102 0 0 -.2102 6.415 9.655)" overflow="visible"/></svg>