<svg xmlns="http://www.w3.org/2000/svg" width="10.56" height="12.7" viewBox="0 0 10.56 12.7"><path fill="#9B9A9A" d="M8.234 5.961c1.15-.511 1.803-1.468 1.803-2.688 0-1.085-.438-1.961-1.266-2.535C8.086.265 7.129.002 6.08.002H-.002v2.137h1.067v8.422H-.002v2.138h5.713c.931 0 2.261-.142 3.312-.814 1.02-.652 1.537-1.645 1.537-2.945.001-1.502-.876-2.605-2.326-2.979zm-2.82-.932H3.581v-2.89h1.641c1.632 0 2.294.398 2.294 1.376 0 1.252-1.145 1.514-2.102 1.514zm-1.833 2.2h1.938c1.794 0 2.527.467 2.527 1.613 0 1.141-.879 1.718-2.615 1.718h-1.85V7.229zm0 0"/></svg>