<svg xmlns="http://www.w3.org/2000/svg" width="19" height="19" viewBox="0 0 19 19"><path fill="#9B9C9B" d="M0 0v19h19V0H0zm18.016 18.017H.982V.983h17.034v17.034z"/><path fill="#9B9A9A" d="M15.174 15.114c0 .23-.189.42-.42.42H4.247a.421.421 0 0 1-.42-.42v-3.229c0-.23.189-.42.42-.42h10.507c.23 0 .42.189.42.42v3.229z"/><path fill="none" stroke="#9B9A9A" stroke-width="1.051" stroke-miterlimit="10" d="M12.797 8.274c0 .231-.189.42-.42.42H6.625a.421.421 0 0 1-.42-.42V5.048c0-.231.189-.42.42-.42h5.751c.23 0 .42.189.42.42v3.226z"/></svg>