<svg xmlns="http://www.w3.org/2000/svg" width="6" height="14" viewBox="0 0 6 14"><path fill="#929BA5" d="M5.986 3.105l.004 3.111c.004 1.719-1.332 3.114-2.987 3.116a2.845 2.845 0 0 1-.748-.107l-.002-1.448c0-.068.021-.13.038-.194.212.122.451.194.71.194.825-.002 1.497-.701 1.495-1.559l-.006-3.11c-.002-.858-.675-1.555-1.5-1.553s-1.495.7-1.493 1.558l.002 1.107c-.6.275-1.109.713-1.497 1.254L0 3.117C-.005 1.398 1.334.002 2.988 0c1.654-.004 2.996 1.387 2.998 3.105zM4.502 9.779l.002 1.105c.002.858-.67 1.557-1.495 1.559s-1.497-.694-1.5-1.553l-.004-3.11c-.002-.858.668-1.557 1.493-1.558.259-.001.498.073.71.193.017-.065.04-.125.038-.194l-.002-1.447a2.86 2.86 0 0 0-.749-.108C1.343 4.668.003 6.065.006 7.783l.006 3.11C.016 12.612 1.357 14.002 3.013 14c1.651-.004 2.989-1.399 2.987-3.117l-.004-2.358c-.387.54-.895.979-1.494 1.254zm0 0"/></svg>