<svg xmlns="http://www.w3.org/2000/svg" xmlns:xlink="http://www.w3.org/1999/xlink" width="17.38" height="14.19" viewBox="0 0 17.38 14.19"><defs><path id="a" d="M-.001.002h17.382v14.185H-.001z"/></defs><clipPath id="b"><use xlink:href="#a" overflow="visible"/></clipPath><path clip-path="url(#b)" fill="#65BD61" d="M16.932 0H.458a.459.459 0 0 0-.459.458v13.268c0 .254.205.459.459.459h16.474a.458.458 0 0 0 .457-.459V.458A.458.458 0 0 0 16.932 0zm-1.268 12.459H1.725V1.726h13.939v10.733zm0 0"/><path fill="#65BD61" d="M3.456 11.363h10.476a.427.427 0 0 0 .426-.426V8.506a.433.433 0 0 0-.121-.297L13.07 7.014a.425.425 0 0 0-.588-.02l-2.197 1.972-3.794-3.443a.427.427 0 0 0-.549-.019L3.196 7.659a.418.418 0 0 0-.162.333v2.945c0 .235.189.426.422.426zm0 0"/><path fill="#65BD61" d="M10.414 7.451a.955.955 0 0 0 .955-.953.954.954 0 0 0-1.908 0c0 .525.428.953.953.953zm0 0"/></svg>