<svg xmlns="http://www.w3.org/2000/svg" xmlns:xlink="http://www.w3.org/1999/xlink" width="13.62" height="13.9" viewBox="0 0 13.62 13.9"><defs><path id="a" d="M0 .16h13.619v13.919H0z"/></defs><clipPath id="b"><use xlink:href="#a" overflow="visible"/></clipPath><path clip-path="url(#b)" fill-rule="evenodd" clip-rule="evenodd" fill="#65C6BB" d="M9.85 5.637s.535-.451.127-.903-.805.13-.805.13L5.075 9.413s-.961 1.373-1.689.541c-.731-.83.488-1.874.488-1.874l5.375-5.96s1.254-1.532 2.432-.225c1.18 1.308-.205 2.699-.205 2.699l-6.039 6.698s-1.934 2.479-3.723.492c-1.788-1.984.464-4.101.464-4.101l4.586-5.089s.514-.475.129-.903c-.389-.428-.814.144-.814.144L.819 7.67s-1.986 2.415.23 4.875c2.219 2.459 4.396.256 4.396.256l7.23-8.021s1.447-1.768-.277-3.684C10.673-.816 9.078.787 9.078.787l-6.222 6.9s-1.592 1.439-.146 3.041c1.445 1.604 2.717-.188 2.717-.188L9.85 5.637zm0 0"/></svg>