<svg xmlns="http://www.w3.org/2000/svg" width="24" height="17" viewBox="0 0 24 17"><path fill="#929BA5" d="M18.763 10.924c.353.182.528.49.528.926v4.142c0 .272-.08.509-.238.709a.749.749 0 0 1-.609.3H5.451c-.229 0-.423-.101-.583-.3a1.112 1.112 0 0 1-.239-.709V11.85c0-.436.177-.744.529-.926L8.81 9.181l1.43-.681c-.671-.418-1.183-1.018-1.535-1.798a5.003 5.003 0 0 1-.45-2.888c.034-.218.081-.427.132-.627.249-.926.693-1.688 1.338-2.289C10.369.3 11.113 0 11.961 0c.864 0 1.622.309 2.275.927.652.617 1.094 1.397 1.324 2.343.088.454.131.862.131 1.225 0 .727-.141 1.427-.424 2.1-.352.816-.863 1.434-1.535 1.851l1.508.736 3.523 1.742zM4.629 9.781c-.388.18-.692.457-.912.829a2.382 2.382 0 0 0-.331 1.239v3.515H.662c-.196 0-.354-.077-.477-.231S0 14.784 0 14.548v-3.323c0-.4.141-.653.421-.764L4.524 8.5c-.495-.309-.891-.748-1.191-1.321-.3-.572-.45-1.213-.45-1.92 0-.491.081-.958.238-1.403.16-.446.375-.831.648-1.158.273-.326.592-.586.954-.776.36-.19.754-.285 1.175-.285.283 0 .548.045.794.137a3.6 3.6 0 0 1 .715.353c-.3.764-.45 1.554-.45 2.369 0 .637.088 1.25.265 1.84.175.59.423 1.121.741 1.594a2.64 2.64 0 0 1-.61.517L4.629 9.781zm18.949.68"/><path fill="#929BA5" d="M16.645 8.405a2.638 2.638 0 0 1-.609-.518 5.82 5.82 0 0 0 .74-1.593c.178-.59.266-1.203.266-1.84 0-.815-.15-1.605-.449-2.369.229-.146.467-.263.715-.353.246-.092.512-.137.795-.137.42 0 .814.095 1.175.285.361.19.681.45.954.776.273.327.488.712.648 1.158.157.445.238.912.238 1.403 0 .707-.15 1.348-.45 1.92-.3.572-.696 1.012-1.19 1.32l4.102 1.961c.279.114.42.366.42.767v3.324c0 .236-.062.43-.185.584s-.28.232-.478.232h-2.725V11.81c0-.453-.109-.867-.331-1.238a2.027 2.027 0 0 0-.911-.83l-2.725-1.337zM.422 10.421"/></svg>