<svg xmlns="http://www.w3.org/2000/svg" width="18" height="18" viewBox="0 0 18 18"><path fill="#428CBB" d="M1.676 12.797c.449 1.049 1.054 1.953 1.814 2.713s1.664 1.365 2.711 1.814A8.267 8.267 0 0 0 9.5 18c1.084 0 2.135-.203 3.148-.613s1.917-.988 2.706-1.732l1.44 1.426c.22.23.475.281.764.156.295-.126.442-.344.442-.655v-4.957a.687.687 0 0 0-.209-.498.68.68 0 0 0-.498-.211h-4.96c-.311 0-.528.148-.653.443-.125.289-.072.541.155.764l1.517 1.527a5.617 5.617 0 0 1-3.851 1.518c-.768 0-1.5-.15-2.197-.449s-1.299-.703-1.81-1.211c-.509-.512-.913-1.113-1.212-1.811S3.833 10.27 3.833 9.5c0-.766.149-1.5.448-2.197s.703-1.299 1.212-1.811c.511-.508 1.112-.912 1.81-1.211s1.43-.447 2.197-.447c.879 0 1.707.191 2.49.576a5.51 5.51 0 0 1 1.98 1.627c.052.072.137.117.255.133a.389.389 0 0 0 .276-.1l1.517-1.527a.334.334 0 0 0 .096-.227.398.398 0 0 0-.074-.252 8.295 8.295 0 0 0-2.922-2.262A8.444 8.444 0 0 0 9.5 1a8.33 8.33 0 0 0-3.299.674A8.632 8.632 0 0 0 3.49 3.49a8.588 8.588 0 0 0-1.815 2.713A8.284 8.284 0 0 0 1 9.5c0 1.152.226 2.25.676 3.297zm0 0"/><path fill="#FFF" d="M.676 11.797c.449 1.049 1.054 1.953 1.814 2.713s1.664 1.365 2.711 1.814A8.267 8.267 0 0 0 8.5 17c1.084 0 2.135-.203 3.148-.613s1.917-.988 2.706-1.732l1.44 1.426c.22.23.475.281.764.156.295-.126.442-.344.442-.655v-4.957a.687.687 0 0 0-.209-.498.68.68 0 0 0-.498-.211h-4.96c-.311 0-.528.148-.653.443-.125.289-.072.541.155.764l1.517 1.527a5.617 5.617 0 0 1-3.851 1.518c-.768 0-1.5-.15-2.197-.449s-1.299-.703-1.81-1.211c-.509-.512-.913-1.113-1.212-1.811S2.833 9.27 2.833 8.5c0-.766.149-1.5.448-2.197s.703-1.299 1.212-1.811c.511-.508 1.112-.912 1.81-1.211s1.43-.447 2.197-.447c.879 0 1.707.191 2.49.576a5.51 5.51 0 0 1 1.98 1.627c.052.072.137.117.255.133a.389.389 0 0 0 .276-.1l1.517-1.527a.334.334 0 0 0 .096-.227.398.398 0 0 0-.074-.252A8.295 8.295 0 0 0 12.118.802 8.444 8.444 0 0 0 8.5 0a8.33 8.33 0 0 0-3.299.674A8.632 8.632 0 0 0 2.49 2.49 8.588 8.588 0 0 0 .675 5.203 8.284 8.284 0 0 0 0 8.5c0 1.152.226 2.25.676 3.297zm0 0"/></svg>