<svg xmlns="http://www.w3.org/2000/svg" xmlns:xlink="http://www.w3.org/1999/xlink" width="14" height="13" viewBox="0 0 14 13"><defs><path id="a" d="M.504 0h12.992v13H.504z"/></defs><clipPath id="b"><use xlink:href="#a" overflow="visible"/></clipPath><path clip-path="url(#b)" fill-rule="evenodd" clip-rule="evenodd" fill="#919090" d="M13.139 11.104l-2.814-2.813c-.014-.015-.031-.025-.047-.039.553-.84.879-1.846.879-2.927a5.328 5.328 0 0 0-10.653 0 5.327 5.327 0 0 0 5.327 5.325 5.288 5.288 0 0 0 2.923-.877c.016.015.025.034.041.048l2.814 2.813c.422.423 1.105.423 1.529 0s.425-1.108.001-1.53zm-7.308-2.3a3.48 3.48 0 1 1 0-6.96 3.48 3.48 0 0 1 0 6.96zm0 0"/></svg>