<?xml version="1.0" encoding="utf-8"?>
<!-- Generator: Adobe Illustrator 16.0.0, SVG Export Plug-In . SVG Version: 6.00 Build 0)  -->
<!DOCTYPE svg PUBLIC "-//W3C//DTD SVG 1.1//EN" "http://www.w3.org/Graphics/SVG/1.1/DTD/svg11.dtd">
<svg version="1.1" id="Layer_1" xmlns="http://www.w3.org/2000/svg" xmlns:xlink="http://www.w3.org/1999/xlink" x="0px" y="0px"
	 width="10.56px" height="12.7px" viewBox="0 0 10.56 12.7" enable-background="new 0 0 10.56 12.7" xml:space="preserve">
<g>
	<path fill="#9B9A9A" d="M8.234,5.961c1.15-0.511,1.803-1.468,1.803-2.688c0-1.085-0.438-1.961-1.266-2.535
		C8.086,0.265,7.129,0.002,6.08,0.002h-6.082v2.137h1.067v8.422h-1.067v2.138h5.713c0.931,0,2.261-0.142,3.312-0.814
		c1.02-0.652,1.537-1.645,1.537-2.945C10.561,7.438,9.684,6.335,8.234,5.961L8.234,5.961z M5.414,5.029H3.581V2.139h1.641
		c1.632,0,2.294,0.398,2.294,1.376C7.516,4.767,6.371,5.029,5.414,5.029L5.414,5.029z M3.581,7.229h1.938
		c1.794,0,2.527,0.467,2.527,1.613c0,1.141-0.879,1.718-2.615,1.718h-1.85V7.229z M3.581,7.229"/>
</g>
</svg>
