<?xml version="1.0" encoding="utf-8"?>
<!-- Generator: Adobe Illustrator 16.0.0, SVG Export Plug-In . SVG Version: 6.00 Build 0)  -->
<!DOCTYPE svg PUBLIC "-//W3C//DTD SVG 1.1//EN" "http://www.w3.org/Graphics/SVG/1.1/DTD/svg11.dtd">
<svg version="1.1" id="Layer_1" xmlns="http://www.w3.org/2000/svg" xmlns:xlink="http://www.w3.org/1999/xlink" x="0px" y="0px"
	 width="6.72px" height="5.23px" viewBox="0 0 6.72 5.23" enable-background="new 0 0 6.72 5.23" xml:space="preserve">
<g>
	<g>
		<path fill="#FFFFFF" d="M6.652,0.814L5.904,0.065c-0.09-0.088-0.232-0.088-0.322,0l-3.117,3.12L1.137,1.858
			c-0.088-0.088-0.232-0.088-0.322,0l-0.748,0.75c-0.088,0.088-0.088,0.231,0,0.321l2.236,2.237C2.346,5.21,2.404,5.231,2.465,5.231
			c0.057,0,0.115-0.021,0.158-0.066l4.029-4.03c0.045-0.042,0.066-0.101,0.066-0.161C6.719,0.916,6.697,0.857,6.652,0.814
			L6.652,0.814z M6.652,0.814"/>
	</g>
</g>
</svg>
