<?xml version="1.0" encoding="utf-8"?>
<!-- Generator: Adobe Illustrator 16.0.0, SVG Export Plug-In . SVG Version: 6.00 Build 0)  -->
<!DOCTYPE svg PUBLIC "-//W3C//DTD SVG 1.1//EN" "http://www.w3.org/Graphics/SVG/1.1/DTD/svg11.dtd">
<svg version="1.1" id="Layer_1" xmlns="http://www.w3.org/2000/svg" xmlns:xlink="http://www.w3.org/1999/xlink" x="0px" y="0px"
	 width="14.84px" height="11.66px" viewBox="0 0 14.84 11.66" enable-background="new 0 0 14.84 11.66" xml:space="preserve">
<g>
	<g>
		<g>
			<path fill="#65C6BB" d="M14.252,4.537c-0.392-0.916-0.919-1.705-1.581-2.367c-0.663-0.663-1.452-1.19-2.369-1.582
				C9.385,0.195,8.425,0,7.42,0S5.454,0.195,4.538,0.588C3.621,0.98,2.832,1.507,2.17,2.17c-0.662,0.662-1.19,1.451-1.582,2.367
				C0.196,5.455,0,6.414,0,7.42c0,1.445,0.389,2.779,1.168,4c0.104,0.16,0.254,0.24,0.447,0.24h11.609
				c0.193,0,0.343-0.08,0.447-0.24c0.779-1.227,1.168-2.56,1.168-4C14.84,6.414,14.644,5.455,14.252,4.537L14.252,4.537z M6.67,1.37
				C6.878,1.164,7.127,1.06,7.42,1.06S7.962,1.164,8.169,1.37c0.208,0.207,0.311,0.457,0.311,0.749c0,0.293-0.103,0.543-0.311,0.75
				C7.962,3.076,7.713,3.18,7.42,3.18S6.877,3.076,6.67,2.869s-0.31-0.457-0.31-0.75C6.36,1.827,6.463,1.577,6.67,1.37L6.67,1.37z
				 M2.869,8.169C2.663,8.376,2.412,8.48,2.12,8.48c-0.293,0-0.542-0.104-0.749-0.312C1.163,7.963,1.061,7.712,1.061,7.42
				c0-0.293,0.103-0.543,0.311-0.75C1.578,6.463,1.827,6.359,2.12,6.359c0.292,0,0.543,0.104,0.749,0.311
				C3.076,6.877,3.18,7.127,3.18,7.42C3.18,7.712,3.076,7.962,2.869,8.169L2.869,8.169z M4.459,4.459
				C4.252,4.666,4.003,4.77,3.71,4.77c-0.292,0-0.542-0.104-0.749-0.311s-0.312-0.457-0.312-0.75c0-0.292,0.104-0.541,0.312-0.749
				C3.168,2.753,3.418,2.65,3.71,2.65c0.293,0,0.542,0.103,0.749,0.31C4.666,3.168,4.77,3.417,4.77,3.709
				C4.77,4.002,4.666,4.252,4.459,4.459L4.459,4.459z M9.15,4.529L8.314,7.693C8.591,7.881,8.789,8.131,8.91,8.447
				c0.122,0.314,0.139,0.637,0.05,0.969c-0.11,0.424-0.355,0.747-0.736,0.969c-0.382,0.221-0.784,0.275-1.209,0.165
				c-0.426-0.11-0.749-0.356-0.97-0.737S5.77,9.029,5.88,8.604C5.968,8.272,6.142,8,6.401,7.788s0.555-0.333,0.886-0.36l0.837-3.164
				c0.038-0.143,0.121-0.252,0.248-0.326s0.26-0.093,0.397-0.054c0.138,0.038,0.244,0.12,0.318,0.244
				C9.163,4.252,9.184,4.386,9.15,4.529L9.15,4.529z M10.381,4.459c-0.208-0.207-0.311-0.457-0.311-0.75
				c0-0.292,0.103-0.541,0.311-0.749c0.207-0.207,0.456-0.31,0.749-0.31c0.292,0,0.542,0.103,0.749,0.31
				c0.207,0.208,0.312,0.457,0.312,0.749c0,0.293-0.104,0.543-0.312,0.75S11.422,4.77,11.13,4.77
				C10.837,4.77,10.588,4.666,10.381,4.459L10.381,4.459z M13.469,8.169C13.262,8.376,13.013,8.48,12.72,8.48
				c-0.292,0-0.542-0.104-0.749-0.312c-0.207-0.206-0.312-0.457-0.312-0.749c0-0.293,0.104-0.543,0.312-0.75
				s0.457-0.311,0.749-0.311c0.293,0,0.542,0.104,0.749,0.311s0.311,0.457,0.311,0.75C13.779,7.712,13.676,7.962,13.469,8.169
				L13.469,8.169z M13.469,8.169"/>
		</g>
	</g>
</g>
</svg>
