<?xml version="1.0" encoding="utf-8"?>
<!-- Generator: Adobe Illustrator 16.0.0, SVG Export Plug-In . SVG Version: 6.00 Build 0)  -->
<!DOCTYPE svg PUBLIC "-//W3C//DTD SVG 1.1//EN" "http://www.w3.org/Graphics/SVG/1.1/DTD/svg11.dtd">
<svg version="1.1" id="Layer_1" xmlns="http://www.w3.org/2000/svg" xmlns:xlink="http://www.w3.org/1999/xlink" x="0px" y="0px"
	 width="14.91px" height="14.91px" viewBox="0 0 14.91 14.91" enable-background="new 0 0 14.91 14.91" xml:space="preserve">
<g>
	<path fill="#65C6BB" d="M14.162,0.746c-0.484-0.482-1.125-0.748-1.809-0.748s-1.324,0.266-1.809,0.748L7.08,4.211
		c-0.148-0.047-0.303-0.07-0.459-0.07c-0.404,0-0.783,0.158-1.07,0.443C5.105,5.028,4.984,5.698,5.238,6.269L1,10.508
		c-0.107,0.105-0.162,0.251-0.158,0.4l0.063,1.646l-0.826,1.343c-0.129,0.211-0.098,0.484,0.078,0.659l0.199,0.2
		c0.104,0.103,0.242,0.156,0.379,0.156c0.098,0,0.195-0.026,0.283-0.08l1.342-0.83L4,14.065c0.148,0.006,0.293-0.052,0.4-0.155
		l4.24-4.242c0.191,0.087,0.402,0.131,0.615,0.131c0.404,0,0.783-0.156,1.07-0.442c0.396-0.398,0.539-0.993,0.369-1.528l3.467-3.465
		C15.16,3.366,15.16,1.743,14.162,0.746L14.162,0.746z M4.168,12.393L2.07,11.541l4.148-4.149l1.299,1.297L4.168,12.393z"/>
</g>
</svg>
