<?xml version="1.0" encoding="utf-8"?>
<!-- Generator: Adobe Illustrator 16.0.0, SVG Export Plug-In . SVG Version: 6.00 Build 0)  -->
<!DOCTYPE svg PUBLIC "-//W3C//DTD SVG 1.1//EN" "http://www.w3.org/Graphics/SVG/1.1/DTD/svg11.dtd">
<svg version="1.1" id="Layer_1" xmlns="http://www.w3.org/2000/svg" xmlns:xlink="http://www.w3.org/1999/xlink" x="0px" y="0px"
	 width="10.44px" height="8.13px" viewBox="0 0 10.44 8.13" enable-background="new 0 0 10.44 8.13" xml:space="preserve">
<g>
	<path fill="#65C6BB" d="M10.335,1.267L9.173,0.104c-0.139-0.138-0.361-0.138-0.5,0L3.829,4.951L1.767,2.889
		c-0.137-0.138-0.361-0.138-0.498,0L0.103,4.052c-0.135,0.138-0.135,0.36,0,0.499l3.477,3.474c0.066,0.068,0.158,0.104,0.25,0.104
		c0.088,0,0.18-0.035,0.248-0.104l6.258-6.259c0.068-0.065,0.104-0.156,0.104-0.25C10.438,1.425,10.403,1.334,10.335,1.267
		L10.335,1.267z M10.335,1.267"/>
</g>
</svg>
