<?xml version="1.0" encoding="utf-8"?>
<!-- Generator: Adobe Illustrator 16.0.0, SVG Export Plug-In . SVG Version: 6.00 Build 0)  -->
<!DOCTYPE svg PUBLIC "-//W3C//DTD SVG 1.1//EN" "http://www.w3.org/Graphics/SVG/1.1/DTD/svg11.dtd">
<svg version="1.1" id="Layer_1" xmlns="http://www.w3.org/2000/svg" xmlns:xlink="http://www.w3.org/1999/xlink" x="0px" y="0px"
	 width="6.95px" height="5.41px" viewBox="0 0 6.95 5.41" enable-background="new 0 0 6.95 5.41" xml:space="preserve">
<path fill="#65C6BB" d="M6.879,0.843L6.105,0.07c-0.092-0.092-0.24-0.092-0.332,0L2.549,3.294L1.177,1.923
	c-0.091-0.092-0.24-0.092-0.331,0L0.071,2.697c-0.091,0.092-0.091,0.24,0,0.332l2.313,2.312c0.045,0.045,0.105,0.068,0.166,0.068
	c0.06,0,0.12-0.023,0.166-0.068l4.164-4.166c0.045-0.043,0.068-0.104,0.068-0.166C6.947,0.949,6.924,0.888,6.879,0.843L6.879,0.843z
	 M6.879,0.843"/>
</svg>
