<?xml version="1.0" encoding="utf-8"?>
<!-- Generator: Adobe Illustrator 16.0.0, SVG Export Plug-In . SVG Version: 6.00 Build 0)  -->
<!DOCTYPE svg PUBLIC "-//W3C//DTD SVG 1.1//EN" "http://www.w3.org/Graphics/SVG/1.1/DTD/svg11.dtd">
<svg version="1.1" id="Layer_1" xmlns="http://www.w3.org/2000/svg" xmlns:xlink="http://www.w3.org/1999/xlink" x="0px" y="0px"
	 width="10.4px" height="11.66px" viewBox="0 0 10.4 11.66" enable-background="new 0 0 10.4 11.66" xml:space="preserve">
<g>
	<g>
		<path fill="#65C6BB" d="M5.2,11.66c-1.387,0-2.695-0.543-3.676-1.523c-0.98-0.984-1.523-2.289-1.523-3.68
			c0-1.387,0.543-2.696,1.523-3.676c0.313-0.313,0.816-0.313,1.133,0c0.313,0.312,0.313,0.815,0,1.129
			C1.974,4.593,1.603,5.496,1.603,6.457c0,0.963,0.371,1.867,1.055,2.547c0.68,0.68,1.582,1.055,2.543,1.055
			c0.965,0,1.867-0.375,2.547-1.055S8.802,7.42,8.802,6.457c0-0.961-0.375-1.864-1.055-2.547c-0.313-0.313-0.313-0.817,0-1.129
			c0.313-0.313,0.816-0.313,1.129,0c0.984,0.983,1.523,2.289,1.523,3.676c0,1.391-0.539,2.695-1.523,3.68
			C7.896,11.117,6.591,11.66,5.2,11.66L5.2,11.66z M5.2,11.66"/>
		<path fill="#65C6BB" d="M5.2,5.601c-0.441,0-0.801-0.358-0.801-0.801v-4C4.399,0.359,4.759,0,5.2,0s0.801,0.359,0.801,0.8v4
			C6.001,5.242,5.642,5.601,5.2,5.601L5.2,5.601z M5.2,5.601"/>
	</g>
</g>
</svg>
