<?xml version="1.0" encoding="utf-8"?>
<!-- Generator: Adobe Illustrator 16.0.0, SVG Export Plug-In . SVG Version: 6.00 Build 0)  -->
<!DOCTYPE svg PUBLIC "-//W3C//DTD SVG 1.1//EN" "http://www.w3.org/Graphics/SVG/1.1/DTD/svg11.dtd">
<svg version="1.1" id="Layer_1" xmlns="http://www.w3.org/2000/svg" xmlns:xlink="http://www.w3.org/1999/xlink" x="0px" y="0px"
	 width="117px" height="27px" viewBox="0 0 117 27" enable-background="new 0 0 117 27" xml:space="preserve">
<g>
	<g>
		<path fill="#65BD61" d="M21.418,20.687h-3.604v-8.609c0-1.015-0.246-1.784-0.738-2.308c-0.492-0.524-1.097-0.786-1.814-0.786
			c-0.55,0-1.072,0.087-1.564,0.262c-0.492,0.175-0.972,0.461-1.438,0.861c0.15,0.583,0.225,1.239,0.225,1.971v8.609H8.883v-8.609
			c0-1.015-0.247-1.784-0.738-2.308C7.652,9.245,7.056,8.983,6.355,8.983c-0.551,0-1.035,0.096-1.451,0.287
			c-0.417,0.191-0.851,0.495-1.301,0.911v10.505H0V6.263h3.603l0.004,1.073c0.451-0.432,0.981-0.781,1.59-1.048
			c0.609-0.266,1.231-0.399,1.866-0.399c0.702,0,1.407,0.158,2.117,0.474c0.71,0.316,1.333,0.773,1.867,1.373
			c0.751-0.665,1.511-1.139,2.279-1.422c0.769-0.283,1.611-0.424,2.53-0.424c0.751,0,1.466,0.113,2.142,0.337
			c0.676,0.224,1.265,0.583,1.766,1.073c0.501,0.491,0.901,1.114,1.202,1.871c0.3,0.758,0.451,1.668,0.451,2.733V20.687z"/>
		<path fill="#65BD61" d="M39.859,13.475c0,1.082-0.2,2.084-0.6,3.008c-0.401,0.922-0.951,1.721-1.652,2.395
			c-0.7,0.674-1.522,1.207-2.464,1.598c-0.943,0.391-1.948,0.586-3.015,0.586c-1.068,0-2.069-0.195-3.003-0.586
			s-1.751-0.928-2.452-1.609c-0.701-0.683-1.251-1.485-1.651-2.408c-0.4-0.924-0.601-1.918-0.601-2.982
			c0-1.048,0.204-2.034,0.613-2.957c0.409-0.923,0.964-1.73,1.664-2.42c0.701-0.69,1.518-1.231,2.452-1.622
			c0.934-0.391,1.927-0.587,2.978-0.587c1.067,0,2.072,0.196,3.015,0.587c0.942,0.391,1.764,0.923,2.464,1.597
			c0.701,0.674,1.251,1.477,1.652,2.408C39.659,11.412,39.859,12.41,39.859,13.475z M36.256,13.475c0-0.615-0.108-1.189-0.325-1.722
			c-0.216-0.532-0.512-0.999-0.885-1.397c-0.375-0.399-0.812-0.711-1.31-0.936c-0.499-0.225-1.031-0.337-1.596-0.337
			s-1.098,0.112-1.597,0.337c-0.499,0.225-0.936,0.536-1.31,0.936c-0.374,0.399-0.669,0.865-0.885,1.397
			c-0.216,0.533-0.324,1.106-0.324,1.722s0.108,1.189,0.324,1.723c0.216,0.531,0.511,0.998,0.885,1.396
			c0.375,0.399,0.811,0.711,1.31,0.936s1.031,0.337,1.597,0.337s1.098-0.112,1.596-0.337s0.936-0.536,1.31-0.936
			c0.374-0.398,0.669-0.865,0.885-1.396C36.148,14.664,36.256,14.09,36.256,13.475z"/>
		<path fill="#65BD61" d="M55.922,18.516c-0.734,0.832-1.618,1.464-2.652,1.896c-1.035,0.432-2.119,0.648-3.253,0.648
			c-1.051,0-2.043-0.191-2.976-0.574c-0.934-0.382-1.744-0.91-2.432-1.584s-1.23-1.477-1.627-2.408
			c-0.398-0.932-0.596-1.938-0.596-3.02c0-1.064,0.198-2.059,0.596-2.982c0.397-0.923,0.936-1.726,1.616-2.408
			c0.679-0.682,1.485-1.219,2.418-1.609c0.933-0.391,1.934-0.587,3.001-0.587c1.101,0,2.147,0.2,3.141,0.599
			c0.992,0.399,1.855,1.007,2.589,1.822l-2.427,2.47c-0.367-0.482-0.813-0.881-1.338-1.198c-0.525-0.316-1.164-0.474-1.915-0.474
			c-0.55,0-1.072,0.116-1.564,0.349c-0.492,0.233-0.925,0.545-1.301,0.936c-0.375,0.391-0.671,0.853-0.888,1.385
			c-0.217,0.532-0.325,1.097-0.325,1.696c0,0.6,0.108,1.165,0.325,1.697c0.217,0.533,0.508,0.994,0.875,1.385
			s0.801,0.703,1.301,0.936c0.5,0.233,1.026,0.35,1.576,0.35c0.717,0,1.368-0.17,1.952-0.512c0.583-0.341,1.05-0.777,1.401-1.311
			L55.922,18.516z"/>
		<path fill="#65BD61" d="M72.236,20.687h-4.277l-5.807-6.464v6.464h-3.677V0h3.677v12.376l5.055-6.113h4.203l-5.93,7.012
			L72.236,20.687z"/>
		<path fill="#65BD61" d="M88.4,13.45c0,0.233-0.014,0.474-0.037,0.724c-0.025,0.249-0.055,0.507-0.088,0.773H76.715
			c0.133,0.416,0.32,0.811,0.563,1.186c0.242,0.374,0.539,0.698,0.889,0.973s0.746,0.49,1.189,0.648
			c0.441,0.158,0.93,0.237,1.463,0.237c0.65,0,1.303-0.112,1.951-0.337c0.652-0.225,1.193-0.527,1.627-0.91l2.277,2.271
			c-1,0.749-1.98,1.276-2.939,1.585c-0.961,0.307-1.975,0.461-3.041,0.461c-1.084,0-2.098-0.199-3.039-0.6
			c-0.943-0.398-1.762-0.939-2.453-1.621s-1.238-1.484-1.639-2.408s-0.602-1.908-0.602-2.957c0-1.048,0.201-2.034,0.602-2.957
			c0.4-0.923,0.951-1.726,1.65-2.408c0.701-0.682,1.52-1.223,2.453-1.622C78.6,6.088,79.6,5.889,80.668,5.889
			c1.018,0,1.994,0.187,2.928,0.562c0.936,0.374,1.76,0.895,2.477,1.56c0.719,0.666,1.285,1.46,1.703,2.383
			C88.191,11.316,88.4,12.335,88.4,13.45z M84.623,12.053c-0.285-0.915-0.789-1.651-1.516-2.208
			c-0.725-0.558-1.547-0.836-2.465-0.836c-0.9,0-1.709,0.279-2.426,0.836c-0.719,0.558-1.219,1.293-1.502,2.208H84.623z"/>
		<path fill="#65BD61" d="M101.813,7.76l-1.928,3.044c-0.35-0.382-0.736-0.719-1.164-1.011c-0.424-0.291-0.854-0.437-1.287-0.437
			c-0.234,0-0.488,0.054-0.764,0.162c-0.275,0.108-0.533,0.287-0.775,0.537s-0.447,0.578-0.613,0.985
			c-0.166,0.408-0.25,0.911-0.25,1.51v8.135h-3.604V6.263h3.604v1.547c0.434-0.616,0.914-1.089,1.438-1.423
			c0.527-0.333,1.115-0.499,1.766-0.499c0.633,0,1.254,0.171,1.863,0.512C100.707,6.742,101.277,7.195,101.813,7.76z"/>
		<path fill="#65BD61" d="M117,6.238l-6.506,17.143c-0.484,1.281-1.117,2.205-1.902,2.771c-0.783,0.565-1.719,0.849-2.803,0.849
			c-0.166,0-0.35-0.013-0.549-0.037c-0.201-0.025-0.393-0.063-0.576-0.113l-1.201-3.344c0.283,0.133,0.576,0.237,0.875,0.313
			c0.301,0.074,0.586,0.111,0.852,0.111c0.566,0,1.084-0.129,1.551-0.387c0.469-0.258,0.826-0.736,1.076-1.435l0.502-1.446
			l-5.58-14.424h3.928l3.328,9.283l3.127-9.283H117z"/>
	</g>
</g>
</svg>
