<?xml version="1.0" encoding="utf-8"?>
<!-- Generator: Adobe Illustrator 14.0.0, SVG Export Plug-In . SVG Version: 6.00 Build 43363)  -->
<!DOCTYPE svg PUBLIC "-//W3C//DTD SVG 1.1//EN" "http://www.w3.org/Graphics/SVG/1.1/DTD/svg11.dtd">
<svg version="1.1" id="Layer_1" xmlns="http://www.w3.org/2000/svg" xmlns:xlink="http://www.w3.org/1999/xlink" x="0px" y="0px"
	 width="18px" height="18px" viewBox="0 0 18 18" enable-background="new 0 0 18 18" xml:space="preserve">
<g>
	<g>
		<path fill="#428CBB" d="M1.676,6.203C1.226,7.25,1,8.348,1,9.5c0,1.15,0.226,2.25,0.675,3.297c0.45,1.049,1.055,1.951,1.815,2.713
			c0.76,0.76,1.664,1.363,2.711,1.816C7.249,17.773,8.35,18,9.5,18c1.27,0,2.477-0.268,3.618-0.802
			c1.146-0.535,2.118-1.289,2.922-2.263c0.053-0.074,0.077-0.158,0.074-0.252c-0.005-0.092-0.036-0.166-0.097-0.227l-1.517-1.527
			c-0.071-0.066-0.164-0.1-0.276-0.1c-0.117,0.016-0.203,0.061-0.254,0.133c-0.537,0.703-1.199,1.244-1.98,1.627
			c-0.783,0.385-1.611,0.576-2.49,0.576c-0.767,0-1.499-0.148-2.197-0.447c-0.698-0.299-1.299-0.703-1.81-1.211
			c-0.509-0.512-0.913-1.113-1.212-1.811C3.982,11,3.833,10.266,3.833,9.5c0-0.77,0.15-1.499,0.449-2.197
			c0.299-0.697,0.703-1.299,1.212-1.811c0.511-0.508,1.113-0.912,1.81-1.211c0.697-0.299,1.429-0.449,2.197-0.449
			c0.724,0,1.416,0.133,2.08,0.395c0.664,0.263,1.253,0.635,1.771,1.123l-1.517,1.527c-0.228,0.223-0.28,0.475-0.155,0.764
			c0.125,0.295,0.342,0.443,0.653,0.443h4.96c0.191,0,0.357-0.07,0.498-0.211C17.93,7.732,18,7.566,18,7.375V2.418
			c0-0.311-0.146-0.529-0.441-0.654c-0.289-0.125-0.545-0.074-0.765,0.155l-1.44,1.427c-0.789-0.744-1.692-1.322-2.705-1.732
			C11.635,1.203,10.584,1,9.5,1C8.35,1,7.25,1.225,6.201,1.676C5.154,2.125,4.25,2.73,3.49,3.49C2.73,4.25,2.125,5.154,1.676,6.203
			L1.676,6.203z"/>
	</g>
	<g>
		<path fill="#FFFFFF" d="M0.676,5.203C0.226,6.25,0,7.348,0,8.5c0,1.15,0.226,2.25,0.675,3.297c0.45,1.049,1.055,1.951,1.815,2.713
			c0.76,0.76,1.664,1.363,2.711,1.816C6.249,16.773,7.35,17,8.5,17c1.27,0,2.477-0.268,3.618-0.802
			c1.146-0.535,2.118-1.289,2.922-2.263c0.053-0.074,0.077-0.158,0.074-0.252c-0.005-0.092-0.036-0.166-0.097-0.227l-1.517-1.527
			c-0.071-0.066-0.164-0.1-0.276-0.1c-0.117,0.016-0.203,0.061-0.254,0.133c-0.537,0.703-1.199,1.244-1.98,1.627
			c-0.783,0.385-1.611,0.576-2.49,0.576c-0.767,0-1.499-0.148-2.197-0.447c-0.698-0.299-1.299-0.703-1.81-1.211
			c-0.509-0.512-0.913-1.113-1.212-1.811C2.982,10,2.833,9.266,2.833,8.5c0-0.77,0.15-1.499,0.449-2.197
			c0.299-0.697,0.703-1.299,1.212-1.811c0.511-0.508,1.113-0.912,1.81-1.211c0.697-0.299,1.429-0.449,2.197-0.449
			c0.723,0,1.416,0.133,2.08,0.395c0.664,0.263,1.253,0.635,1.771,1.123l-1.517,1.527c-0.228,0.223-0.28,0.475-0.155,0.764
			c0.125,0.295,0.342,0.443,0.653,0.443h4.96c0.191,0,0.357-0.07,0.498-0.211C16.93,6.732,17,6.566,17,6.375V1.418
			c0-0.311-0.146-0.529-0.441-0.654c-0.289-0.125-0.545-0.074-0.765,0.155l-1.44,1.427c-0.789-0.744-1.692-1.322-2.705-1.732
			C10.635,0.203,9.584,0,8.5,0C7.35,0,6.25,0.225,5.201,0.676C4.154,1.125,3.25,1.73,2.49,2.49C1.73,3.25,1.125,4.154,0.676,5.203
			L0.676,5.203z"/>
	</g>
</g>
</svg>
